%TF.GenerationSoftware,KiCad,Pcbnew,(5.1.10)-1*%
%TF.CreationDate,2021-11-30T13:01:00-06:00*%
%TF.ProjectId,Charges_KiCAD_Project,43686172-6765-4735-9f4b-694341445f50,rev?*%
%TF.SameCoordinates,Original*%
%TF.FileFunction,Paste,Top*%
%TF.FilePolarity,Positive*%
%FSLAX46Y46*%
G04 Gerber Fmt 4.6, Leading zero omitted, Abs format (unit mm)*
G04 Created by KiCad (PCBNEW (5.1.10)-1) date 2021-11-30 13:01:00*
%MOMM*%
%LPD*%
G01*
G04 APERTURE LIST*
%ADD10R,0.950000X0.550000*%
%ADD11R,0.160000X0.065000*%
%ADD12R,1.310000X1.010000*%
%ADD13R,0.430000X1.510000*%
%ADD14R,0.090000X1.130000*%
%ADD15R,0.600000X0.400000*%
%ADD16R,0.760000X0.350000*%
%ADD17R,0.300000X1.475000*%
%ADD18R,1.475000X0.300000*%
G04 APERTURE END LIST*
D10*
%TO.C,U1*%
X121598000Y-85060000D03*
X121598000Y-83810000D03*
X121598000Y-82560000D03*
X121598000Y-81310000D03*
X119448000Y-83810000D03*
X119448000Y-82560000D03*
X119448000Y-81310000D03*
X119448000Y-85060000D03*
%TD*%
%TO.C,R24*%
G36*
G01*
X135934000Y-126767000D02*
X135934000Y-126217000D01*
G75*
G02*
X136134000Y-126017000I200000J0D01*
G01*
X136534000Y-126017000D01*
G75*
G02*
X136734000Y-126217000I0J-200000D01*
G01*
X136734000Y-126767000D01*
G75*
G02*
X136534000Y-126967000I-200000J0D01*
G01*
X136134000Y-126967000D01*
G75*
G02*
X135934000Y-126767000I0J200000D01*
G01*
G37*
G36*
G01*
X134284000Y-126767000D02*
X134284000Y-126217000D01*
G75*
G02*
X134484000Y-126017000I200000J0D01*
G01*
X134884000Y-126017000D01*
G75*
G02*
X135084000Y-126217000I0J-200000D01*
G01*
X135084000Y-126767000D01*
G75*
G02*
X134884000Y-126967000I-200000J0D01*
G01*
X134484000Y-126967000D01*
G75*
G02*
X134284000Y-126767000I0J200000D01*
G01*
G37*
%TD*%
%TO.C,R23*%
G36*
G01*
X135934000Y-122957000D02*
X135934000Y-122407000D01*
G75*
G02*
X136134000Y-122207000I200000J0D01*
G01*
X136534000Y-122207000D01*
G75*
G02*
X136734000Y-122407000I0J-200000D01*
G01*
X136734000Y-122957000D01*
G75*
G02*
X136534000Y-123157000I-200000J0D01*
G01*
X136134000Y-123157000D01*
G75*
G02*
X135934000Y-122957000I0J200000D01*
G01*
G37*
G36*
G01*
X134284000Y-122957000D02*
X134284000Y-122407000D01*
G75*
G02*
X134484000Y-122207000I200000J0D01*
G01*
X134884000Y-122207000D01*
G75*
G02*
X135084000Y-122407000I0J-200000D01*
G01*
X135084000Y-122957000D01*
G75*
G02*
X134884000Y-123157000I-200000J0D01*
G01*
X134484000Y-123157000D01*
G75*
G02*
X134284000Y-122957000I0J200000D01*
G01*
G37*
%TD*%
%TO.C,R22*%
G36*
G01*
X135934000Y-72284000D02*
X135934000Y-71734000D01*
G75*
G02*
X136134000Y-71534000I200000J0D01*
G01*
X136534000Y-71534000D01*
G75*
G02*
X136734000Y-71734000I0J-200000D01*
G01*
X136734000Y-72284000D01*
G75*
G02*
X136534000Y-72484000I-200000J0D01*
G01*
X136134000Y-72484000D01*
G75*
G02*
X135934000Y-72284000I0J200000D01*
G01*
G37*
G36*
G01*
X134284000Y-72284000D02*
X134284000Y-71734000D01*
G75*
G02*
X134484000Y-71534000I200000J0D01*
G01*
X134884000Y-71534000D01*
G75*
G02*
X135084000Y-71734000I0J-200000D01*
G01*
X135084000Y-72284000D01*
G75*
G02*
X134884000Y-72484000I-200000J0D01*
G01*
X134484000Y-72484000D01*
G75*
G02*
X134284000Y-72284000I0J200000D01*
G01*
G37*
%TD*%
%TO.C,R21*%
G36*
G01*
X135934000Y-68347000D02*
X135934000Y-67797000D01*
G75*
G02*
X136134000Y-67597000I200000J0D01*
G01*
X136534000Y-67597000D01*
G75*
G02*
X136734000Y-67797000I0J-200000D01*
G01*
X136734000Y-68347000D01*
G75*
G02*
X136534000Y-68547000I-200000J0D01*
G01*
X136134000Y-68547000D01*
G75*
G02*
X135934000Y-68347000I0J200000D01*
G01*
G37*
G36*
G01*
X134284000Y-68347000D02*
X134284000Y-67797000D01*
G75*
G02*
X134484000Y-67597000I200000J0D01*
G01*
X134884000Y-67597000D01*
G75*
G02*
X135084000Y-67797000I0J-200000D01*
G01*
X135084000Y-68347000D01*
G75*
G02*
X134884000Y-68547000I-200000J0D01*
G01*
X134484000Y-68547000D01*
G75*
G02*
X134284000Y-68347000I0J200000D01*
G01*
G37*
%TD*%
%TO.C,R20*%
G36*
G01*
X131553000Y-126767000D02*
X131553000Y-126217000D01*
G75*
G02*
X131753000Y-126017000I200000J0D01*
G01*
X132153000Y-126017000D01*
G75*
G02*
X132353000Y-126217000I0J-200000D01*
G01*
X132353000Y-126767000D01*
G75*
G02*
X132153000Y-126967000I-200000J0D01*
G01*
X131753000Y-126967000D01*
G75*
G02*
X131553000Y-126767000I0J200000D01*
G01*
G37*
G36*
G01*
X129903000Y-126767000D02*
X129903000Y-126217000D01*
G75*
G02*
X130103000Y-126017000I200000J0D01*
G01*
X130503000Y-126017000D01*
G75*
G02*
X130703000Y-126217000I0J-200000D01*
G01*
X130703000Y-126767000D01*
G75*
G02*
X130503000Y-126967000I-200000J0D01*
G01*
X130103000Y-126967000D01*
G75*
G02*
X129903000Y-126767000I0J200000D01*
G01*
G37*
%TD*%
%TO.C,R19*%
G36*
G01*
X131616000Y-122957000D02*
X131616000Y-122407000D01*
G75*
G02*
X131816000Y-122207000I200000J0D01*
G01*
X132216000Y-122207000D01*
G75*
G02*
X132416000Y-122407000I0J-200000D01*
G01*
X132416000Y-122957000D01*
G75*
G02*
X132216000Y-123157000I-200000J0D01*
G01*
X131816000Y-123157000D01*
G75*
G02*
X131616000Y-122957000I0J200000D01*
G01*
G37*
G36*
G01*
X129966000Y-122957000D02*
X129966000Y-122407000D01*
G75*
G02*
X130166000Y-122207000I200000J0D01*
G01*
X130566000Y-122207000D01*
G75*
G02*
X130766000Y-122407000I0J-200000D01*
G01*
X130766000Y-122957000D01*
G75*
G02*
X130566000Y-123157000I-200000J0D01*
G01*
X130166000Y-123157000D01*
G75*
G02*
X129966000Y-122957000I0J200000D01*
G01*
G37*
%TD*%
%TO.C,R18*%
G36*
G01*
X131489000Y-72284000D02*
X131489000Y-71734000D01*
G75*
G02*
X131689000Y-71534000I200000J0D01*
G01*
X132089000Y-71534000D01*
G75*
G02*
X132289000Y-71734000I0J-200000D01*
G01*
X132289000Y-72284000D01*
G75*
G02*
X132089000Y-72484000I-200000J0D01*
G01*
X131689000Y-72484000D01*
G75*
G02*
X131489000Y-72284000I0J200000D01*
G01*
G37*
G36*
G01*
X129839000Y-72284000D02*
X129839000Y-71734000D01*
G75*
G02*
X130039000Y-71534000I200000J0D01*
G01*
X130439000Y-71534000D01*
G75*
G02*
X130639000Y-71734000I0J-200000D01*
G01*
X130639000Y-72284000D01*
G75*
G02*
X130439000Y-72484000I-200000J0D01*
G01*
X130039000Y-72484000D01*
G75*
G02*
X129839000Y-72284000I0J200000D01*
G01*
G37*
%TD*%
%TO.C,R17*%
G36*
G01*
X131616000Y-68347000D02*
X131616000Y-67797000D01*
G75*
G02*
X131816000Y-67597000I200000J0D01*
G01*
X132216000Y-67597000D01*
G75*
G02*
X132416000Y-67797000I0J-200000D01*
G01*
X132416000Y-68347000D01*
G75*
G02*
X132216000Y-68547000I-200000J0D01*
G01*
X131816000Y-68547000D01*
G75*
G02*
X131616000Y-68347000I0J200000D01*
G01*
G37*
G36*
G01*
X129966000Y-68347000D02*
X129966000Y-67797000D01*
G75*
G02*
X130166000Y-67597000I200000J0D01*
G01*
X130566000Y-67597000D01*
G75*
G02*
X130766000Y-67797000I0J-200000D01*
G01*
X130766000Y-68347000D01*
G75*
G02*
X130566000Y-68547000I-200000J0D01*
G01*
X130166000Y-68547000D01*
G75*
G02*
X129966000Y-68347000I0J200000D01*
G01*
G37*
%TD*%
%TO.C,R16*%
G36*
G01*
X159468000Y-131170000D02*
X159468000Y-131720000D01*
G75*
G02*
X159268000Y-131920000I-200000J0D01*
G01*
X158868000Y-131920000D01*
G75*
G02*
X158668000Y-131720000I0J200000D01*
G01*
X158668000Y-131170000D01*
G75*
G02*
X158868000Y-130970000I200000J0D01*
G01*
X159268000Y-130970000D01*
G75*
G02*
X159468000Y-131170000I0J-200000D01*
G01*
G37*
G36*
G01*
X161118000Y-131170000D02*
X161118000Y-131720000D01*
G75*
G02*
X160918000Y-131920000I-200000J0D01*
G01*
X160518000Y-131920000D01*
G75*
G02*
X160318000Y-131720000I0J200000D01*
G01*
X160318000Y-131170000D01*
G75*
G02*
X160518000Y-130970000I200000J0D01*
G01*
X160918000Y-130970000D01*
G75*
G02*
X161118000Y-131170000I0J-200000D01*
G01*
G37*
%TD*%
%TO.C,R15*%
G36*
G01*
X159468000Y-117581000D02*
X159468000Y-118131000D01*
G75*
G02*
X159268000Y-118331000I-200000J0D01*
G01*
X158868000Y-118331000D01*
G75*
G02*
X158668000Y-118131000I0J200000D01*
G01*
X158668000Y-117581000D01*
G75*
G02*
X158868000Y-117381000I200000J0D01*
G01*
X159268000Y-117381000D01*
G75*
G02*
X159468000Y-117581000I0J-200000D01*
G01*
G37*
G36*
G01*
X161118000Y-117581000D02*
X161118000Y-118131000D01*
G75*
G02*
X160918000Y-118331000I-200000J0D01*
G01*
X160518000Y-118331000D01*
G75*
G02*
X160318000Y-118131000I0J200000D01*
G01*
X160318000Y-117581000D01*
G75*
G02*
X160518000Y-117381000I200000J0D01*
G01*
X160918000Y-117381000D01*
G75*
G02*
X161118000Y-117581000I0J-200000D01*
G01*
G37*
%TD*%
%TO.C,R14*%
G36*
G01*
X159468000Y-127614000D02*
X159468000Y-128164000D01*
G75*
G02*
X159268000Y-128364000I-200000J0D01*
G01*
X158868000Y-128364000D01*
G75*
G02*
X158668000Y-128164000I0J200000D01*
G01*
X158668000Y-127614000D01*
G75*
G02*
X158868000Y-127414000I200000J0D01*
G01*
X159268000Y-127414000D01*
G75*
G02*
X159468000Y-127614000I0J-200000D01*
G01*
G37*
G36*
G01*
X161118000Y-127614000D02*
X161118000Y-128164000D01*
G75*
G02*
X160918000Y-128364000I-200000J0D01*
G01*
X160518000Y-128364000D01*
G75*
G02*
X160318000Y-128164000I0J200000D01*
G01*
X160318000Y-127614000D01*
G75*
G02*
X160518000Y-127414000I200000J0D01*
G01*
X160918000Y-127414000D01*
G75*
G02*
X161118000Y-127614000I0J-200000D01*
G01*
G37*
%TD*%
%TO.C,R13*%
G36*
G01*
X160318000Y-121814000D02*
X160318000Y-121264000D01*
G75*
G02*
X160518000Y-121064000I200000J0D01*
G01*
X160918000Y-121064000D01*
G75*
G02*
X161118000Y-121264000I0J-200000D01*
G01*
X161118000Y-121814000D01*
G75*
G02*
X160918000Y-122014000I-200000J0D01*
G01*
X160518000Y-122014000D01*
G75*
G02*
X160318000Y-121814000I0J200000D01*
G01*
G37*
G36*
G01*
X158668000Y-121814000D02*
X158668000Y-121264000D01*
G75*
G02*
X158868000Y-121064000I200000J0D01*
G01*
X159268000Y-121064000D01*
G75*
G02*
X159468000Y-121264000I0J-200000D01*
G01*
X159468000Y-121814000D01*
G75*
G02*
X159268000Y-122014000I-200000J0D01*
G01*
X158868000Y-122014000D01*
G75*
G02*
X158668000Y-121814000I0J200000D01*
G01*
G37*
%TD*%
%TO.C,R12*%
G36*
G01*
X159341000Y-76560000D02*
X159341000Y-77110000D01*
G75*
G02*
X159141000Y-77310000I-200000J0D01*
G01*
X158741000Y-77310000D01*
G75*
G02*
X158541000Y-77110000I0J200000D01*
G01*
X158541000Y-76560000D01*
G75*
G02*
X158741000Y-76360000I200000J0D01*
G01*
X159141000Y-76360000D01*
G75*
G02*
X159341000Y-76560000I0J-200000D01*
G01*
G37*
G36*
G01*
X160991000Y-76560000D02*
X160991000Y-77110000D01*
G75*
G02*
X160791000Y-77310000I-200000J0D01*
G01*
X160391000Y-77310000D01*
G75*
G02*
X160191000Y-77110000I0J200000D01*
G01*
X160191000Y-76560000D01*
G75*
G02*
X160391000Y-76360000I200000J0D01*
G01*
X160791000Y-76360000D01*
G75*
G02*
X160991000Y-76560000I0J-200000D01*
G01*
G37*
%TD*%
%TO.C,R11*%
G36*
G01*
X159341000Y-62844000D02*
X159341000Y-63394000D01*
G75*
G02*
X159141000Y-63594000I-200000J0D01*
G01*
X158741000Y-63594000D01*
G75*
G02*
X158541000Y-63394000I0J200000D01*
G01*
X158541000Y-62844000D01*
G75*
G02*
X158741000Y-62644000I200000J0D01*
G01*
X159141000Y-62644000D01*
G75*
G02*
X159341000Y-62844000I0J-200000D01*
G01*
G37*
G36*
G01*
X160991000Y-62844000D02*
X160991000Y-63394000D01*
G75*
G02*
X160791000Y-63594000I-200000J0D01*
G01*
X160391000Y-63594000D01*
G75*
G02*
X160191000Y-63394000I0J200000D01*
G01*
X160191000Y-62844000D01*
G75*
G02*
X160391000Y-62644000I200000J0D01*
G01*
X160791000Y-62644000D01*
G75*
G02*
X160991000Y-62844000I0J-200000D01*
G01*
G37*
%TD*%
%TO.C,R10*%
G36*
G01*
X119678000Y-126767000D02*
X119678000Y-126217000D01*
G75*
G02*
X119878000Y-126017000I200000J0D01*
G01*
X120278000Y-126017000D01*
G75*
G02*
X120478000Y-126217000I0J-200000D01*
G01*
X120478000Y-126767000D01*
G75*
G02*
X120278000Y-126967000I-200000J0D01*
G01*
X119878000Y-126967000D01*
G75*
G02*
X119678000Y-126767000I0J200000D01*
G01*
G37*
G36*
G01*
X118028000Y-126767000D02*
X118028000Y-126217000D01*
G75*
G02*
X118228000Y-126017000I200000J0D01*
G01*
X118628000Y-126017000D01*
G75*
G02*
X118828000Y-126217000I0J-200000D01*
G01*
X118828000Y-126767000D01*
G75*
G02*
X118628000Y-126967000I-200000J0D01*
G01*
X118228000Y-126967000D01*
G75*
G02*
X118028000Y-126767000I0J200000D01*
G01*
G37*
%TD*%
%TO.C,R9*%
G36*
G01*
X119678000Y-122830000D02*
X119678000Y-122280000D01*
G75*
G02*
X119878000Y-122080000I200000J0D01*
G01*
X120278000Y-122080000D01*
G75*
G02*
X120478000Y-122280000I0J-200000D01*
G01*
X120478000Y-122830000D01*
G75*
G02*
X120278000Y-123030000I-200000J0D01*
G01*
X119878000Y-123030000D01*
G75*
G02*
X119678000Y-122830000I0J200000D01*
G01*
G37*
G36*
G01*
X118028000Y-122830000D02*
X118028000Y-122280000D01*
G75*
G02*
X118228000Y-122080000I200000J0D01*
G01*
X118628000Y-122080000D01*
G75*
G02*
X118828000Y-122280000I0J-200000D01*
G01*
X118828000Y-122830000D01*
G75*
G02*
X118628000Y-123030000I-200000J0D01*
G01*
X118228000Y-123030000D01*
G75*
G02*
X118028000Y-122830000I0J200000D01*
G01*
G37*
%TD*%
%TO.C,R8*%
G36*
G01*
X118851000Y-73196000D02*
X119401000Y-73196000D01*
G75*
G02*
X119601000Y-73396000I0J-200000D01*
G01*
X119601000Y-73796000D01*
G75*
G02*
X119401000Y-73996000I-200000J0D01*
G01*
X118851000Y-73996000D01*
G75*
G02*
X118651000Y-73796000I0J200000D01*
G01*
X118651000Y-73396000D01*
G75*
G02*
X118851000Y-73196000I200000J0D01*
G01*
G37*
G36*
G01*
X118851000Y-71546000D02*
X119401000Y-71546000D01*
G75*
G02*
X119601000Y-71746000I0J-200000D01*
G01*
X119601000Y-72146000D01*
G75*
G02*
X119401000Y-72346000I-200000J0D01*
G01*
X118851000Y-72346000D01*
G75*
G02*
X118651000Y-72146000I0J200000D01*
G01*
X118651000Y-71746000D01*
G75*
G02*
X118851000Y-71546000I200000J0D01*
G01*
G37*
%TD*%
%TO.C,R7*%
G36*
G01*
X119401000Y-66631000D02*
X118851000Y-66631000D01*
G75*
G02*
X118651000Y-66431000I0J200000D01*
G01*
X118651000Y-66031000D01*
G75*
G02*
X118851000Y-65831000I200000J0D01*
G01*
X119401000Y-65831000D01*
G75*
G02*
X119601000Y-66031000I0J-200000D01*
G01*
X119601000Y-66431000D01*
G75*
G02*
X119401000Y-66631000I-200000J0D01*
G01*
G37*
G36*
G01*
X119401000Y-68281000D02*
X118851000Y-68281000D01*
G75*
G02*
X118651000Y-68081000I0J200000D01*
G01*
X118651000Y-67681000D01*
G75*
G02*
X118851000Y-67481000I200000J0D01*
G01*
X119401000Y-67481000D01*
G75*
G02*
X119601000Y-67681000I0J-200000D01*
G01*
X119601000Y-68081000D01*
G75*
G02*
X119401000Y-68281000I-200000J0D01*
G01*
G37*
%TD*%
%TO.C,R6*%
G36*
G01*
X115360000Y-126767000D02*
X115360000Y-126217000D01*
G75*
G02*
X115560000Y-126017000I200000J0D01*
G01*
X115960000Y-126017000D01*
G75*
G02*
X116160000Y-126217000I0J-200000D01*
G01*
X116160000Y-126767000D01*
G75*
G02*
X115960000Y-126967000I-200000J0D01*
G01*
X115560000Y-126967000D01*
G75*
G02*
X115360000Y-126767000I0J200000D01*
G01*
G37*
G36*
G01*
X113710000Y-126767000D02*
X113710000Y-126217000D01*
G75*
G02*
X113910000Y-126017000I200000J0D01*
G01*
X114310000Y-126017000D01*
G75*
G02*
X114510000Y-126217000I0J-200000D01*
G01*
X114510000Y-126767000D01*
G75*
G02*
X114310000Y-126967000I-200000J0D01*
G01*
X113910000Y-126967000D01*
G75*
G02*
X113710000Y-126767000I0J200000D01*
G01*
G37*
%TD*%
%TO.C,R5*%
G36*
G01*
X115360000Y-122830000D02*
X115360000Y-122280000D01*
G75*
G02*
X115560000Y-122080000I200000J0D01*
G01*
X115960000Y-122080000D01*
G75*
G02*
X116160000Y-122280000I0J-200000D01*
G01*
X116160000Y-122830000D01*
G75*
G02*
X115960000Y-123030000I-200000J0D01*
G01*
X115560000Y-123030000D01*
G75*
G02*
X115360000Y-122830000I0J200000D01*
G01*
G37*
G36*
G01*
X113710000Y-122830000D02*
X113710000Y-122280000D01*
G75*
G02*
X113910000Y-122080000I200000J0D01*
G01*
X114310000Y-122080000D01*
G75*
G02*
X114510000Y-122280000I0J-200000D01*
G01*
X114510000Y-122830000D01*
G75*
G02*
X114310000Y-123030000I-200000J0D01*
G01*
X113910000Y-123030000D01*
G75*
G02*
X113710000Y-122830000I0J200000D01*
G01*
G37*
%TD*%
%TO.C,R4*%
G36*
G01*
X115170000Y-72157000D02*
X115170000Y-71607000D01*
G75*
G02*
X115370000Y-71407000I200000J0D01*
G01*
X115770000Y-71407000D01*
G75*
G02*
X115970000Y-71607000I0J-200000D01*
G01*
X115970000Y-72157000D01*
G75*
G02*
X115770000Y-72357000I-200000J0D01*
G01*
X115370000Y-72357000D01*
G75*
G02*
X115170000Y-72157000I0J200000D01*
G01*
G37*
G36*
G01*
X113520000Y-72157000D02*
X113520000Y-71607000D01*
G75*
G02*
X113720000Y-71407000I200000J0D01*
G01*
X114120000Y-71407000D01*
G75*
G02*
X114320000Y-71607000I0J-200000D01*
G01*
X114320000Y-72157000D01*
G75*
G02*
X114120000Y-72357000I-200000J0D01*
G01*
X113720000Y-72357000D01*
G75*
G02*
X113520000Y-72157000I0J200000D01*
G01*
G37*
%TD*%
%TO.C,R3*%
G36*
G01*
X113583000Y-68220000D02*
X113583000Y-67670000D01*
G75*
G02*
X113783000Y-67470000I200000J0D01*
G01*
X114183000Y-67470000D01*
G75*
G02*
X114383000Y-67670000I0J-200000D01*
G01*
X114383000Y-68220000D01*
G75*
G02*
X114183000Y-68420000I-200000J0D01*
G01*
X113783000Y-68420000D01*
G75*
G02*
X113583000Y-68220000I0J200000D01*
G01*
G37*
G36*
G01*
X115233000Y-68220000D02*
X115233000Y-67670000D01*
G75*
G02*
X115433000Y-67470000I200000J0D01*
G01*
X115833000Y-67470000D01*
G75*
G02*
X116033000Y-67670000I0J-200000D01*
G01*
X116033000Y-68220000D01*
G75*
G02*
X115833000Y-68420000I-200000J0D01*
G01*
X115433000Y-68420000D01*
G75*
G02*
X115233000Y-68220000I0J200000D01*
G01*
G37*
%TD*%
%TO.C,R2*%
G36*
G01*
X159341000Y-73004000D02*
X159341000Y-73554000D01*
G75*
G02*
X159141000Y-73754000I-200000J0D01*
G01*
X158741000Y-73754000D01*
G75*
G02*
X158541000Y-73554000I0J200000D01*
G01*
X158541000Y-73004000D01*
G75*
G02*
X158741000Y-72804000I200000J0D01*
G01*
X159141000Y-72804000D01*
G75*
G02*
X159341000Y-73004000I0J-200000D01*
G01*
G37*
G36*
G01*
X160991000Y-73004000D02*
X160991000Y-73554000D01*
G75*
G02*
X160791000Y-73754000I-200000J0D01*
G01*
X160391000Y-73754000D01*
G75*
G02*
X160191000Y-73554000I0J200000D01*
G01*
X160191000Y-73004000D01*
G75*
G02*
X160391000Y-72804000I200000J0D01*
G01*
X160791000Y-72804000D01*
G75*
G02*
X160991000Y-73004000I0J-200000D01*
G01*
G37*
%TD*%
%TO.C,R1*%
G36*
G01*
X160191000Y-66950000D02*
X160191000Y-66400000D01*
G75*
G02*
X160391000Y-66200000I200000J0D01*
G01*
X160791000Y-66200000D01*
G75*
G02*
X160991000Y-66400000I0J-200000D01*
G01*
X160991000Y-66950000D01*
G75*
G02*
X160791000Y-67150000I-200000J0D01*
G01*
X160391000Y-67150000D01*
G75*
G02*
X160191000Y-66950000I0J200000D01*
G01*
G37*
G36*
G01*
X158541000Y-66950000D02*
X158541000Y-66400000D01*
G75*
G02*
X158741000Y-66200000I200000J0D01*
G01*
X159141000Y-66200000D01*
G75*
G02*
X159341000Y-66400000I0J-200000D01*
G01*
X159341000Y-66950000D01*
G75*
G02*
X159141000Y-67150000I-200000J0D01*
G01*
X158741000Y-67150000D01*
G75*
G02*
X158541000Y-66950000I0J200000D01*
G01*
G37*
%TD*%
D11*
%TO.C,Q2*%
X126472000Y-124745000D03*
X126472000Y-124429000D03*
D12*
X125897000Y-125282000D03*
D13*
X125027000Y-125532000D03*
D14*
X124767000Y-125342000D03*
X124767000Y-123832000D03*
D13*
X125027000Y-123642000D03*
D12*
X125897000Y-123892000D03*
D15*
X126852000Y-123612000D03*
X126852000Y-124262000D03*
X126852000Y-124912000D03*
X126852000Y-125562000D03*
D16*
X123672000Y-125562000D03*
X123672000Y-124912000D03*
X123672000Y-124262000D03*
X123672000Y-123612000D03*
%TD*%
D11*
%TO.C,Q1*%
X126345000Y-70135000D03*
X126345000Y-69819000D03*
D12*
X125770000Y-70672000D03*
D13*
X124900000Y-70922000D03*
D14*
X124640000Y-70732000D03*
X124640000Y-69222000D03*
D13*
X124900000Y-69032000D03*
D12*
X125770000Y-69282000D03*
D15*
X126725000Y-69002000D03*
X126725000Y-69652000D03*
X126725000Y-70302000D03*
X126725000Y-70952000D03*
D16*
X123545000Y-70952000D03*
X123545000Y-70302000D03*
X123545000Y-69652000D03*
X123545000Y-69002000D03*
%TD*%
D17*
%TO.C,IC2*%
X146400000Y-88147000D03*
X146900000Y-88147000D03*
X147400000Y-88147000D03*
X147900000Y-88147000D03*
X148400000Y-88147000D03*
X148900000Y-88147000D03*
X149400000Y-88147000D03*
X149900000Y-88147000D03*
X150400000Y-88147000D03*
X150900000Y-88147000D03*
X151400000Y-88147000D03*
X151900000Y-88147000D03*
X152400000Y-88147000D03*
X152900000Y-88147000D03*
X153400000Y-88147000D03*
X153900000Y-88147000D03*
X154400000Y-88147000D03*
X154900000Y-88147000D03*
X155400000Y-88147000D03*
X155900000Y-88147000D03*
X156400000Y-88147000D03*
X156900000Y-88147000D03*
X157400000Y-88147000D03*
X157900000Y-88147000D03*
X158400000Y-88147000D03*
D18*
X160138000Y-89885000D03*
X160138000Y-90385000D03*
X160138000Y-90885000D03*
X160138000Y-91385000D03*
X160138000Y-91885000D03*
X160138000Y-92385000D03*
X160138000Y-92885000D03*
X160138000Y-93385000D03*
X160138000Y-93885000D03*
X160138000Y-94385000D03*
X160138000Y-94885000D03*
X160138000Y-95385000D03*
X160138000Y-95885000D03*
X160138000Y-96385000D03*
X160138000Y-96885000D03*
X160138000Y-97385000D03*
X160138000Y-97885000D03*
X160138000Y-98385000D03*
X160138000Y-98885000D03*
X160138000Y-99385000D03*
X160138000Y-99885000D03*
X160138000Y-100385000D03*
X160138000Y-100885000D03*
X160138000Y-101385000D03*
X160138000Y-101885000D03*
D17*
X158400000Y-103623000D03*
X157900000Y-103623000D03*
X157400000Y-103623000D03*
X156900000Y-103623000D03*
X156400000Y-103623000D03*
X155900000Y-103623000D03*
X155400000Y-103623000D03*
X154900000Y-103623000D03*
X154400000Y-103623000D03*
X153900000Y-103623000D03*
X153400000Y-103623000D03*
X152900000Y-103623000D03*
X152400000Y-103623000D03*
X151900000Y-103623000D03*
X151400000Y-103623000D03*
X150900000Y-103623000D03*
X150400000Y-103623000D03*
X149900000Y-103623000D03*
X149400000Y-103623000D03*
X148900000Y-103623000D03*
X148400000Y-103623000D03*
X147900000Y-103623000D03*
X147400000Y-103623000D03*
X146900000Y-103623000D03*
X146400000Y-103623000D03*
D18*
X144662000Y-101885000D03*
X144662000Y-101385000D03*
X144662000Y-100885000D03*
X144662000Y-100385000D03*
X144662000Y-99885000D03*
X144662000Y-99385000D03*
X144662000Y-98885000D03*
X144662000Y-98385000D03*
X144662000Y-97885000D03*
X144662000Y-97385000D03*
X144662000Y-96885000D03*
X144662000Y-96385000D03*
X144662000Y-95885000D03*
X144662000Y-95385000D03*
X144662000Y-94885000D03*
X144662000Y-94385000D03*
X144662000Y-93885000D03*
X144662000Y-93385000D03*
X144662000Y-92885000D03*
X144662000Y-92385000D03*
X144662000Y-91885000D03*
X144662000Y-91385000D03*
X144662000Y-90885000D03*
X144662000Y-90385000D03*
X144662000Y-89885000D03*
%TD*%
%TO.C,C11*%
G36*
G01*
X160651000Y-111435000D02*
X160151000Y-111435000D01*
G75*
G02*
X159926000Y-111210000I0J225000D01*
G01*
X159926000Y-110760000D01*
G75*
G02*
X160151000Y-110535000I225000J0D01*
G01*
X160651000Y-110535000D01*
G75*
G02*
X160876000Y-110760000I0J-225000D01*
G01*
X160876000Y-111210000D01*
G75*
G02*
X160651000Y-111435000I-225000J0D01*
G01*
G37*
G36*
G01*
X160651000Y-112985000D02*
X160151000Y-112985000D01*
G75*
G02*
X159926000Y-112760000I0J225000D01*
G01*
X159926000Y-112310000D01*
G75*
G02*
X160151000Y-112085000I225000J0D01*
G01*
X160651000Y-112085000D01*
G75*
G02*
X160876000Y-112310000I0J-225000D01*
G01*
X160876000Y-112760000D01*
G75*
G02*
X160651000Y-112985000I-225000J0D01*
G01*
G37*
%TD*%
%TO.C,C10*%
G36*
G01*
X154936000Y-111435000D02*
X154436000Y-111435000D01*
G75*
G02*
X154211000Y-111210000I0J225000D01*
G01*
X154211000Y-110760000D01*
G75*
G02*
X154436000Y-110535000I225000J0D01*
G01*
X154936000Y-110535000D01*
G75*
G02*
X155161000Y-110760000I0J-225000D01*
G01*
X155161000Y-111210000D01*
G75*
G02*
X154936000Y-111435000I-225000J0D01*
G01*
G37*
G36*
G01*
X154936000Y-112985000D02*
X154436000Y-112985000D01*
G75*
G02*
X154211000Y-112760000I0J225000D01*
G01*
X154211000Y-112310000D01*
G75*
G02*
X154436000Y-112085000I225000J0D01*
G01*
X154936000Y-112085000D01*
G75*
G02*
X155161000Y-112310000I0J-225000D01*
G01*
X155161000Y-112760000D01*
G75*
G02*
X154936000Y-112985000I-225000J0D01*
G01*
G37*
%TD*%
%TO.C,C9*%
G36*
G01*
X171446000Y-90493000D02*
X170946000Y-90493000D01*
G75*
G02*
X170721000Y-90268000I0J225000D01*
G01*
X170721000Y-89818000D01*
G75*
G02*
X170946000Y-89593000I225000J0D01*
G01*
X171446000Y-89593000D01*
G75*
G02*
X171671000Y-89818000I0J-225000D01*
G01*
X171671000Y-90268000D01*
G75*
G02*
X171446000Y-90493000I-225000J0D01*
G01*
G37*
G36*
G01*
X171446000Y-92043000D02*
X170946000Y-92043000D01*
G75*
G02*
X170721000Y-91818000I0J225000D01*
G01*
X170721000Y-91368000D01*
G75*
G02*
X170946000Y-91143000I225000J0D01*
G01*
X171446000Y-91143000D01*
G75*
G02*
X171671000Y-91368000I0J-225000D01*
G01*
X171671000Y-91818000D01*
G75*
G02*
X171446000Y-92043000I-225000J0D01*
G01*
G37*
%TD*%
%TO.C,C8*%
G36*
G01*
X167763000Y-90480000D02*
X167263000Y-90480000D01*
G75*
G02*
X167038000Y-90255000I0J225000D01*
G01*
X167038000Y-89805000D01*
G75*
G02*
X167263000Y-89580000I225000J0D01*
G01*
X167763000Y-89580000D01*
G75*
G02*
X167988000Y-89805000I0J-225000D01*
G01*
X167988000Y-90255000D01*
G75*
G02*
X167763000Y-90480000I-225000J0D01*
G01*
G37*
G36*
G01*
X167763000Y-92030000D02*
X167263000Y-92030000D01*
G75*
G02*
X167038000Y-91805000I0J225000D01*
G01*
X167038000Y-91355000D01*
G75*
G02*
X167263000Y-91130000I225000J0D01*
G01*
X167763000Y-91130000D01*
G75*
G02*
X167988000Y-91355000I0J-225000D01*
G01*
X167988000Y-91805000D01*
G75*
G02*
X167763000Y-92030000I-225000J0D01*
G01*
G37*
%TD*%
%TO.C,C7*%
G36*
G01*
X164207000Y-90493000D02*
X163707000Y-90493000D01*
G75*
G02*
X163482000Y-90268000I0J225000D01*
G01*
X163482000Y-89818000D01*
G75*
G02*
X163707000Y-89593000I225000J0D01*
G01*
X164207000Y-89593000D01*
G75*
G02*
X164432000Y-89818000I0J-225000D01*
G01*
X164432000Y-90268000D01*
G75*
G02*
X164207000Y-90493000I-225000J0D01*
G01*
G37*
G36*
G01*
X164207000Y-92043000D02*
X163707000Y-92043000D01*
G75*
G02*
X163482000Y-91818000I0J225000D01*
G01*
X163482000Y-91368000D01*
G75*
G02*
X163707000Y-91143000I225000J0D01*
G01*
X164207000Y-91143000D01*
G75*
G02*
X164432000Y-91368000I0J-225000D01*
G01*
X164432000Y-91818000D01*
G75*
G02*
X164207000Y-92043000I-225000J0D01*
G01*
G37*
%TD*%
%TO.C,C6*%
G36*
G01*
X115820000Y-82860000D02*
X115320000Y-82860000D01*
G75*
G02*
X115095000Y-82635000I0J225000D01*
G01*
X115095000Y-82185000D01*
G75*
G02*
X115320000Y-81960000I225000J0D01*
G01*
X115820000Y-81960000D01*
G75*
G02*
X116045000Y-82185000I0J-225000D01*
G01*
X116045000Y-82635000D01*
G75*
G02*
X115820000Y-82860000I-225000J0D01*
G01*
G37*
G36*
G01*
X115820000Y-84410000D02*
X115320000Y-84410000D01*
G75*
G02*
X115095000Y-84185000I0J225000D01*
G01*
X115095000Y-83735000D01*
G75*
G02*
X115320000Y-83510000I225000J0D01*
G01*
X115820000Y-83510000D01*
G75*
G02*
X116045000Y-83735000I0J-225000D01*
G01*
X116045000Y-84185000D01*
G75*
G02*
X115820000Y-84410000I-225000J0D01*
G01*
G37*
%TD*%
%TO.C,C5*%
G36*
G01*
X141728000Y-93147000D02*
X141228000Y-93147000D01*
G75*
G02*
X141003000Y-92922000I0J225000D01*
G01*
X141003000Y-92472000D01*
G75*
G02*
X141228000Y-92247000I225000J0D01*
G01*
X141728000Y-92247000D01*
G75*
G02*
X141953000Y-92472000I0J-225000D01*
G01*
X141953000Y-92922000D01*
G75*
G02*
X141728000Y-93147000I-225000J0D01*
G01*
G37*
G36*
G01*
X141728000Y-94697000D02*
X141228000Y-94697000D01*
G75*
G02*
X141003000Y-94472000I0J225000D01*
G01*
X141003000Y-94022000D01*
G75*
G02*
X141228000Y-93797000I225000J0D01*
G01*
X141728000Y-93797000D01*
G75*
G02*
X141953000Y-94022000I0J-225000D01*
G01*
X141953000Y-94472000D01*
G75*
G02*
X141728000Y-94697000I-225000J0D01*
G01*
G37*
%TD*%
M02*
