%TF.GenerationSoftware,KiCad,Pcbnew,(5.1.10)-1*%
%TF.CreationDate,2021-11-30T13:01:00-06:00*%
%TF.ProjectId,Charges_KiCAD_Project,43686172-6765-4735-9f4b-694341445f50,rev?*%
%TF.SameCoordinates,Original*%
%TF.FileFunction,Profile,NP*%
%FSLAX46Y46*%
G04 Gerber Fmt 4.6, Leading zero omitted, Abs format (unit mm)*
G04 Created by KiCad (PCBNEW (5.1.10)-1) date 2021-11-30 13:01:00*
%MOMM*%
%LPD*%
G01*
G04 APERTURE LIST*
%TA.AperFunction,Profile*%
%ADD10C,0.050000*%
%TD*%
G04 APERTURE END LIST*
D10*
X139065000Y-95885000D02*
G75*
G03*
X139065000Y-95885000I-6350000J0D01*
G01*
X134381666Y-95885000D02*
G75*
G03*
X134381666Y-95885000I-1666666J0D01*
G01*
X130215000Y-95885000D02*
X135215000Y-95885000D01*
X132715000Y-93385000D02*
X132715000Y-98385000D01*
X177815666Y-139700000D02*
G75*
G03*
X177815666Y-139700000I-1666666J0D01*
G01*
X173649000Y-139700000D02*
X178649000Y-139700000D01*
X176149000Y-137200000D02*
X176149000Y-142200000D01*
X177815666Y-52451000D02*
G75*
G03*
X177815666Y-52451000I-1666666J0D01*
G01*
X173649000Y-52451000D02*
X178649000Y-52451000D01*
X176149000Y-49951000D02*
X176149000Y-54951000D01*
X176149000Y-52451000D02*
X176022000Y-52451000D01*
X176149000Y-139700000D02*
X176149000Y-52451000D01*
X175895000Y-139700000D02*
X176149000Y-139700000D01*
X96901000Y-52705000D02*
X96901000Y-52451000D01*
X176022000Y-52451000D02*
X96901000Y-52451000D01*
X96901000Y-139700000D02*
X96901000Y-52705000D01*
X96901000Y-139700000D02*
X175895000Y-139700000D01*
X98567666Y-52451000D02*
G75*
G03*
X98567666Y-52451000I-1666666J0D01*
G01*
X94401000Y-52451000D02*
X99401000Y-52451000D01*
X96901000Y-49951000D02*
X96901000Y-54951000D01*
X98567666Y-139700000D02*
G75*
G03*
X98567666Y-139700000I-1666666J0D01*
G01*
X94401000Y-139700000D02*
X99401000Y-139700000D01*
X96901000Y-137200000D02*
X96901000Y-142200000D01*
X90566666Y-139700000D02*
G75*
G03*
X90566666Y-139700000I-1666666J0D01*
G01*
X86400000Y-139700000D02*
X91400000Y-139700000D01*
X88900000Y-137200000D02*
X88900000Y-142200000D01*
M02*
