%TF.GenerationSoftware,KiCad,Pcbnew,(5.1.10)-1*%
%TF.CreationDate,2021-11-30T13:01:00-06:00*%
%TF.ProjectId,Charges_KiCAD_Project,43686172-6765-4735-9f4b-694341445f50,rev?*%
%TF.SameCoordinates,Original*%
%TF.FileFunction,Copper,L4,Bot*%
%TF.FilePolarity,Positive*%
%FSLAX46Y46*%
G04 Gerber Fmt 4.6, Leading zero omitted, Abs format (unit mm)*
G04 Created by KiCad (PCBNEW (5.1.10)-1) date 2021-11-30 13:01:00*
%MOMM*%
%LPD*%
G01*
G04 APERTURE LIST*
%TA.AperFunction,ComponentPad*%
%ADD10C,4.800000*%
%TD*%
%TA.AperFunction,ComponentPad*%
%ADD11C,1.650000*%
%TD*%
%TA.AperFunction,ComponentPad*%
%ADD12R,1.650000X1.650000*%
%TD*%
%TA.AperFunction,ComponentPad*%
%ADD13C,1.950000*%
%TD*%
%TA.AperFunction,ComponentPad*%
%ADD14C,1.500000*%
%TD*%
%TA.AperFunction,ComponentPad*%
%ADD15O,2.000000X2.000000*%
%TD*%
%TA.AperFunction,ComponentPad*%
%ADD16R,2.000000X2.000000*%
%TD*%
%TA.AperFunction,ViaPad*%
%ADD17C,0.800000*%
%TD*%
%TA.AperFunction,Conductor*%
%ADD18C,0.250000*%
%TD*%
G04 APERTURE END LIST*
D10*
%TO.P,J3,MH2*%
%TO.N,GND*%
X108585000Y-127800000D03*
%TO.P,J3,MH1*%
X108585000Y-64300000D03*
D11*
%TO.P,J3,37*%
%TO.N,+5V*%
X107315000Y-119595000D03*
%TO.P,J3,36*%
%TO.N,Net-(J3-Pad36)*%
X107315000Y-116825000D03*
%TO.P,J3,35*%
%TO.N,Net-(J3-Pad35)*%
X107315000Y-114055000D03*
%TO.P,J3,34*%
%TO.N,Net-(J3-Pad34)*%
X107315000Y-111285000D03*
%TO.P,J3,33*%
%TO.N,Net-(J3-Pad33)*%
X107315000Y-108515000D03*
%TO.P,J3,32*%
%TO.N,Net-(J3-Pad32)*%
X107315000Y-105745000D03*
%TO.P,J3,31*%
%TO.N,Net-(J3-Pad31)*%
X107315000Y-102975000D03*
%TO.P,J3,30*%
%TO.N,Net-(J3-Pad30)*%
X107315000Y-100205000D03*
%TO.P,J3,29*%
%TO.N,Net-(J3-Pad29)*%
X107315000Y-97435000D03*
%TO.P,J3,28*%
%TO.N,Net-(J3-Pad28)*%
X107315000Y-94665000D03*
%TO.P,J3,27*%
%TO.N,Net-(J3-Pad27)*%
X107315000Y-91895000D03*
%TO.P,J3,26*%
%TO.N,/Fire_Redundant*%
X107315000Y-89125000D03*
%TO.P,J3,25*%
%TO.N,/NRST*%
X107315000Y-86355000D03*
%TO.P,J3,24*%
%TO.N,/Alert_sda*%
X107315000Y-83585000D03*
%TO.P,J3,23*%
%TO.N,/SWCLK*%
X107315000Y-80815000D03*
%TO.P,J3,22*%
%TO.N,/Sheet61A437B4/t_clk*%
X107315000Y-78045000D03*
%TO.P,J3,21*%
%TO.N,/Sheet61A437B4/t_mosi*%
X107315000Y-75275000D03*
%TO.P,J3,20*%
%TO.N,+5V*%
X107315000Y-72505000D03*
%TO.P,J3,19*%
%TO.N,GND*%
X109855000Y-120980000D03*
%TO.P,J3,18*%
%TO.N,+3V3*%
X109855000Y-118210000D03*
%TO.P,J3,17*%
%TO.N,Net-(J3-Pad17)*%
X109855000Y-115440000D03*
%TO.P,J3,16*%
%TO.N,Net-(J3-Pad16)*%
X109855000Y-112670000D03*
%TO.P,J3,15*%
%TO.N,Net-(J3-Pad15)*%
X109855000Y-109900000D03*
%TO.P,J3,14*%
%TO.N,Net-(J3-Pad14)*%
X109855000Y-107130000D03*
%TO.P,J3,13*%
%TO.N,Net-(J3-Pad13)*%
X109855000Y-104360000D03*
%TO.P,J3,12*%
%TO.N,Net-(J3-Pad12)*%
X109855000Y-101590000D03*
%TO.P,J3,11*%
%TO.N,Net-(J3-Pad11)*%
X109855000Y-98820000D03*
%TO.P,J3,10*%
%TO.N,Net-(J3-Pad10)*%
X109855000Y-96050000D03*
%TO.P,J3,9*%
%TO.N,Net-(J3-Pad9)*%
X109855000Y-93280000D03*
%TO.P,J3,8*%
%TO.N,Net-(J3-Pad8)*%
X109855000Y-90510000D03*
%TO.P,J3,7*%
%TO.N,/Fire*%
X109855000Y-87740000D03*
%TO.P,J3,6*%
%TO.N,/Alert_Active*%
X109855000Y-84970000D03*
%TO.P,J3,5*%
%TO.N,/Alert_scl*%
X109855000Y-82200000D03*
%TO.P,J3,4*%
%TO.N,/SWDIO*%
X109855000Y-79430000D03*
%TO.P,J3,3*%
%TO.N,/Sheet61A437B4/t_miso*%
X109855000Y-76660000D03*
%TO.P,J3,2*%
%TO.N,+3V3*%
X109855000Y-73890000D03*
D12*
%TO.P,J3,1*%
%TO.N,GND*%
X109855000Y-71120000D03*
%TD*%
D13*
%TO.P,J2,4*%
%TO.N,Net-(J2-Pad4)*%
X169037000Y-132094000D03*
%TO.P,J2,3*%
%TO.N,/Fet_D*%
X169037000Y-127094000D03*
%TO.P,J2,2*%
%TO.N,Net-(J2-Pad2)*%
X169037000Y-122094000D03*
%TO.P,J2,1*%
%TO.N,/Fet_C*%
X169037000Y-117094000D03*
%TD*%
%TO.P,J1,4*%
%TO.N,Net-(J1-Pad4)*%
X168910000Y-75071000D03*
%TO.P,J1,3*%
%TO.N,/Fet_B*%
X168910000Y-70071000D03*
%TO.P,J1,2*%
%TO.N,Net-(J1-Pad2)*%
X168910000Y-65071000D03*
%TO.P,J1,1*%
%TO.N,/Fet_A*%
X168910000Y-60071000D03*
%TD*%
D14*
%TO.P,IC1,2*%
%TO.N,GND*%
X119841000Y-109728000D03*
%TO.P,IC1,1*%
%TO.N,/Buzzer_Excitation*%
X124841000Y-109728000D03*
%TD*%
D15*
%TO.P,C4,2*%
%TO.N,GND*%
X140067000Y-129667000D03*
D16*
%TO.P,C4,1*%
%TO.N,Net-(C4-Pad1)*%
X155067000Y-129667000D03*
%TD*%
D15*
%TO.P,C3,2*%
%TO.N,GND*%
X140067000Y-119634000D03*
D16*
%TO.P,C3,1*%
%TO.N,Net-(C3-Pad1)*%
X155067000Y-119634000D03*
%TD*%
D15*
%TO.P,C2,2*%
%TO.N,GND*%
X139940000Y-75057000D03*
D16*
%TO.P,C2,1*%
%TO.N,Net-(C2-Pad1)*%
X154940000Y-75057000D03*
%TD*%
D15*
%TO.P,C1,2*%
%TO.N,GND*%
X139940000Y-64897000D03*
D16*
%TO.P,C1,1*%
%TO.N,Net-(C1-Pad1)*%
X154940000Y-64897000D03*
%TD*%
D17*
%TO.N,GND*%
X171196000Y-94107000D03*
X141478000Y-82677000D03*
X115570000Y-86487000D03*
X157607000Y-114427000D03*
%TO.N,+3V3*%
X171196000Y-87122000D03*
X115570000Y-80010000D03*
%TO.N,/Fire_D*%
X114173000Y-129413000D03*
X165481000Y-101473000D03*
%TO.N,/Fire_C*%
X114046000Y-120015000D03*
X165481000Y-100076000D03*
%TO.N,/Fire_B*%
X165481000Y-96266000D03*
X113792000Y-74041000D03*
%TO.N,/Fire_A*%
X113919000Y-66167000D03*
X165481000Y-94996000D03*
%TO.N,/Sense_D*%
X165481000Y-98806000D03*
X134620000Y-129032000D03*
%TO.N,/Sense_C*%
X134747000Y-120523000D03*
X165481000Y-102997000D03*
%TO.N,/Sense_B*%
X134747000Y-74549000D03*
X165481000Y-93726000D03*
%TO.N,/Sense_A*%
X134747000Y-65913000D03*
X165481000Y-97536000D03*
%TO.N,/Alert_Active*%
X153797000Y-84709000D03*
%TO.N,/SWCLK*%
X158369000Y-84709000D03*
%TO.N,/SWDIO*%
X159766000Y-84709000D03*
%TO.N,/Alert_sda*%
X155448000Y-84709000D03*
%TO.N,/Alert_scl*%
X156718000Y-84709000D03*
%TD*%
D18*
%TO.N,/Fire_D*%
X166206001Y-103345001D02*
X166206001Y-102198001D01*
X141244003Y-128306999D02*
X166206001Y-103345001D01*
X166206001Y-102198001D02*
X165481000Y-101473000D01*
X115279001Y-128306999D02*
X141244003Y-128306999D01*
X114173000Y-129413000D02*
X115279001Y-128306999D01*
%TO.N,/Fire_C*%
X147248001Y-118308999D02*
X165481000Y-100076000D01*
X115752001Y-118308999D02*
X147248001Y-118308999D01*
X114046000Y-120015000D02*
X115752001Y-118308999D01*
%TO.N,/Fire_B*%
X152711002Y-76581000D02*
X164686001Y-88555999D01*
X135705998Y-76581000D02*
X152711002Y-76581000D01*
X133165998Y-74041000D02*
X135705998Y-76581000D01*
X113792000Y-74041000D02*
X133165998Y-74041000D01*
X164686001Y-95471001D02*
X165481000Y-96266000D01*
X164686001Y-88555999D02*
X164686001Y-95471001D01*
%TO.N,/Fire_A*%
X167189685Y-94996000D02*
X165481000Y-94996000D01*
X168783000Y-93402685D02*
X167189685Y-94996000D01*
X168783000Y-86314998D02*
X168783000Y-93402685D01*
X152191002Y-69723000D02*
X168783000Y-86314998D01*
X117475000Y-69723000D02*
X152191002Y-69723000D01*
X113919000Y-66167000D02*
X117475000Y-69723000D01*
%TO.N,/Sense_D*%
X172974000Y-98806000D02*
X165481000Y-98806000D01*
X134620000Y-134620000D02*
X134874000Y-134874000D01*
X134620000Y-129032000D02*
X134620000Y-134620000D01*
X172974000Y-130081002D02*
X172974000Y-98806000D01*
X168181002Y-134874000D02*
X172974000Y-130081002D01*
X134874000Y-134874000D02*
X168181002Y-134874000D01*
%TO.N,/Sense_C*%
X134747000Y-120523000D02*
X135183001Y-120959001D01*
X135183001Y-120959001D02*
X145740999Y-120959001D01*
X163703000Y-102997000D02*
X165481000Y-102997000D01*
X145740999Y-120959001D02*
X163703000Y-102997000D01*
%TO.N,/Sense_B*%
X165481000Y-88011000D02*
X165481000Y-93726000D01*
X165308998Y-88011000D02*
X165481000Y-88011000D01*
X151029997Y-73731999D02*
X165308998Y-88011000D01*
X135564001Y-73731999D02*
X151029997Y-73731999D01*
X134747000Y-74549000D02*
X135564001Y-73731999D01*
%TO.N,/Sense_A*%
X168668007Y-94348993D02*
X165481000Y-97536000D01*
X169233009Y-94348993D02*
X168668007Y-94348993D01*
X169233009Y-86128597D02*
X169233009Y-94348993D01*
X149417411Y-66312999D02*
X169233009Y-86128597D01*
X135146999Y-66312999D02*
X149417411Y-66312999D01*
X134747000Y-65913000D02*
X135146999Y-66312999D01*
%TO.N,/Alert_Active*%
X109855000Y-84970000D02*
X110319001Y-85434001D01*
X153536000Y-84970000D02*
X153797000Y-84709000D01*
X109855000Y-84970000D02*
X153536000Y-84970000D01*
%TO.N,/SWCLK*%
X107315000Y-80815000D02*
X155040685Y-80815000D01*
X158369000Y-84143315D02*
X158369000Y-84709000D01*
X155040685Y-80815000D02*
X158369000Y-84143315D01*
%TO.N,/SWDIO*%
X110679999Y-78605001D02*
X153662001Y-78605001D01*
X153662001Y-78605001D02*
X159766000Y-84709000D01*
X109855000Y-79430000D02*
X110679999Y-78605001D01*
%TO.N,/Alert_sda*%
X154324000Y-83585000D02*
X155448000Y-84709000D01*
X107315000Y-83585000D02*
X154324000Y-83585000D01*
%TO.N,/Alert_scl*%
X110679999Y-81375001D02*
X154459096Y-81375001D01*
X109855000Y-82200000D02*
X110679999Y-81375001D01*
X154459096Y-82450096D02*
X156718000Y-84709000D01*
X154459096Y-81375001D02*
X154459096Y-82450096D01*
%TD*%
M02*
