%TF.GenerationSoftware,KiCad,Pcbnew,(5.1.10)-1*%
%TF.CreationDate,2021-11-30T13:01:00-06:00*%
%TF.ProjectId,Charges_KiCAD_Project,43686172-6765-4735-9f4b-694341445f50,rev?*%
%TF.SameCoordinates,Original*%
%TF.FileFunction,Copper,L3,Inr*%
%TF.FilePolarity,Positive*%
%FSLAX46Y46*%
G04 Gerber Fmt 4.6, Leading zero omitted, Abs format (unit mm)*
G04 Created by KiCad (PCBNEW (5.1.10)-1) date 2021-11-30 13:01:00*
%MOMM*%
%LPD*%
G01*
G04 APERTURE LIST*
%TA.AperFunction,ComponentPad*%
%ADD10C,4.800000*%
%TD*%
%TA.AperFunction,ComponentPad*%
%ADD11C,1.650000*%
%TD*%
%TA.AperFunction,ComponentPad*%
%ADD12R,1.650000X1.650000*%
%TD*%
%TA.AperFunction,ComponentPad*%
%ADD13C,1.950000*%
%TD*%
%TA.AperFunction,ComponentPad*%
%ADD14C,1.500000*%
%TD*%
%TA.AperFunction,ComponentPad*%
%ADD15O,2.000000X2.000000*%
%TD*%
%TA.AperFunction,ComponentPad*%
%ADD16R,2.000000X2.000000*%
%TD*%
%TA.AperFunction,ViaPad*%
%ADD17C,0.800000*%
%TD*%
%TA.AperFunction,Conductor*%
%ADD18C,0.254000*%
%TD*%
%TA.AperFunction,Conductor*%
%ADD19C,0.100000*%
%TD*%
G04 APERTURE END LIST*
D10*
%TO.N,GND*%
%TO.C,J3*%
X108585000Y-127800000D03*
X108585000Y-64300000D03*
D11*
%TO.N,+5V*%
X107315000Y-119595000D03*
%TO.N,Net-(J3-Pad36)*%
X107315000Y-116825000D03*
%TO.N,Net-(J3-Pad35)*%
X107315000Y-114055000D03*
%TO.N,Net-(J3-Pad34)*%
X107315000Y-111285000D03*
%TO.N,Net-(J3-Pad33)*%
X107315000Y-108515000D03*
%TO.N,Net-(J3-Pad32)*%
X107315000Y-105745000D03*
%TO.N,Net-(J3-Pad31)*%
X107315000Y-102975000D03*
%TO.N,Net-(J3-Pad30)*%
X107315000Y-100205000D03*
%TO.N,Net-(J3-Pad29)*%
X107315000Y-97435000D03*
%TO.N,Net-(J3-Pad28)*%
X107315000Y-94665000D03*
%TO.N,Net-(J3-Pad27)*%
X107315000Y-91895000D03*
%TO.N,/Fire_Redundant*%
X107315000Y-89125000D03*
%TO.N,/NRST*%
X107315000Y-86355000D03*
%TO.N,/Alert_sda*%
X107315000Y-83585000D03*
%TO.N,/SWCLK*%
X107315000Y-80815000D03*
%TO.N,/Sheet61A437B4/t_clk*%
X107315000Y-78045000D03*
%TO.N,/Sheet61A437B4/t_mosi*%
X107315000Y-75275000D03*
%TO.N,+5V*%
X107315000Y-72505000D03*
%TO.N,GND*%
X109855000Y-120980000D03*
%TO.N,+3V3*%
X109855000Y-118210000D03*
%TO.N,Net-(J3-Pad17)*%
X109855000Y-115440000D03*
%TO.N,Net-(J3-Pad16)*%
X109855000Y-112670000D03*
%TO.N,Net-(J3-Pad15)*%
X109855000Y-109900000D03*
%TO.N,Net-(J3-Pad14)*%
X109855000Y-107130000D03*
%TO.N,Net-(J3-Pad13)*%
X109855000Y-104360000D03*
%TO.N,Net-(J3-Pad12)*%
X109855000Y-101590000D03*
%TO.N,Net-(J3-Pad11)*%
X109855000Y-98820000D03*
%TO.N,Net-(J3-Pad10)*%
X109855000Y-96050000D03*
%TO.N,Net-(J3-Pad9)*%
X109855000Y-93280000D03*
%TO.N,Net-(J3-Pad8)*%
X109855000Y-90510000D03*
%TO.N,/Fire*%
X109855000Y-87740000D03*
%TO.N,/Alert_Active*%
X109855000Y-84970000D03*
%TO.N,/Alert_scl*%
X109855000Y-82200000D03*
%TO.N,/SWDIO*%
X109855000Y-79430000D03*
%TO.N,/Sheet61A437B4/t_miso*%
X109855000Y-76660000D03*
%TO.N,+3V3*%
X109855000Y-73890000D03*
D12*
%TO.N,GND*%
X109855000Y-71120000D03*
%TD*%
D13*
%TO.N,Net-(J2-Pad4)*%
%TO.C,J2*%
X169037000Y-132094000D03*
%TO.N,/Fet_D*%
X169037000Y-127094000D03*
%TO.N,Net-(J2-Pad2)*%
X169037000Y-122094000D03*
%TO.N,/Fet_C*%
X169037000Y-117094000D03*
%TD*%
%TO.N,Net-(J1-Pad4)*%
%TO.C,J1*%
X168910000Y-75071000D03*
%TO.N,/Fet_B*%
X168910000Y-70071000D03*
%TO.N,Net-(J1-Pad2)*%
X168910000Y-65071000D03*
%TO.N,/Fet_A*%
X168910000Y-60071000D03*
%TD*%
D14*
%TO.N,GND*%
%TO.C,IC1*%
X119841000Y-109728000D03*
%TO.N,/Buzzer_Excitation*%
X124841000Y-109728000D03*
%TD*%
D15*
%TO.N,GND*%
%TO.C,C4*%
X140067000Y-129667000D03*
D16*
%TO.N,Net-(C4-Pad1)*%
X155067000Y-129667000D03*
%TD*%
D15*
%TO.N,GND*%
%TO.C,C3*%
X140067000Y-119634000D03*
D16*
%TO.N,Net-(C3-Pad1)*%
X155067000Y-119634000D03*
%TD*%
D15*
%TO.N,GND*%
%TO.C,C2*%
X139940000Y-75057000D03*
D16*
%TO.N,Net-(C2-Pad1)*%
X154940000Y-75057000D03*
%TD*%
D15*
%TO.N,GND*%
%TO.C,C1*%
X139940000Y-64897000D03*
D16*
%TO.N,Net-(C1-Pad1)*%
X154940000Y-64897000D03*
%TD*%
D17*
%TO.N,GND*%
X171196000Y-94107000D03*
X141478000Y-82677000D03*
X115570000Y-86487000D03*
X157607000Y-114427000D03*
%TO.N,+3V3*%
X171196000Y-87122000D03*
X115570000Y-80010000D03*
%TO.N,/Fire_D*%
X114173000Y-129413000D03*
X165481000Y-101473000D03*
%TO.N,/Fire_C*%
X114046000Y-120015000D03*
X165481000Y-100076000D03*
%TO.N,/Fire_B*%
X165481000Y-96266000D03*
X113792000Y-74041000D03*
%TO.N,/Fire_A*%
X113919000Y-66167000D03*
X165481000Y-94996000D03*
%TO.N,/Sense_D*%
X165481000Y-98806000D03*
X134620000Y-129032000D03*
%TO.N,/Sense_C*%
X134747000Y-120523000D03*
X165481000Y-102997000D03*
%TO.N,/Sense_B*%
X134747000Y-74549000D03*
X165481000Y-93726000D03*
%TO.N,/Sense_A*%
X134747000Y-65913000D03*
X165481000Y-97536000D03*
%TO.N,/Alert_Active*%
X153797000Y-84709000D03*
%TO.N,/SWCLK*%
X158369000Y-84709000D03*
%TO.N,/SWDIO*%
X159766000Y-84709000D03*
%TO.N,/Alert_sda*%
X155448000Y-84709000D03*
%TO.N,/Alert_scl*%
X156718000Y-84709000D03*
%TD*%
D18*
%TO.N,+3V3*%
X175489000Y-139040000D02*
X97561000Y-139040000D01*
X97561000Y-131935429D01*
X167427000Y-131935429D01*
X167427000Y-132252571D01*
X167488871Y-132563620D01*
X167610237Y-132856621D01*
X167786431Y-133120315D01*
X168010685Y-133344569D01*
X168274379Y-133520763D01*
X168567380Y-133642129D01*
X168878429Y-133704000D01*
X169195571Y-133704000D01*
X169506620Y-133642129D01*
X169799621Y-133520763D01*
X170063315Y-133344569D01*
X170287569Y-133120315D01*
X170463763Y-132856621D01*
X170585129Y-132563620D01*
X170647000Y-132252571D01*
X170647000Y-131935429D01*
X170585129Y-131624380D01*
X170463763Y-131331379D01*
X170287569Y-131067685D01*
X170063315Y-130843431D01*
X169799621Y-130667237D01*
X169506620Y-130545871D01*
X169195571Y-130484000D01*
X168878429Y-130484000D01*
X168567380Y-130545871D01*
X168274379Y-130667237D01*
X168010685Y-130843431D01*
X167786431Y-131067685D01*
X167610237Y-131331379D01*
X167488871Y-131624380D01*
X167427000Y-131935429D01*
X97561000Y-131935429D01*
X97561000Y-127501079D01*
X105550000Y-127501079D01*
X105550000Y-128098921D01*
X105666633Y-128685277D01*
X105895418Y-129237612D01*
X106227562Y-129734700D01*
X106650300Y-130157438D01*
X107147388Y-130489582D01*
X107699723Y-130718367D01*
X108286079Y-130835000D01*
X108883921Y-130835000D01*
X109470277Y-130718367D01*
X110022612Y-130489582D01*
X110519700Y-130157438D01*
X110942438Y-129734700D01*
X111225504Y-129311061D01*
X113138000Y-129311061D01*
X113138000Y-129514939D01*
X113177774Y-129714898D01*
X113255795Y-129903256D01*
X113369063Y-130072774D01*
X113513226Y-130216937D01*
X113682744Y-130330205D01*
X113871102Y-130408226D01*
X114071061Y-130448000D01*
X114274939Y-130448000D01*
X114474898Y-130408226D01*
X114663256Y-130330205D01*
X114832774Y-130216937D01*
X114976937Y-130072774D01*
X115090205Y-129903256D01*
X115168226Y-129714898D01*
X115208000Y-129514939D01*
X115208000Y-129311061D01*
X115168226Y-129111102D01*
X115093236Y-128930061D01*
X133585000Y-128930061D01*
X133585000Y-129133939D01*
X133624774Y-129333898D01*
X133702795Y-129522256D01*
X133816063Y-129691774D01*
X133960226Y-129835937D01*
X134129744Y-129949205D01*
X134318102Y-130027226D01*
X134518061Y-130067000D01*
X134721939Y-130067000D01*
X134921898Y-130027226D01*
X135110256Y-129949205D01*
X135279774Y-129835937D01*
X135423937Y-129691774D01*
X135537205Y-129522256D01*
X135543952Y-129505967D01*
X138432000Y-129505967D01*
X138432000Y-129828033D01*
X138494832Y-130143912D01*
X138618082Y-130441463D01*
X138797013Y-130709252D01*
X139024748Y-130936987D01*
X139292537Y-131115918D01*
X139590088Y-131239168D01*
X139905967Y-131302000D01*
X140228033Y-131302000D01*
X140543912Y-131239168D01*
X140841463Y-131115918D01*
X141109252Y-130936987D01*
X141336987Y-130709252D01*
X141515918Y-130441463D01*
X141639168Y-130143912D01*
X141702000Y-129828033D01*
X141702000Y-129505967D01*
X141639168Y-129190088D01*
X141515918Y-128892537D01*
X141365219Y-128667000D01*
X153428928Y-128667000D01*
X153428928Y-130667000D01*
X153441188Y-130791482D01*
X153477498Y-130911180D01*
X153536463Y-131021494D01*
X153615815Y-131118185D01*
X153712506Y-131197537D01*
X153822820Y-131256502D01*
X153942518Y-131292812D01*
X154067000Y-131305072D01*
X156067000Y-131305072D01*
X156191482Y-131292812D01*
X156311180Y-131256502D01*
X156421494Y-131197537D01*
X156518185Y-131118185D01*
X156597537Y-131021494D01*
X156656502Y-130911180D01*
X156692812Y-130791482D01*
X156705072Y-130667000D01*
X156705072Y-128667000D01*
X156692812Y-128542518D01*
X156656502Y-128422820D01*
X156597537Y-128312506D01*
X156518185Y-128215815D01*
X156421494Y-128136463D01*
X156311180Y-128077498D01*
X156191482Y-128041188D01*
X156067000Y-128028928D01*
X154067000Y-128028928D01*
X153942518Y-128041188D01*
X153822820Y-128077498D01*
X153712506Y-128136463D01*
X153615815Y-128215815D01*
X153536463Y-128312506D01*
X153477498Y-128422820D01*
X153441188Y-128542518D01*
X153428928Y-128667000D01*
X141365219Y-128667000D01*
X141336987Y-128624748D01*
X141109252Y-128397013D01*
X140841463Y-128218082D01*
X140543912Y-128094832D01*
X140228033Y-128032000D01*
X139905967Y-128032000D01*
X139590088Y-128094832D01*
X139292537Y-128218082D01*
X139024748Y-128397013D01*
X138797013Y-128624748D01*
X138618082Y-128892537D01*
X138494832Y-129190088D01*
X138432000Y-129505967D01*
X135543952Y-129505967D01*
X135615226Y-129333898D01*
X135655000Y-129133939D01*
X135655000Y-128930061D01*
X135615226Y-128730102D01*
X135537205Y-128541744D01*
X135423937Y-128372226D01*
X135279774Y-128228063D01*
X135110256Y-128114795D01*
X134921898Y-128036774D01*
X134721939Y-127997000D01*
X134518061Y-127997000D01*
X134318102Y-128036774D01*
X134129744Y-128114795D01*
X133960226Y-128228063D01*
X133816063Y-128372226D01*
X133702795Y-128541744D01*
X133624774Y-128730102D01*
X133585000Y-128930061D01*
X115093236Y-128930061D01*
X115090205Y-128922744D01*
X114976937Y-128753226D01*
X114832774Y-128609063D01*
X114663256Y-128495795D01*
X114474898Y-128417774D01*
X114274939Y-128378000D01*
X114071061Y-128378000D01*
X113871102Y-128417774D01*
X113682744Y-128495795D01*
X113513226Y-128609063D01*
X113369063Y-128753226D01*
X113255795Y-128922744D01*
X113177774Y-129111102D01*
X113138000Y-129311061D01*
X111225504Y-129311061D01*
X111274582Y-129237612D01*
X111503367Y-128685277D01*
X111620000Y-128098921D01*
X111620000Y-127501079D01*
X111507486Y-126935429D01*
X167427000Y-126935429D01*
X167427000Y-127252571D01*
X167488871Y-127563620D01*
X167610237Y-127856621D01*
X167786431Y-128120315D01*
X168010685Y-128344569D01*
X168274379Y-128520763D01*
X168567380Y-128642129D01*
X168878429Y-128704000D01*
X169195571Y-128704000D01*
X169506620Y-128642129D01*
X169799621Y-128520763D01*
X170063315Y-128344569D01*
X170287569Y-128120315D01*
X170463763Y-127856621D01*
X170585129Y-127563620D01*
X170647000Y-127252571D01*
X170647000Y-126935429D01*
X170585129Y-126624380D01*
X170463763Y-126331379D01*
X170287569Y-126067685D01*
X170063315Y-125843431D01*
X169799621Y-125667237D01*
X169506620Y-125545871D01*
X169195571Y-125484000D01*
X168878429Y-125484000D01*
X168567380Y-125545871D01*
X168274379Y-125667237D01*
X168010685Y-125843431D01*
X167786431Y-126067685D01*
X167610237Y-126331379D01*
X167488871Y-126624380D01*
X167427000Y-126935429D01*
X111507486Y-126935429D01*
X111503367Y-126914723D01*
X111274582Y-126362388D01*
X110942438Y-125865300D01*
X110519700Y-125442562D01*
X110022612Y-125110418D01*
X109470277Y-124881633D01*
X108883921Y-124765000D01*
X108286079Y-124765000D01*
X107699723Y-124881633D01*
X107147388Y-125110418D01*
X106650300Y-125442562D01*
X106227562Y-125865300D01*
X105895418Y-126362388D01*
X105666633Y-126914723D01*
X105550000Y-127501079D01*
X97561000Y-127501079D01*
X97561000Y-72361203D01*
X105855000Y-72361203D01*
X105855000Y-72648797D01*
X105911107Y-72930866D01*
X106021165Y-73196569D01*
X106180944Y-73435696D01*
X106384304Y-73639056D01*
X106623431Y-73798835D01*
X106843522Y-73890000D01*
X106623431Y-73981165D01*
X106384304Y-74140944D01*
X106180944Y-74344304D01*
X106021165Y-74583431D01*
X105911107Y-74849134D01*
X105855000Y-75131203D01*
X105855000Y-75418797D01*
X105911107Y-75700866D01*
X106021165Y-75966569D01*
X106180944Y-76205696D01*
X106384304Y-76409056D01*
X106623431Y-76568835D01*
X106843522Y-76660000D01*
X106623431Y-76751165D01*
X106384304Y-76910944D01*
X106180944Y-77114304D01*
X106021165Y-77353431D01*
X105911107Y-77619134D01*
X105855000Y-77901203D01*
X105855000Y-78188797D01*
X105911107Y-78470866D01*
X106021165Y-78736569D01*
X106180944Y-78975696D01*
X106384304Y-79179056D01*
X106623431Y-79338835D01*
X106843522Y-79430000D01*
X106623431Y-79521165D01*
X106384304Y-79680944D01*
X106180944Y-79884304D01*
X106021165Y-80123431D01*
X105911107Y-80389134D01*
X105855000Y-80671203D01*
X105855000Y-80958797D01*
X105911107Y-81240866D01*
X106021165Y-81506569D01*
X106180944Y-81745696D01*
X106384304Y-81949056D01*
X106623431Y-82108835D01*
X106843522Y-82200000D01*
X106623431Y-82291165D01*
X106384304Y-82450944D01*
X106180944Y-82654304D01*
X106021165Y-82893431D01*
X105911107Y-83159134D01*
X105855000Y-83441203D01*
X105855000Y-83728797D01*
X105911107Y-84010866D01*
X106021165Y-84276569D01*
X106180944Y-84515696D01*
X106384304Y-84719056D01*
X106623431Y-84878835D01*
X106843522Y-84970000D01*
X106623431Y-85061165D01*
X106384304Y-85220944D01*
X106180944Y-85424304D01*
X106021165Y-85663431D01*
X105911107Y-85929134D01*
X105855000Y-86211203D01*
X105855000Y-86498797D01*
X105911107Y-86780866D01*
X106021165Y-87046569D01*
X106180944Y-87285696D01*
X106384304Y-87489056D01*
X106623431Y-87648835D01*
X106843522Y-87740000D01*
X106623431Y-87831165D01*
X106384304Y-87990944D01*
X106180944Y-88194304D01*
X106021165Y-88433431D01*
X105911107Y-88699134D01*
X105855000Y-88981203D01*
X105855000Y-89268797D01*
X105911107Y-89550866D01*
X106021165Y-89816569D01*
X106180944Y-90055696D01*
X106384304Y-90259056D01*
X106623431Y-90418835D01*
X106843522Y-90510000D01*
X106623431Y-90601165D01*
X106384304Y-90760944D01*
X106180944Y-90964304D01*
X106021165Y-91203431D01*
X105911107Y-91469134D01*
X105855000Y-91751203D01*
X105855000Y-92038797D01*
X105911107Y-92320866D01*
X106021165Y-92586569D01*
X106180944Y-92825696D01*
X106384304Y-93029056D01*
X106623431Y-93188835D01*
X106843522Y-93280000D01*
X106623431Y-93371165D01*
X106384304Y-93530944D01*
X106180944Y-93734304D01*
X106021165Y-93973431D01*
X105911107Y-94239134D01*
X105855000Y-94521203D01*
X105855000Y-94808797D01*
X105911107Y-95090866D01*
X106021165Y-95356569D01*
X106180944Y-95595696D01*
X106384304Y-95799056D01*
X106623431Y-95958835D01*
X106843522Y-96050000D01*
X106623431Y-96141165D01*
X106384304Y-96300944D01*
X106180944Y-96504304D01*
X106021165Y-96743431D01*
X105911107Y-97009134D01*
X105855000Y-97291203D01*
X105855000Y-97578797D01*
X105911107Y-97860866D01*
X106021165Y-98126569D01*
X106180944Y-98365696D01*
X106384304Y-98569056D01*
X106623431Y-98728835D01*
X106843522Y-98820000D01*
X106623431Y-98911165D01*
X106384304Y-99070944D01*
X106180944Y-99274304D01*
X106021165Y-99513431D01*
X105911107Y-99779134D01*
X105855000Y-100061203D01*
X105855000Y-100348797D01*
X105911107Y-100630866D01*
X106021165Y-100896569D01*
X106180944Y-101135696D01*
X106384304Y-101339056D01*
X106623431Y-101498835D01*
X106843522Y-101590000D01*
X106623431Y-101681165D01*
X106384304Y-101840944D01*
X106180944Y-102044304D01*
X106021165Y-102283431D01*
X105911107Y-102549134D01*
X105855000Y-102831203D01*
X105855000Y-103118797D01*
X105911107Y-103400866D01*
X106021165Y-103666569D01*
X106180944Y-103905696D01*
X106384304Y-104109056D01*
X106623431Y-104268835D01*
X106843522Y-104360000D01*
X106623431Y-104451165D01*
X106384304Y-104610944D01*
X106180944Y-104814304D01*
X106021165Y-105053431D01*
X105911107Y-105319134D01*
X105855000Y-105601203D01*
X105855000Y-105888797D01*
X105911107Y-106170866D01*
X106021165Y-106436569D01*
X106180944Y-106675696D01*
X106384304Y-106879056D01*
X106623431Y-107038835D01*
X106843522Y-107130000D01*
X106623431Y-107221165D01*
X106384304Y-107380944D01*
X106180944Y-107584304D01*
X106021165Y-107823431D01*
X105911107Y-108089134D01*
X105855000Y-108371203D01*
X105855000Y-108658797D01*
X105911107Y-108940866D01*
X106021165Y-109206569D01*
X106180944Y-109445696D01*
X106384304Y-109649056D01*
X106623431Y-109808835D01*
X106843522Y-109900000D01*
X106623431Y-109991165D01*
X106384304Y-110150944D01*
X106180944Y-110354304D01*
X106021165Y-110593431D01*
X105911107Y-110859134D01*
X105855000Y-111141203D01*
X105855000Y-111428797D01*
X105911107Y-111710866D01*
X106021165Y-111976569D01*
X106180944Y-112215696D01*
X106384304Y-112419056D01*
X106623431Y-112578835D01*
X106843522Y-112670000D01*
X106623431Y-112761165D01*
X106384304Y-112920944D01*
X106180944Y-113124304D01*
X106021165Y-113363431D01*
X105911107Y-113629134D01*
X105855000Y-113911203D01*
X105855000Y-114198797D01*
X105911107Y-114480866D01*
X106021165Y-114746569D01*
X106180944Y-114985696D01*
X106384304Y-115189056D01*
X106623431Y-115348835D01*
X106843522Y-115440000D01*
X106623431Y-115531165D01*
X106384304Y-115690944D01*
X106180944Y-115894304D01*
X106021165Y-116133431D01*
X105911107Y-116399134D01*
X105855000Y-116681203D01*
X105855000Y-116968797D01*
X105911107Y-117250866D01*
X106021165Y-117516569D01*
X106180944Y-117755696D01*
X106384304Y-117959056D01*
X106623431Y-118118835D01*
X106843522Y-118210000D01*
X106623431Y-118301165D01*
X106384304Y-118460944D01*
X106180944Y-118664304D01*
X106021165Y-118903431D01*
X105911107Y-119169134D01*
X105855000Y-119451203D01*
X105855000Y-119738797D01*
X105911107Y-120020866D01*
X106021165Y-120286569D01*
X106180944Y-120525696D01*
X106384304Y-120729056D01*
X106623431Y-120888835D01*
X106889134Y-120998893D01*
X107171203Y-121055000D01*
X107458797Y-121055000D01*
X107740866Y-120998893D01*
X108006569Y-120888835D01*
X108245696Y-120729056D01*
X108449056Y-120525696D01*
X108485444Y-120471237D01*
X108451107Y-120554134D01*
X108395000Y-120836203D01*
X108395000Y-121123797D01*
X108451107Y-121405866D01*
X108561165Y-121671569D01*
X108720944Y-121910696D01*
X108924304Y-122114056D01*
X109163431Y-122273835D01*
X109429134Y-122383893D01*
X109711203Y-122440000D01*
X109998797Y-122440000D01*
X110280866Y-122383893D01*
X110546569Y-122273835D01*
X110785696Y-122114056D01*
X110964323Y-121935429D01*
X167427000Y-121935429D01*
X167427000Y-122252571D01*
X167488871Y-122563620D01*
X167610237Y-122856621D01*
X167786431Y-123120315D01*
X168010685Y-123344569D01*
X168274379Y-123520763D01*
X168567380Y-123642129D01*
X168878429Y-123704000D01*
X169195571Y-123704000D01*
X169506620Y-123642129D01*
X169799621Y-123520763D01*
X170063315Y-123344569D01*
X170287569Y-123120315D01*
X170463763Y-122856621D01*
X170585129Y-122563620D01*
X170647000Y-122252571D01*
X170647000Y-121935429D01*
X170585129Y-121624380D01*
X170463763Y-121331379D01*
X170287569Y-121067685D01*
X170063315Y-120843431D01*
X169799621Y-120667237D01*
X169506620Y-120545871D01*
X169195571Y-120484000D01*
X168878429Y-120484000D01*
X168567380Y-120545871D01*
X168274379Y-120667237D01*
X168010685Y-120843431D01*
X167786431Y-121067685D01*
X167610237Y-121331379D01*
X167488871Y-121624380D01*
X167427000Y-121935429D01*
X110964323Y-121935429D01*
X110989056Y-121910696D01*
X111148835Y-121671569D01*
X111258893Y-121405866D01*
X111315000Y-121123797D01*
X111315000Y-120836203D01*
X111258893Y-120554134D01*
X111148835Y-120288431D01*
X110989056Y-120049304D01*
X110852813Y-119913061D01*
X113011000Y-119913061D01*
X113011000Y-120116939D01*
X113050774Y-120316898D01*
X113128795Y-120505256D01*
X113242063Y-120674774D01*
X113386226Y-120818937D01*
X113555744Y-120932205D01*
X113744102Y-121010226D01*
X113944061Y-121050000D01*
X114147939Y-121050000D01*
X114347898Y-121010226D01*
X114536256Y-120932205D01*
X114705774Y-120818937D01*
X114849937Y-120674774D01*
X114963205Y-120505256D01*
X114998079Y-120421061D01*
X133712000Y-120421061D01*
X133712000Y-120624939D01*
X133751774Y-120824898D01*
X133829795Y-121013256D01*
X133943063Y-121182774D01*
X134087226Y-121326937D01*
X134256744Y-121440205D01*
X134445102Y-121518226D01*
X134645061Y-121558000D01*
X134848939Y-121558000D01*
X135048898Y-121518226D01*
X135237256Y-121440205D01*
X135406774Y-121326937D01*
X135550937Y-121182774D01*
X135664205Y-121013256D01*
X135742226Y-120824898D01*
X135782000Y-120624939D01*
X135782000Y-120421061D01*
X135742226Y-120221102D01*
X135664205Y-120032744D01*
X135550937Y-119863226D01*
X135406774Y-119719063D01*
X135237256Y-119605795D01*
X135048898Y-119527774D01*
X134848939Y-119488000D01*
X134645061Y-119488000D01*
X134445102Y-119527774D01*
X134256744Y-119605795D01*
X134087226Y-119719063D01*
X133943063Y-119863226D01*
X133829795Y-120032744D01*
X133751774Y-120221102D01*
X133712000Y-120421061D01*
X114998079Y-120421061D01*
X115041226Y-120316898D01*
X115081000Y-120116939D01*
X115081000Y-119913061D01*
X115041226Y-119713102D01*
X114963205Y-119524744D01*
X114928609Y-119472967D01*
X138432000Y-119472967D01*
X138432000Y-119795033D01*
X138494832Y-120110912D01*
X138618082Y-120408463D01*
X138797013Y-120676252D01*
X139024748Y-120903987D01*
X139292537Y-121082918D01*
X139590088Y-121206168D01*
X139905967Y-121269000D01*
X140228033Y-121269000D01*
X140543912Y-121206168D01*
X140841463Y-121082918D01*
X141109252Y-120903987D01*
X141336987Y-120676252D01*
X141515918Y-120408463D01*
X141639168Y-120110912D01*
X141702000Y-119795033D01*
X141702000Y-119472967D01*
X141639168Y-119157088D01*
X141515918Y-118859537D01*
X141365219Y-118634000D01*
X153428928Y-118634000D01*
X153428928Y-120634000D01*
X153441188Y-120758482D01*
X153477498Y-120878180D01*
X153536463Y-120988494D01*
X153615815Y-121085185D01*
X153712506Y-121164537D01*
X153822820Y-121223502D01*
X153942518Y-121259812D01*
X154067000Y-121272072D01*
X156067000Y-121272072D01*
X156191482Y-121259812D01*
X156311180Y-121223502D01*
X156421494Y-121164537D01*
X156518185Y-121085185D01*
X156597537Y-120988494D01*
X156656502Y-120878180D01*
X156692812Y-120758482D01*
X156705072Y-120634000D01*
X156705072Y-118634000D01*
X156692812Y-118509518D01*
X156656502Y-118389820D01*
X156597537Y-118279506D01*
X156518185Y-118182815D01*
X156421494Y-118103463D01*
X156311180Y-118044498D01*
X156191482Y-118008188D01*
X156067000Y-117995928D01*
X154067000Y-117995928D01*
X153942518Y-118008188D01*
X153822820Y-118044498D01*
X153712506Y-118103463D01*
X153615815Y-118182815D01*
X153536463Y-118279506D01*
X153477498Y-118389820D01*
X153441188Y-118509518D01*
X153428928Y-118634000D01*
X141365219Y-118634000D01*
X141336987Y-118591748D01*
X141109252Y-118364013D01*
X140841463Y-118185082D01*
X140543912Y-118061832D01*
X140228033Y-117999000D01*
X139905967Y-117999000D01*
X139590088Y-118061832D01*
X139292537Y-118185082D01*
X139024748Y-118364013D01*
X138797013Y-118591748D01*
X138618082Y-118859537D01*
X138494832Y-119157088D01*
X138432000Y-119472967D01*
X114928609Y-119472967D01*
X114849937Y-119355226D01*
X114705774Y-119211063D01*
X114536256Y-119097795D01*
X114347898Y-119019774D01*
X114147939Y-118980000D01*
X113944061Y-118980000D01*
X113744102Y-119019774D01*
X113555744Y-119097795D01*
X113386226Y-119211063D01*
X113242063Y-119355226D01*
X113128795Y-119524744D01*
X113050774Y-119713102D01*
X113011000Y-119913061D01*
X110852813Y-119913061D01*
X110785696Y-119845944D01*
X110546569Y-119686165D01*
X110322468Y-119593339D01*
X110480020Y-119537265D01*
X110611337Y-119467073D01*
X110685946Y-119220551D01*
X109855000Y-118389605D01*
X109024054Y-119220551D01*
X109098663Y-119467073D01*
X109358439Y-119590473D01*
X109380820Y-119596119D01*
X109163431Y-119686165D01*
X108924304Y-119845944D01*
X108720944Y-120049304D01*
X108684556Y-120103763D01*
X108718893Y-120020866D01*
X108775000Y-119738797D01*
X108775000Y-119451203D01*
X108718893Y-119169134D01*
X108640190Y-118979128D01*
X108844449Y-119040946D01*
X109675395Y-118210000D01*
X110034605Y-118210000D01*
X110865551Y-119040946D01*
X111112073Y-118966337D01*
X111235473Y-118706561D01*
X111305823Y-118427703D01*
X111320417Y-118140479D01*
X111278697Y-117855926D01*
X111182265Y-117584980D01*
X111112073Y-117453663D01*
X110865551Y-117379054D01*
X110034605Y-118210000D01*
X109675395Y-118210000D01*
X108844449Y-117379054D01*
X108640190Y-117440872D01*
X108718893Y-117250866D01*
X108775000Y-116968797D01*
X108775000Y-116681203D01*
X108718893Y-116399134D01*
X108684556Y-116316237D01*
X108720944Y-116370696D01*
X108924304Y-116574056D01*
X109163431Y-116733835D01*
X109387532Y-116826661D01*
X109229980Y-116882735D01*
X109098663Y-116952927D01*
X109024054Y-117199449D01*
X109855000Y-118030395D01*
X110685946Y-117199449D01*
X110611337Y-116952927D01*
X110574502Y-116935429D01*
X167427000Y-116935429D01*
X167427000Y-117252571D01*
X167488871Y-117563620D01*
X167610237Y-117856621D01*
X167786431Y-118120315D01*
X168010685Y-118344569D01*
X168274379Y-118520763D01*
X168567380Y-118642129D01*
X168878429Y-118704000D01*
X169195571Y-118704000D01*
X169506620Y-118642129D01*
X169799621Y-118520763D01*
X170063315Y-118344569D01*
X170287569Y-118120315D01*
X170463763Y-117856621D01*
X170585129Y-117563620D01*
X170647000Y-117252571D01*
X170647000Y-116935429D01*
X170585129Y-116624380D01*
X170463763Y-116331379D01*
X170287569Y-116067685D01*
X170063315Y-115843431D01*
X169799621Y-115667237D01*
X169506620Y-115545871D01*
X169195571Y-115484000D01*
X168878429Y-115484000D01*
X168567380Y-115545871D01*
X168274379Y-115667237D01*
X168010685Y-115843431D01*
X167786431Y-116067685D01*
X167610237Y-116331379D01*
X167488871Y-116624380D01*
X167427000Y-116935429D01*
X110574502Y-116935429D01*
X110351561Y-116829527D01*
X110329180Y-116823881D01*
X110546569Y-116733835D01*
X110785696Y-116574056D01*
X110989056Y-116370696D01*
X111148835Y-116131569D01*
X111258893Y-115865866D01*
X111315000Y-115583797D01*
X111315000Y-115296203D01*
X111258893Y-115014134D01*
X111148835Y-114748431D01*
X110989056Y-114509304D01*
X110804813Y-114325061D01*
X156572000Y-114325061D01*
X156572000Y-114528939D01*
X156611774Y-114728898D01*
X156689795Y-114917256D01*
X156803063Y-115086774D01*
X156947226Y-115230937D01*
X157116744Y-115344205D01*
X157305102Y-115422226D01*
X157505061Y-115462000D01*
X157708939Y-115462000D01*
X157908898Y-115422226D01*
X158097256Y-115344205D01*
X158266774Y-115230937D01*
X158410937Y-115086774D01*
X158524205Y-114917256D01*
X158602226Y-114728898D01*
X158642000Y-114528939D01*
X158642000Y-114325061D01*
X158602226Y-114125102D01*
X158524205Y-113936744D01*
X158410937Y-113767226D01*
X158266774Y-113623063D01*
X158097256Y-113509795D01*
X157908898Y-113431774D01*
X157708939Y-113392000D01*
X157505061Y-113392000D01*
X157305102Y-113431774D01*
X157116744Y-113509795D01*
X156947226Y-113623063D01*
X156803063Y-113767226D01*
X156689795Y-113936744D01*
X156611774Y-114125102D01*
X156572000Y-114325061D01*
X110804813Y-114325061D01*
X110785696Y-114305944D01*
X110546569Y-114146165D01*
X110326478Y-114055000D01*
X110546569Y-113963835D01*
X110785696Y-113804056D01*
X110989056Y-113600696D01*
X111148835Y-113361569D01*
X111258893Y-113095866D01*
X111315000Y-112813797D01*
X111315000Y-112526203D01*
X111258893Y-112244134D01*
X111148835Y-111978431D01*
X110989056Y-111739304D01*
X110785696Y-111535944D01*
X110546569Y-111376165D01*
X110326478Y-111285000D01*
X110546569Y-111193835D01*
X110785696Y-111034056D01*
X110989056Y-110830696D01*
X111148835Y-110591569D01*
X111258893Y-110325866D01*
X111315000Y-110043797D01*
X111315000Y-109756203D01*
X111282257Y-109591589D01*
X118456000Y-109591589D01*
X118456000Y-109864411D01*
X118509225Y-110131989D01*
X118613629Y-110384043D01*
X118765201Y-110610886D01*
X118958114Y-110803799D01*
X119184957Y-110955371D01*
X119437011Y-111059775D01*
X119704589Y-111113000D01*
X119977411Y-111113000D01*
X120244989Y-111059775D01*
X120497043Y-110955371D01*
X120723886Y-110803799D01*
X120916799Y-110610886D01*
X121068371Y-110384043D01*
X121172775Y-110131989D01*
X121226000Y-109864411D01*
X121226000Y-109591589D01*
X123456000Y-109591589D01*
X123456000Y-109864411D01*
X123509225Y-110131989D01*
X123613629Y-110384043D01*
X123765201Y-110610886D01*
X123958114Y-110803799D01*
X124184957Y-110955371D01*
X124437011Y-111059775D01*
X124704589Y-111113000D01*
X124977411Y-111113000D01*
X125244989Y-111059775D01*
X125497043Y-110955371D01*
X125723886Y-110803799D01*
X125916799Y-110610886D01*
X126068371Y-110384043D01*
X126172775Y-110131989D01*
X126226000Y-109864411D01*
X126226000Y-109591589D01*
X126172775Y-109324011D01*
X126068371Y-109071957D01*
X125916799Y-108845114D01*
X125723886Y-108652201D01*
X125497043Y-108500629D01*
X125244989Y-108396225D01*
X124977411Y-108343000D01*
X124704589Y-108343000D01*
X124437011Y-108396225D01*
X124184957Y-108500629D01*
X123958114Y-108652201D01*
X123765201Y-108845114D01*
X123613629Y-109071957D01*
X123509225Y-109324011D01*
X123456000Y-109591589D01*
X121226000Y-109591589D01*
X121172775Y-109324011D01*
X121068371Y-109071957D01*
X120916799Y-108845114D01*
X120723886Y-108652201D01*
X120497043Y-108500629D01*
X120244989Y-108396225D01*
X119977411Y-108343000D01*
X119704589Y-108343000D01*
X119437011Y-108396225D01*
X119184957Y-108500629D01*
X118958114Y-108652201D01*
X118765201Y-108845114D01*
X118613629Y-109071957D01*
X118509225Y-109324011D01*
X118456000Y-109591589D01*
X111282257Y-109591589D01*
X111258893Y-109474134D01*
X111148835Y-109208431D01*
X110989056Y-108969304D01*
X110785696Y-108765944D01*
X110546569Y-108606165D01*
X110326478Y-108515000D01*
X110546569Y-108423835D01*
X110785696Y-108264056D01*
X110989056Y-108060696D01*
X111148835Y-107821569D01*
X111258893Y-107555866D01*
X111315000Y-107273797D01*
X111315000Y-106986203D01*
X111258893Y-106704134D01*
X111148835Y-106438431D01*
X110989056Y-106199304D01*
X110785696Y-105995944D01*
X110546569Y-105836165D01*
X110326478Y-105745000D01*
X110546569Y-105653835D01*
X110785696Y-105494056D01*
X110989056Y-105290696D01*
X111148835Y-105051569D01*
X111258893Y-104785866D01*
X111315000Y-104503797D01*
X111315000Y-104216203D01*
X111258893Y-103934134D01*
X111148835Y-103668431D01*
X110989056Y-103429304D01*
X110785696Y-103225944D01*
X110546569Y-103066165D01*
X110326478Y-102975000D01*
X110546569Y-102883835D01*
X110785696Y-102724056D01*
X110989056Y-102520696D01*
X111148835Y-102281569D01*
X111258893Y-102015866D01*
X111315000Y-101733797D01*
X111315000Y-101446203D01*
X111258893Y-101164134D01*
X111148835Y-100898431D01*
X110989056Y-100659304D01*
X110785696Y-100455944D01*
X110546569Y-100296165D01*
X110326478Y-100205000D01*
X110546569Y-100113835D01*
X110785696Y-99954056D01*
X110989056Y-99750696D01*
X111148835Y-99511569D01*
X111258893Y-99245866D01*
X111315000Y-98963797D01*
X111315000Y-98676203D01*
X111258893Y-98394134D01*
X111148835Y-98128431D01*
X110989056Y-97889304D01*
X110785696Y-97685944D01*
X110546569Y-97526165D01*
X110326478Y-97435000D01*
X110546569Y-97343835D01*
X110785696Y-97184056D01*
X110989056Y-96980696D01*
X111148835Y-96741569D01*
X111258893Y-96475866D01*
X111315000Y-96193797D01*
X111315000Y-95906203D01*
X111258893Y-95624134D01*
X111148835Y-95358431D01*
X111132132Y-95333433D01*
X125706671Y-95333433D01*
X125706671Y-96436567D01*
X125879239Y-97526121D01*
X126220127Y-98575265D01*
X126720940Y-99558165D01*
X127369346Y-100450620D01*
X128149380Y-101230654D01*
X129041835Y-101879060D01*
X130024735Y-102379873D01*
X131073879Y-102720761D01*
X132163433Y-102893329D01*
X133266567Y-102893329D01*
X134356121Y-102720761D01*
X135405265Y-102379873D01*
X136388165Y-101879060D01*
X137280620Y-101230654D01*
X138060654Y-100450620D01*
X138709060Y-99558165D01*
X139209873Y-98575265D01*
X139550761Y-97526121D01*
X139723329Y-96436567D01*
X139723329Y-95333433D01*
X139550761Y-94243879D01*
X139349370Y-93624061D01*
X164446000Y-93624061D01*
X164446000Y-93827939D01*
X164485774Y-94027898D01*
X164563795Y-94216256D01*
X164660510Y-94361000D01*
X164563795Y-94505744D01*
X164485774Y-94694102D01*
X164446000Y-94894061D01*
X164446000Y-95097939D01*
X164485774Y-95297898D01*
X164563795Y-95486256D01*
X164660510Y-95631000D01*
X164563795Y-95775744D01*
X164485774Y-95964102D01*
X164446000Y-96164061D01*
X164446000Y-96367939D01*
X164485774Y-96567898D01*
X164563795Y-96756256D01*
X164660510Y-96901000D01*
X164563795Y-97045744D01*
X164485774Y-97234102D01*
X164446000Y-97434061D01*
X164446000Y-97637939D01*
X164485774Y-97837898D01*
X164563795Y-98026256D01*
X164660510Y-98171000D01*
X164563795Y-98315744D01*
X164485774Y-98504102D01*
X164446000Y-98704061D01*
X164446000Y-98907939D01*
X164485774Y-99107898D01*
X164563795Y-99296256D01*
X164660510Y-99441000D01*
X164563795Y-99585744D01*
X164485774Y-99774102D01*
X164446000Y-99974061D01*
X164446000Y-100177939D01*
X164485774Y-100377898D01*
X164563795Y-100566256D01*
X164677063Y-100735774D01*
X164715789Y-100774500D01*
X164677063Y-100813226D01*
X164563795Y-100982744D01*
X164485774Y-101171102D01*
X164446000Y-101371061D01*
X164446000Y-101574939D01*
X164485774Y-101774898D01*
X164563795Y-101963256D01*
X164677063Y-102132774D01*
X164779289Y-102235000D01*
X164677063Y-102337226D01*
X164563795Y-102506744D01*
X164485774Y-102695102D01*
X164446000Y-102895061D01*
X164446000Y-103098939D01*
X164485774Y-103298898D01*
X164563795Y-103487256D01*
X164677063Y-103656774D01*
X164821226Y-103800937D01*
X164990744Y-103914205D01*
X165179102Y-103992226D01*
X165379061Y-104032000D01*
X165582939Y-104032000D01*
X165782898Y-103992226D01*
X165971256Y-103914205D01*
X166140774Y-103800937D01*
X166284937Y-103656774D01*
X166398205Y-103487256D01*
X166476226Y-103298898D01*
X166516000Y-103098939D01*
X166516000Y-102895061D01*
X166476226Y-102695102D01*
X166398205Y-102506744D01*
X166284937Y-102337226D01*
X166182711Y-102235000D01*
X166284937Y-102132774D01*
X166398205Y-101963256D01*
X166476226Y-101774898D01*
X166516000Y-101574939D01*
X166516000Y-101371061D01*
X166476226Y-101171102D01*
X166398205Y-100982744D01*
X166284937Y-100813226D01*
X166246211Y-100774500D01*
X166284937Y-100735774D01*
X166398205Y-100566256D01*
X166476226Y-100377898D01*
X166516000Y-100177939D01*
X166516000Y-99974061D01*
X166476226Y-99774102D01*
X166398205Y-99585744D01*
X166301490Y-99441000D01*
X166398205Y-99296256D01*
X166476226Y-99107898D01*
X166516000Y-98907939D01*
X166516000Y-98704061D01*
X166476226Y-98504102D01*
X166398205Y-98315744D01*
X166301490Y-98171000D01*
X166398205Y-98026256D01*
X166476226Y-97837898D01*
X166516000Y-97637939D01*
X166516000Y-97434061D01*
X166476226Y-97234102D01*
X166398205Y-97045744D01*
X166301490Y-96901000D01*
X166398205Y-96756256D01*
X166476226Y-96567898D01*
X166516000Y-96367939D01*
X166516000Y-96164061D01*
X166476226Y-95964102D01*
X166398205Y-95775744D01*
X166301490Y-95631000D01*
X166398205Y-95486256D01*
X166476226Y-95297898D01*
X166516000Y-95097939D01*
X166516000Y-94894061D01*
X166476226Y-94694102D01*
X166398205Y-94505744D01*
X166301490Y-94361000D01*
X166398205Y-94216256D01*
X166476226Y-94027898D01*
X166480768Y-94005061D01*
X170161000Y-94005061D01*
X170161000Y-94208939D01*
X170200774Y-94408898D01*
X170278795Y-94597256D01*
X170392063Y-94766774D01*
X170536226Y-94910937D01*
X170705744Y-95024205D01*
X170894102Y-95102226D01*
X171094061Y-95142000D01*
X171297939Y-95142000D01*
X171497898Y-95102226D01*
X171686256Y-95024205D01*
X171855774Y-94910937D01*
X171999937Y-94766774D01*
X172113205Y-94597256D01*
X172191226Y-94408898D01*
X172231000Y-94208939D01*
X172231000Y-94005061D01*
X172191226Y-93805102D01*
X172113205Y-93616744D01*
X171999937Y-93447226D01*
X171855774Y-93303063D01*
X171686256Y-93189795D01*
X171497898Y-93111774D01*
X171297939Y-93072000D01*
X171094061Y-93072000D01*
X170894102Y-93111774D01*
X170705744Y-93189795D01*
X170536226Y-93303063D01*
X170392063Y-93447226D01*
X170278795Y-93616744D01*
X170200774Y-93805102D01*
X170161000Y-94005061D01*
X166480768Y-94005061D01*
X166516000Y-93827939D01*
X166516000Y-93624061D01*
X166476226Y-93424102D01*
X166398205Y-93235744D01*
X166284937Y-93066226D01*
X166140774Y-92922063D01*
X165971256Y-92808795D01*
X165782898Y-92730774D01*
X165582939Y-92691000D01*
X165379061Y-92691000D01*
X165179102Y-92730774D01*
X164990744Y-92808795D01*
X164821226Y-92922063D01*
X164677063Y-93066226D01*
X164563795Y-93235744D01*
X164485774Y-93424102D01*
X164446000Y-93624061D01*
X139349370Y-93624061D01*
X139209873Y-93194735D01*
X138709060Y-92211835D01*
X138060654Y-91319380D01*
X137280620Y-90539346D01*
X136388165Y-89890940D01*
X135405265Y-89390127D01*
X134356121Y-89049239D01*
X133266567Y-88876671D01*
X132163433Y-88876671D01*
X131073879Y-89049239D01*
X130024735Y-89390127D01*
X129041835Y-89890940D01*
X128149380Y-90539346D01*
X127369346Y-91319380D01*
X126720940Y-92211835D01*
X126220127Y-93194735D01*
X125879239Y-94243879D01*
X125706671Y-95333433D01*
X111132132Y-95333433D01*
X110989056Y-95119304D01*
X110785696Y-94915944D01*
X110546569Y-94756165D01*
X110326478Y-94665000D01*
X110546569Y-94573835D01*
X110785696Y-94414056D01*
X110989056Y-94210696D01*
X111148835Y-93971569D01*
X111258893Y-93705866D01*
X111315000Y-93423797D01*
X111315000Y-93136203D01*
X111258893Y-92854134D01*
X111148835Y-92588431D01*
X110989056Y-92349304D01*
X110785696Y-92145944D01*
X110546569Y-91986165D01*
X110326478Y-91895000D01*
X110546569Y-91803835D01*
X110785696Y-91644056D01*
X110989056Y-91440696D01*
X111148835Y-91201569D01*
X111258893Y-90935866D01*
X111315000Y-90653797D01*
X111315000Y-90366203D01*
X111258893Y-90084134D01*
X111148835Y-89818431D01*
X110989056Y-89579304D01*
X110785696Y-89375944D01*
X110546569Y-89216165D01*
X110326478Y-89125000D01*
X110546569Y-89033835D01*
X110785696Y-88874056D01*
X110989056Y-88670696D01*
X111148835Y-88431569D01*
X111258893Y-88165866D01*
X111315000Y-87883797D01*
X111315000Y-87596203D01*
X111258893Y-87314134D01*
X111148835Y-87048431D01*
X110989056Y-86809304D01*
X110785696Y-86605944D01*
X110546569Y-86446165D01*
X110399052Y-86385061D01*
X114535000Y-86385061D01*
X114535000Y-86588939D01*
X114574774Y-86788898D01*
X114652795Y-86977256D01*
X114766063Y-87146774D01*
X114910226Y-87290937D01*
X115079744Y-87404205D01*
X115268102Y-87482226D01*
X115468061Y-87522000D01*
X115671939Y-87522000D01*
X115871898Y-87482226D01*
X116060256Y-87404205D01*
X116229774Y-87290937D01*
X116373937Y-87146774D01*
X116487205Y-86977256D01*
X116565226Y-86788898D01*
X116605000Y-86588939D01*
X116605000Y-86385061D01*
X116565226Y-86185102D01*
X116487205Y-85996744D01*
X116373937Y-85827226D01*
X116229774Y-85683063D01*
X116060256Y-85569795D01*
X115871898Y-85491774D01*
X115671939Y-85452000D01*
X115468061Y-85452000D01*
X115268102Y-85491774D01*
X115079744Y-85569795D01*
X114910226Y-85683063D01*
X114766063Y-85827226D01*
X114652795Y-85996744D01*
X114574774Y-86185102D01*
X114535000Y-86385061D01*
X110399052Y-86385061D01*
X110326478Y-86355000D01*
X110546569Y-86263835D01*
X110785696Y-86104056D01*
X110989056Y-85900696D01*
X111148835Y-85661569D01*
X111258893Y-85395866D01*
X111315000Y-85113797D01*
X111315000Y-84826203D01*
X111271410Y-84607061D01*
X152762000Y-84607061D01*
X152762000Y-84810939D01*
X152801774Y-85010898D01*
X152879795Y-85199256D01*
X152993063Y-85368774D01*
X153137226Y-85512937D01*
X153306744Y-85626205D01*
X153495102Y-85704226D01*
X153695061Y-85744000D01*
X153898939Y-85744000D01*
X154098898Y-85704226D01*
X154287256Y-85626205D01*
X154456774Y-85512937D01*
X154600937Y-85368774D01*
X154622500Y-85336503D01*
X154644063Y-85368774D01*
X154788226Y-85512937D01*
X154957744Y-85626205D01*
X155146102Y-85704226D01*
X155346061Y-85744000D01*
X155549939Y-85744000D01*
X155749898Y-85704226D01*
X155938256Y-85626205D01*
X156083000Y-85529490D01*
X156227744Y-85626205D01*
X156416102Y-85704226D01*
X156616061Y-85744000D01*
X156819939Y-85744000D01*
X157019898Y-85704226D01*
X157208256Y-85626205D01*
X157377774Y-85512937D01*
X157521937Y-85368774D01*
X157543500Y-85336503D01*
X157565063Y-85368774D01*
X157709226Y-85512937D01*
X157878744Y-85626205D01*
X158067102Y-85704226D01*
X158267061Y-85744000D01*
X158470939Y-85744000D01*
X158670898Y-85704226D01*
X158859256Y-85626205D01*
X159028774Y-85512937D01*
X159067500Y-85474211D01*
X159106226Y-85512937D01*
X159275744Y-85626205D01*
X159464102Y-85704226D01*
X159664061Y-85744000D01*
X159867939Y-85744000D01*
X160067898Y-85704226D01*
X160256256Y-85626205D01*
X160425774Y-85512937D01*
X160569937Y-85368774D01*
X160683205Y-85199256D01*
X160761226Y-85010898D01*
X160801000Y-84810939D01*
X160801000Y-84607061D01*
X160761226Y-84407102D01*
X160683205Y-84218744D01*
X160569937Y-84049226D01*
X160425774Y-83905063D01*
X160256256Y-83791795D01*
X160067898Y-83713774D01*
X159867939Y-83674000D01*
X159664061Y-83674000D01*
X159464102Y-83713774D01*
X159275744Y-83791795D01*
X159106226Y-83905063D01*
X159067500Y-83943789D01*
X159028774Y-83905063D01*
X158859256Y-83791795D01*
X158670898Y-83713774D01*
X158470939Y-83674000D01*
X158267061Y-83674000D01*
X158067102Y-83713774D01*
X157878744Y-83791795D01*
X157709226Y-83905063D01*
X157565063Y-84049226D01*
X157543500Y-84081497D01*
X157521937Y-84049226D01*
X157377774Y-83905063D01*
X157208256Y-83791795D01*
X157019898Y-83713774D01*
X156819939Y-83674000D01*
X156616061Y-83674000D01*
X156416102Y-83713774D01*
X156227744Y-83791795D01*
X156083000Y-83888510D01*
X155938256Y-83791795D01*
X155749898Y-83713774D01*
X155549939Y-83674000D01*
X155346061Y-83674000D01*
X155146102Y-83713774D01*
X154957744Y-83791795D01*
X154788226Y-83905063D01*
X154644063Y-84049226D01*
X154622500Y-84081497D01*
X154600937Y-84049226D01*
X154456774Y-83905063D01*
X154287256Y-83791795D01*
X154098898Y-83713774D01*
X153898939Y-83674000D01*
X153695061Y-83674000D01*
X153495102Y-83713774D01*
X153306744Y-83791795D01*
X153137226Y-83905063D01*
X152993063Y-84049226D01*
X152879795Y-84218744D01*
X152801774Y-84407102D01*
X152762000Y-84607061D01*
X111271410Y-84607061D01*
X111258893Y-84544134D01*
X111148835Y-84278431D01*
X110989056Y-84039304D01*
X110785696Y-83835944D01*
X110546569Y-83676165D01*
X110326478Y-83585000D01*
X110546569Y-83493835D01*
X110785696Y-83334056D01*
X110989056Y-83130696D01*
X111148835Y-82891569D01*
X111258893Y-82625866D01*
X111268998Y-82575061D01*
X140443000Y-82575061D01*
X140443000Y-82778939D01*
X140482774Y-82978898D01*
X140560795Y-83167256D01*
X140674063Y-83336774D01*
X140818226Y-83480937D01*
X140987744Y-83594205D01*
X141176102Y-83672226D01*
X141376061Y-83712000D01*
X141579939Y-83712000D01*
X141779898Y-83672226D01*
X141968256Y-83594205D01*
X142137774Y-83480937D01*
X142281937Y-83336774D01*
X142395205Y-83167256D01*
X142473226Y-82978898D01*
X142513000Y-82778939D01*
X142513000Y-82575061D01*
X142473226Y-82375102D01*
X142395205Y-82186744D01*
X142281937Y-82017226D01*
X142137774Y-81873063D01*
X141968256Y-81759795D01*
X141779898Y-81681774D01*
X141579939Y-81642000D01*
X141376061Y-81642000D01*
X141176102Y-81681774D01*
X140987744Y-81759795D01*
X140818226Y-81873063D01*
X140674063Y-82017226D01*
X140560795Y-82186744D01*
X140482774Y-82375102D01*
X140443000Y-82575061D01*
X111268998Y-82575061D01*
X111315000Y-82343797D01*
X111315000Y-82056203D01*
X111258893Y-81774134D01*
X111148835Y-81508431D01*
X110989056Y-81269304D01*
X110785696Y-81065944D01*
X110546569Y-80906165D01*
X110326478Y-80815000D01*
X110546569Y-80723835D01*
X110785696Y-80564056D01*
X110989056Y-80360696D01*
X111148835Y-80121569D01*
X111258893Y-79855866D01*
X111315000Y-79573797D01*
X111315000Y-79286203D01*
X111258893Y-79004134D01*
X111148835Y-78738431D01*
X110989056Y-78499304D01*
X110785696Y-78295944D01*
X110546569Y-78136165D01*
X110326478Y-78045000D01*
X110546569Y-77953835D01*
X110785696Y-77794056D01*
X110989056Y-77590696D01*
X111148835Y-77351569D01*
X111258893Y-77085866D01*
X111315000Y-76803797D01*
X111315000Y-76516203D01*
X111258893Y-76234134D01*
X111148835Y-75968431D01*
X110989056Y-75729304D01*
X110785696Y-75525944D01*
X110546569Y-75366165D01*
X110322468Y-75273339D01*
X110480020Y-75217265D01*
X110611337Y-75147073D01*
X110685946Y-74900551D01*
X109855000Y-74069605D01*
X109024054Y-74900551D01*
X109098663Y-75147073D01*
X109358439Y-75270473D01*
X109380820Y-75276119D01*
X109163431Y-75366165D01*
X108924304Y-75525944D01*
X108720944Y-75729304D01*
X108684556Y-75783763D01*
X108718893Y-75700866D01*
X108775000Y-75418797D01*
X108775000Y-75131203D01*
X108718893Y-74849134D01*
X108640190Y-74659128D01*
X108844449Y-74720946D01*
X109675395Y-73890000D01*
X110034605Y-73890000D01*
X110865551Y-74720946D01*
X111112073Y-74646337D01*
X111235473Y-74386561D01*
X111305823Y-74107703D01*
X111314391Y-73939061D01*
X112757000Y-73939061D01*
X112757000Y-74142939D01*
X112796774Y-74342898D01*
X112874795Y-74531256D01*
X112988063Y-74700774D01*
X113132226Y-74844937D01*
X113301744Y-74958205D01*
X113490102Y-75036226D01*
X113690061Y-75076000D01*
X113893939Y-75076000D01*
X114093898Y-75036226D01*
X114282256Y-74958205D01*
X114451774Y-74844937D01*
X114595937Y-74700774D01*
X114709205Y-74531256D01*
X114744079Y-74447061D01*
X133712000Y-74447061D01*
X133712000Y-74650939D01*
X133751774Y-74850898D01*
X133829795Y-75039256D01*
X133943063Y-75208774D01*
X134087226Y-75352937D01*
X134256744Y-75466205D01*
X134445102Y-75544226D01*
X134645061Y-75584000D01*
X134848939Y-75584000D01*
X135048898Y-75544226D01*
X135237256Y-75466205D01*
X135406774Y-75352937D01*
X135550937Y-75208774D01*
X135664205Y-75039256D01*
X135723557Y-74895967D01*
X138305000Y-74895967D01*
X138305000Y-75218033D01*
X138367832Y-75533912D01*
X138491082Y-75831463D01*
X138670013Y-76099252D01*
X138897748Y-76326987D01*
X139165537Y-76505918D01*
X139463088Y-76629168D01*
X139778967Y-76692000D01*
X140101033Y-76692000D01*
X140416912Y-76629168D01*
X140714463Y-76505918D01*
X140982252Y-76326987D01*
X141209987Y-76099252D01*
X141388918Y-75831463D01*
X141512168Y-75533912D01*
X141575000Y-75218033D01*
X141575000Y-74895967D01*
X141512168Y-74580088D01*
X141388918Y-74282537D01*
X141238219Y-74057000D01*
X153301928Y-74057000D01*
X153301928Y-76057000D01*
X153314188Y-76181482D01*
X153350498Y-76301180D01*
X153409463Y-76411494D01*
X153488815Y-76508185D01*
X153585506Y-76587537D01*
X153695820Y-76646502D01*
X153815518Y-76682812D01*
X153940000Y-76695072D01*
X155940000Y-76695072D01*
X156064482Y-76682812D01*
X156184180Y-76646502D01*
X156294494Y-76587537D01*
X156391185Y-76508185D01*
X156470537Y-76411494D01*
X156529502Y-76301180D01*
X156565812Y-76181482D01*
X156578072Y-76057000D01*
X156578072Y-74912429D01*
X167300000Y-74912429D01*
X167300000Y-75229571D01*
X167361871Y-75540620D01*
X167483237Y-75833621D01*
X167659431Y-76097315D01*
X167883685Y-76321569D01*
X168147379Y-76497763D01*
X168440380Y-76619129D01*
X168751429Y-76681000D01*
X169068571Y-76681000D01*
X169379620Y-76619129D01*
X169672621Y-76497763D01*
X169936315Y-76321569D01*
X170160569Y-76097315D01*
X170336763Y-75833621D01*
X170458129Y-75540620D01*
X170520000Y-75229571D01*
X170520000Y-74912429D01*
X170458129Y-74601380D01*
X170336763Y-74308379D01*
X170160569Y-74044685D01*
X169936315Y-73820431D01*
X169672621Y-73644237D01*
X169379620Y-73522871D01*
X169068571Y-73461000D01*
X168751429Y-73461000D01*
X168440380Y-73522871D01*
X168147379Y-73644237D01*
X167883685Y-73820431D01*
X167659431Y-74044685D01*
X167483237Y-74308379D01*
X167361871Y-74601380D01*
X167300000Y-74912429D01*
X156578072Y-74912429D01*
X156578072Y-74057000D01*
X156565812Y-73932518D01*
X156529502Y-73812820D01*
X156470537Y-73702506D01*
X156391185Y-73605815D01*
X156294494Y-73526463D01*
X156184180Y-73467498D01*
X156064482Y-73431188D01*
X155940000Y-73418928D01*
X153940000Y-73418928D01*
X153815518Y-73431188D01*
X153695820Y-73467498D01*
X153585506Y-73526463D01*
X153488815Y-73605815D01*
X153409463Y-73702506D01*
X153350498Y-73812820D01*
X153314188Y-73932518D01*
X153301928Y-74057000D01*
X141238219Y-74057000D01*
X141209987Y-74014748D01*
X140982252Y-73787013D01*
X140714463Y-73608082D01*
X140416912Y-73484832D01*
X140101033Y-73422000D01*
X139778967Y-73422000D01*
X139463088Y-73484832D01*
X139165537Y-73608082D01*
X138897748Y-73787013D01*
X138670013Y-74014748D01*
X138491082Y-74282537D01*
X138367832Y-74580088D01*
X138305000Y-74895967D01*
X135723557Y-74895967D01*
X135742226Y-74850898D01*
X135782000Y-74650939D01*
X135782000Y-74447061D01*
X135742226Y-74247102D01*
X135664205Y-74058744D01*
X135550937Y-73889226D01*
X135406774Y-73745063D01*
X135237256Y-73631795D01*
X135048898Y-73553774D01*
X134848939Y-73514000D01*
X134645061Y-73514000D01*
X134445102Y-73553774D01*
X134256744Y-73631795D01*
X134087226Y-73745063D01*
X133943063Y-73889226D01*
X133829795Y-74058744D01*
X133751774Y-74247102D01*
X133712000Y-74447061D01*
X114744079Y-74447061D01*
X114787226Y-74342898D01*
X114827000Y-74142939D01*
X114827000Y-73939061D01*
X114787226Y-73739102D01*
X114709205Y-73550744D01*
X114595937Y-73381226D01*
X114451774Y-73237063D01*
X114282256Y-73123795D01*
X114093898Y-73045774D01*
X113893939Y-73006000D01*
X113690061Y-73006000D01*
X113490102Y-73045774D01*
X113301744Y-73123795D01*
X113132226Y-73237063D01*
X112988063Y-73381226D01*
X112874795Y-73550744D01*
X112796774Y-73739102D01*
X112757000Y-73939061D01*
X111314391Y-73939061D01*
X111320417Y-73820479D01*
X111278697Y-73535926D01*
X111182265Y-73264980D01*
X111112073Y-73133663D01*
X110865551Y-73059054D01*
X110034605Y-73890000D01*
X109675395Y-73890000D01*
X108844449Y-73059054D01*
X108640190Y-73120872D01*
X108718893Y-72930866D01*
X108775000Y-72648797D01*
X108775000Y-72528718D01*
X108785820Y-72534502D01*
X108905518Y-72570812D01*
X109030000Y-72583072D01*
X109191933Y-72583072D01*
X109098663Y-72632927D01*
X109024054Y-72879449D01*
X109855000Y-73710395D01*
X110685946Y-72879449D01*
X110611337Y-72632927D01*
X110506385Y-72583072D01*
X110680000Y-72583072D01*
X110804482Y-72570812D01*
X110924180Y-72534502D01*
X111034494Y-72475537D01*
X111131185Y-72396185D01*
X111210537Y-72299494D01*
X111269502Y-72189180D01*
X111305812Y-72069482D01*
X111318072Y-71945000D01*
X111318072Y-70295000D01*
X111305812Y-70170518D01*
X111269502Y-70050820D01*
X111210537Y-69940506D01*
X111187495Y-69912429D01*
X167300000Y-69912429D01*
X167300000Y-70229571D01*
X167361871Y-70540620D01*
X167483237Y-70833621D01*
X167659431Y-71097315D01*
X167883685Y-71321569D01*
X168147379Y-71497763D01*
X168440380Y-71619129D01*
X168751429Y-71681000D01*
X169068571Y-71681000D01*
X169379620Y-71619129D01*
X169672621Y-71497763D01*
X169936315Y-71321569D01*
X170160569Y-71097315D01*
X170336763Y-70833621D01*
X170458129Y-70540620D01*
X170520000Y-70229571D01*
X170520000Y-69912429D01*
X170458129Y-69601380D01*
X170336763Y-69308379D01*
X170160569Y-69044685D01*
X169936315Y-68820431D01*
X169672621Y-68644237D01*
X169379620Y-68522871D01*
X169068571Y-68461000D01*
X168751429Y-68461000D01*
X168440380Y-68522871D01*
X168147379Y-68644237D01*
X167883685Y-68820431D01*
X167659431Y-69044685D01*
X167483237Y-69308379D01*
X167361871Y-69601380D01*
X167300000Y-69912429D01*
X111187495Y-69912429D01*
X111131185Y-69843815D01*
X111034494Y-69764463D01*
X110924180Y-69705498D01*
X110804482Y-69669188D01*
X110680000Y-69656928D01*
X109030000Y-69656928D01*
X108905518Y-69669188D01*
X108785820Y-69705498D01*
X108675506Y-69764463D01*
X108578815Y-69843815D01*
X108499463Y-69940506D01*
X108440498Y-70050820D01*
X108404188Y-70170518D01*
X108391928Y-70295000D01*
X108391928Y-71517176D01*
X108245696Y-71370944D01*
X108006569Y-71211165D01*
X107740866Y-71101107D01*
X107458797Y-71045000D01*
X107171203Y-71045000D01*
X106889134Y-71101107D01*
X106623431Y-71211165D01*
X106384304Y-71370944D01*
X106180944Y-71574304D01*
X106021165Y-71813431D01*
X105911107Y-72079134D01*
X105855000Y-72361203D01*
X97561000Y-72361203D01*
X97561000Y-64001079D01*
X105550000Y-64001079D01*
X105550000Y-64598921D01*
X105666633Y-65185277D01*
X105895418Y-65737612D01*
X106227562Y-66234700D01*
X106650300Y-66657438D01*
X107147388Y-66989582D01*
X107699723Y-67218367D01*
X108286079Y-67335000D01*
X108883921Y-67335000D01*
X109470277Y-67218367D01*
X110022612Y-66989582D01*
X110519700Y-66657438D01*
X110942438Y-66234700D01*
X111055787Y-66065061D01*
X112884000Y-66065061D01*
X112884000Y-66268939D01*
X112923774Y-66468898D01*
X113001795Y-66657256D01*
X113115063Y-66826774D01*
X113259226Y-66970937D01*
X113428744Y-67084205D01*
X113617102Y-67162226D01*
X113817061Y-67202000D01*
X114020939Y-67202000D01*
X114220898Y-67162226D01*
X114409256Y-67084205D01*
X114578774Y-66970937D01*
X114722937Y-66826774D01*
X114836205Y-66657256D01*
X114914226Y-66468898D01*
X114954000Y-66268939D01*
X114954000Y-66065061D01*
X114914226Y-65865102D01*
X114891842Y-65811061D01*
X133712000Y-65811061D01*
X133712000Y-66014939D01*
X133751774Y-66214898D01*
X133829795Y-66403256D01*
X133943063Y-66572774D01*
X134087226Y-66716937D01*
X134256744Y-66830205D01*
X134445102Y-66908226D01*
X134645061Y-66948000D01*
X134848939Y-66948000D01*
X135048898Y-66908226D01*
X135237256Y-66830205D01*
X135406774Y-66716937D01*
X135550937Y-66572774D01*
X135664205Y-66403256D01*
X135742226Y-66214898D01*
X135782000Y-66014939D01*
X135782000Y-65811061D01*
X135742226Y-65611102D01*
X135664205Y-65422744D01*
X135550937Y-65253226D01*
X135406774Y-65109063D01*
X135237256Y-64995795D01*
X135048898Y-64917774D01*
X134848939Y-64878000D01*
X134645061Y-64878000D01*
X134445102Y-64917774D01*
X134256744Y-64995795D01*
X134087226Y-65109063D01*
X133943063Y-65253226D01*
X133829795Y-65422744D01*
X133751774Y-65611102D01*
X133712000Y-65811061D01*
X114891842Y-65811061D01*
X114836205Y-65676744D01*
X114722937Y-65507226D01*
X114578774Y-65363063D01*
X114409256Y-65249795D01*
X114220898Y-65171774D01*
X114020939Y-65132000D01*
X113817061Y-65132000D01*
X113617102Y-65171774D01*
X113428744Y-65249795D01*
X113259226Y-65363063D01*
X113115063Y-65507226D01*
X113001795Y-65676744D01*
X112923774Y-65865102D01*
X112884000Y-66065061D01*
X111055787Y-66065061D01*
X111274582Y-65737612D01*
X111503367Y-65185277D01*
X111592739Y-64735967D01*
X138305000Y-64735967D01*
X138305000Y-65058033D01*
X138367832Y-65373912D01*
X138491082Y-65671463D01*
X138670013Y-65939252D01*
X138897748Y-66166987D01*
X139165537Y-66345918D01*
X139463088Y-66469168D01*
X139778967Y-66532000D01*
X140101033Y-66532000D01*
X140416912Y-66469168D01*
X140714463Y-66345918D01*
X140982252Y-66166987D01*
X141209987Y-65939252D01*
X141388918Y-65671463D01*
X141512168Y-65373912D01*
X141575000Y-65058033D01*
X141575000Y-64735967D01*
X141512168Y-64420088D01*
X141388918Y-64122537D01*
X141238219Y-63897000D01*
X153301928Y-63897000D01*
X153301928Y-65897000D01*
X153314188Y-66021482D01*
X153350498Y-66141180D01*
X153409463Y-66251494D01*
X153488815Y-66348185D01*
X153585506Y-66427537D01*
X153695820Y-66486502D01*
X153815518Y-66522812D01*
X153940000Y-66535072D01*
X155940000Y-66535072D01*
X156064482Y-66522812D01*
X156184180Y-66486502D01*
X156294494Y-66427537D01*
X156391185Y-66348185D01*
X156470537Y-66251494D01*
X156529502Y-66141180D01*
X156565812Y-66021482D01*
X156578072Y-65897000D01*
X156578072Y-64912429D01*
X167300000Y-64912429D01*
X167300000Y-65229571D01*
X167361871Y-65540620D01*
X167483237Y-65833621D01*
X167659431Y-66097315D01*
X167883685Y-66321569D01*
X168147379Y-66497763D01*
X168440380Y-66619129D01*
X168751429Y-66681000D01*
X169068571Y-66681000D01*
X169379620Y-66619129D01*
X169672621Y-66497763D01*
X169936315Y-66321569D01*
X170160569Y-66097315D01*
X170336763Y-65833621D01*
X170458129Y-65540620D01*
X170520000Y-65229571D01*
X170520000Y-64912429D01*
X170458129Y-64601380D01*
X170336763Y-64308379D01*
X170160569Y-64044685D01*
X169936315Y-63820431D01*
X169672621Y-63644237D01*
X169379620Y-63522871D01*
X169068571Y-63461000D01*
X168751429Y-63461000D01*
X168440380Y-63522871D01*
X168147379Y-63644237D01*
X167883685Y-63820431D01*
X167659431Y-64044685D01*
X167483237Y-64308379D01*
X167361871Y-64601380D01*
X167300000Y-64912429D01*
X156578072Y-64912429D01*
X156578072Y-63897000D01*
X156565812Y-63772518D01*
X156529502Y-63652820D01*
X156470537Y-63542506D01*
X156391185Y-63445815D01*
X156294494Y-63366463D01*
X156184180Y-63307498D01*
X156064482Y-63271188D01*
X155940000Y-63258928D01*
X153940000Y-63258928D01*
X153815518Y-63271188D01*
X153695820Y-63307498D01*
X153585506Y-63366463D01*
X153488815Y-63445815D01*
X153409463Y-63542506D01*
X153350498Y-63652820D01*
X153314188Y-63772518D01*
X153301928Y-63897000D01*
X141238219Y-63897000D01*
X141209987Y-63854748D01*
X140982252Y-63627013D01*
X140714463Y-63448082D01*
X140416912Y-63324832D01*
X140101033Y-63262000D01*
X139778967Y-63262000D01*
X139463088Y-63324832D01*
X139165537Y-63448082D01*
X138897748Y-63627013D01*
X138670013Y-63854748D01*
X138491082Y-64122537D01*
X138367832Y-64420088D01*
X138305000Y-64735967D01*
X111592739Y-64735967D01*
X111620000Y-64598921D01*
X111620000Y-64001079D01*
X111503367Y-63414723D01*
X111274582Y-62862388D01*
X110942438Y-62365300D01*
X110519700Y-61942562D01*
X110022612Y-61610418D01*
X109470277Y-61381633D01*
X108883921Y-61265000D01*
X108286079Y-61265000D01*
X107699723Y-61381633D01*
X107147388Y-61610418D01*
X106650300Y-61942562D01*
X106227562Y-62365300D01*
X105895418Y-62862388D01*
X105666633Y-63414723D01*
X105550000Y-64001079D01*
X97561000Y-64001079D01*
X97561000Y-59912429D01*
X167300000Y-59912429D01*
X167300000Y-60229571D01*
X167361871Y-60540620D01*
X167483237Y-60833621D01*
X167659431Y-61097315D01*
X167883685Y-61321569D01*
X168147379Y-61497763D01*
X168440380Y-61619129D01*
X168751429Y-61681000D01*
X169068571Y-61681000D01*
X169379620Y-61619129D01*
X169672621Y-61497763D01*
X169936315Y-61321569D01*
X170160569Y-61097315D01*
X170336763Y-60833621D01*
X170458129Y-60540620D01*
X170520000Y-60229571D01*
X170520000Y-59912429D01*
X170458129Y-59601380D01*
X170336763Y-59308379D01*
X170160569Y-59044685D01*
X169936315Y-58820431D01*
X169672621Y-58644237D01*
X169379620Y-58522871D01*
X169068571Y-58461000D01*
X168751429Y-58461000D01*
X168440380Y-58522871D01*
X168147379Y-58644237D01*
X167883685Y-58820431D01*
X167659431Y-59044685D01*
X167483237Y-59308379D01*
X167361871Y-59601380D01*
X167300000Y-59912429D01*
X97561000Y-59912429D01*
X97561000Y-53111000D01*
X175489001Y-53111000D01*
X175489000Y-139040000D01*
%TA.AperFunction,Conductor*%
D19*
G36*
X175489000Y-139040000D02*
G01*
X97561000Y-139040000D01*
X97561000Y-131935429D01*
X167427000Y-131935429D01*
X167427000Y-132252571D01*
X167488871Y-132563620D01*
X167610237Y-132856621D01*
X167786431Y-133120315D01*
X168010685Y-133344569D01*
X168274379Y-133520763D01*
X168567380Y-133642129D01*
X168878429Y-133704000D01*
X169195571Y-133704000D01*
X169506620Y-133642129D01*
X169799621Y-133520763D01*
X170063315Y-133344569D01*
X170287569Y-133120315D01*
X170463763Y-132856621D01*
X170585129Y-132563620D01*
X170647000Y-132252571D01*
X170647000Y-131935429D01*
X170585129Y-131624380D01*
X170463763Y-131331379D01*
X170287569Y-131067685D01*
X170063315Y-130843431D01*
X169799621Y-130667237D01*
X169506620Y-130545871D01*
X169195571Y-130484000D01*
X168878429Y-130484000D01*
X168567380Y-130545871D01*
X168274379Y-130667237D01*
X168010685Y-130843431D01*
X167786431Y-131067685D01*
X167610237Y-131331379D01*
X167488871Y-131624380D01*
X167427000Y-131935429D01*
X97561000Y-131935429D01*
X97561000Y-127501079D01*
X105550000Y-127501079D01*
X105550000Y-128098921D01*
X105666633Y-128685277D01*
X105895418Y-129237612D01*
X106227562Y-129734700D01*
X106650300Y-130157438D01*
X107147388Y-130489582D01*
X107699723Y-130718367D01*
X108286079Y-130835000D01*
X108883921Y-130835000D01*
X109470277Y-130718367D01*
X110022612Y-130489582D01*
X110519700Y-130157438D01*
X110942438Y-129734700D01*
X111225504Y-129311061D01*
X113138000Y-129311061D01*
X113138000Y-129514939D01*
X113177774Y-129714898D01*
X113255795Y-129903256D01*
X113369063Y-130072774D01*
X113513226Y-130216937D01*
X113682744Y-130330205D01*
X113871102Y-130408226D01*
X114071061Y-130448000D01*
X114274939Y-130448000D01*
X114474898Y-130408226D01*
X114663256Y-130330205D01*
X114832774Y-130216937D01*
X114976937Y-130072774D01*
X115090205Y-129903256D01*
X115168226Y-129714898D01*
X115208000Y-129514939D01*
X115208000Y-129311061D01*
X115168226Y-129111102D01*
X115093236Y-128930061D01*
X133585000Y-128930061D01*
X133585000Y-129133939D01*
X133624774Y-129333898D01*
X133702795Y-129522256D01*
X133816063Y-129691774D01*
X133960226Y-129835937D01*
X134129744Y-129949205D01*
X134318102Y-130027226D01*
X134518061Y-130067000D01*
X134721939Y-130067000D01*
X134921898Y-130027226D01*
X135110256Y-129949205D01*
X135279774Y-129835937D01*
X135423937Y-129691774D01*
X135537205Y-129522256D01*
X135543952Y-129505967D01*
X138432000Y-129505967D01*
X138432000Y-129828033D01*
X138494832Y-130143912D01*
X138618082Y-130441463D01*
X138797013Y-130709252D01*
X139024748Y-130936987D01*
X139292537Y-131115918D01*
X139590088Y-131239168D01*
X139905967Y-131302000D01*
X140228033Y-131302000D01*
X140543912Y-131239168D01*
X140841463Y-131115918D01*
X141109252Y-130936987D01*
X141336987Y-130709252D01*
X141515918Y-130441463D01*
X141639168Y-130143912D01*
X141702000Y-129828033D01*
X141702000Y-129505967D01*
X141639168Y-129190088D01*
X141515918Y-128892537D01*
X141365219Y-128667000D01*
X153428928Y-128667000D01*
X153428928Y-130667000D01*
X153441188Y-130791482D01*
X153477498Y-130911180D01*
X153536463Y-131021494D01*
X153615815Y-131118185D01*
X153712506Y-131197537D01*
X153822820Y-131256502D01*
X153942518Y-131292812D01*
X154067000Y-131305072D01*
X156067000Y-131305072D01*
X156191482Y-131292812D01*
X156311180Y-131256502D01*
X156421494Y-131197537D01*
X156518185Y-131118185D01*
X156597537Y-131021494D01*
X156656502Y-130911180D01*
X156692812Y-130791482D01*
X156705072Y-130667000D01*
X156705072Y-128667000D01*
X156692812Y-128542518D01*
X156656502Y-128422820D01*
X156597537Y-128312506D01*
X156518185Y-128215815D01*
X156421494Y-128136463D01*
X156311180Y-128077498D01*
X156191482Y-128041188D01*
X156067000Y-128028928D01*
X154067000Y-128028928D01*
X153942518Y-128041188D01*
X153822820Y-128077498D01*
X153712506Y-128136463D01*
X153615815Y-128215815D01*
X153536463Y-128312506D01*
X153477498Y-128422820D01*
X153441188Y-128542518D01*
X153428928Y-128667000D01*
X141365219Y-128667000D01*
X141336987Y-128624748D01*
X141109252Y-128397013D01*
X140841463Y-128218082D01*
X140543912Y-128094832D01*
X140228033Y-128032000D01*
X139905967Y-128032000D01*
X139590088Y-128094832D01*
X139292537Y-128218082D01*
X139024748Y-128397013D01*
X138797013Y-128624748D01*
X138618082Y-128892537D01*
X138494832Y-129190088D01*
X138432000Y-129505967D01*
X135543952Y-129505967D01*
X135615226Y-129333898D01*
X135655000Y-129133939D01*
X135655000Y-128930061D01*
X135615226Y-128730102D01*
X135537205Y-128541744D01*
X135423937Y-128372226D01*
X135279774Y-128228063D01*
X135110256Y-128114795D01*
X134921898Y-128036774D01*
X134721939Y-127997000D01*
X134518061Y-127997000D01*
X134318102Y-128036774D01*
X134129744Y-128114795D01*
X133960226Y-128228063D01*
X133816063Y-128372226D01*
X133702795Y-128541744D01*
X133624774Y-128730102D01*
X133585000Y-128930061D01*
X115093236Y-128930061D01*
X115090205Y-128922744D01*
X114976937Y-128753226D01*
X114832774Y-128609063D01*
X114663256Y-128495795D01*
X114474898Y-128417774D01*
X114274939Y-128378000D01*
X114071061Y-128378000D01*
X113871102Y-128417774D01*
X113682744Y-128495795D01*
X113513226Y-128609063D01*
X113369063Y-128753226D01*
X113255795Y-128922744D01*
X113177774Y-129111102D01*
X113138000Y-129311061D01*
X111225504Y-129311061D01*
X111274582Y-129237612D01*
X111503367Y-128685277D01*
X111620000Y-128098921D01*
X111620000Y-127501079D01*
X111507486Y-126935429D01*
X167427000Y-126935429D01*
X167427000Y-127252571D01*
X167488871Y-127563620D01*
X167610237Y-127856621D01*
X167786431Y-128120315D01*
X168010685Y-128344569D01*
X168274379Y-128520763D01*
X168567380Y-128642129D01*
X168878429Y-128704000D01*
X169195571Y-128704000D01*
X169506620Y-128642129D01*
X169799621Y-128520763D01*
X170063315Y-128344569D01*
X170287569Y-128120315D01*
X170463763Y-127856621D01*
X170585129Y-127563620D01*
X170647000Y-127252571D01*
X170647000Y-126935429D01*
X170585129Y-126624380D01*
X170463763Y-126331379D01*
X170287569Y-126067685D01*
X170063315Y-125843431D01*
X169799621Y-125667237D01*
X169506620Y-125545871D01*
X169195571Y-125484000D01*
X168878429Y-125484000D01*
X168567380Y-125545871D01*
X168274379Y-125667237D01*
X168010685Y-125843431D01*
X167786431Y-126067685D01*
X167610237Y-126331379D01*
X167488871Y-126624380D01*
X167427000Y-126935429D01*
X111507486Y-126935429D01*
X111503367Y-126914723D01*
X111274582Y-126362388D01*
X110942438Y-125865300D01*
X110519700Y-125442562D01*
X110022612Y-125110418D01*
X109470277Y-124881633D01*
X108883921Y-124765000D01*
X108286079Y-124765000D01*
X107699723Y-124881633D01*
X107147388Y-125110418D01*
X106650300Y-125442562D01*
X106227562Y-125865300D01*
X105895418Y-126362388D01*
X105666633Y-126914723D01*
X105550000Y-127501079D01*
X97561000Y-127501079D01*
X97561000Y-72361203D01*
X105855000Y-72361203D01*
X105855000Y-72648797D01*
X105911107Y-72930866D01*
X106021165Y-73196569D01*
X106180944Y-73435696D01*
X106384304Y-73639056D01*
X106623431Y-73798835D01*
X106843522Y-73890000D01*
X106623431Y-73981165D01*
X106384304Y-74140944D01*
X106180944Y-74344304D01*
X106021165Y-74583431D01*
X105911107Y-74849134D01*
X105855000Y-75131203D01*
X105855000Y-75418797D01*
X105911107Y-75700866D01*
X106021165Y-75966569D01*
X106180944Y-76205696D01*
X106384304Y-76409056D01*
X106623431Y-76568835D01*
X106843522Y-76660000D01*
X106623431Y-76751165D01*
X106384304Y-76910944D01*
X106180944Y-77114304D01*
X106021165Y-77353431D01*
X105911107Y-77619134D01*
X105855000Y-77901203D01*
X105855000Y-78188797D01*
X105911107Y-78470866D01*
X106021165Y-78736569D01*
X106180944Y-78975696D01*
X106384304Y-79179056D01*
X106623431Y-79338835D01*
X106843522Y-79430000D01*
X106623431Y-79521165D01*
X106384304Y-79680944D01*
X106180944Y-79884304D01*
X106021165Y-80123431D01*
X105911107Y-80389134D01*
X105855000Y-80671203D01*
X105855000Y-80958797D01*
X105911107Y-81240866D01*
X106021165Y-81506569D01*
X106180944Y-81745696D01*
X106384304Y-81949056D01*
X106623431Y-82108835D01*
X106843522Y-82200000D01*
X106623431Y-82291165D01*
X106384304Y-82450944D01*
X106180944Y-82654304D01*
X106021165Y-82893431D01*
X105911107Y-83159134D01*
X105855000Y-83441203D01*
X105855000Y-83728797D01*
X105911107Y-84010866D01*
X106021165Y-84276569D01*
X106180944Y-84515696D01*
X106384304Y-84719056D01*
X106623431Y-84878835D01*
X106843522Y-84970000D01*
X106623431Y-85061165D01*
X106384304Y-85220944D01*
X106180944Y-85424304D01*
X106021165Y-85663431D01*
X105911107Y-85929134D01*
X105855000Y-86211203D01*
X105855000Y-86498797D01*
X105911107Y-86780866D01*
X106021165Y-87046569D01*
X106180944Y-87285696D01*
X106384304Y-87489056D01*
X106623431Y-87648835D01*
X106843522Y-87740000D01*
X106623431Y-87831165D01*
X106384304Y-87990944D01*
X106180944Y-88194304D01*
X106021165Y-88433431D01*
X105911107Y-88699134D01*
X105855000Y-88981203D01*
X105855000Y-89268797D01*
X105911107Y-89550866D01*
X106021165Y-89816569D01*
X106180944Y-90055696D01*
X106384304Y-90259056D01*
X106623431Y-90418835D01*
X106843522Y-90510000D01*
X106623431Y-90601165D01*
X106384304Y-90760944D01*
X106180944Y-90964304D01*
X106021165Y-91203431D01*
X105911107Y-91469134D01*
X105855000Y-91751203D01*
X105855000Y-92038797D01*
X105911107Y-92320866D01*
X106021165Y-92586569D01*
X106180944Y-92825696D01*
X106384304Y-93029056D01*
X106623431Y-93188835D01*
X106843522Y-93280000D01*
X106623431Y-93371165D01*
X106384304Y-93530944D01*
X106180944Y-93734304D01*
X106021165Y-93973431D01*
X105911107Y-94239134D01*
X105855000Y-94521203D01*
X105855000Y-94808797D01*
X105911107Y-95090866D01*
X106021165Y-95356569D01*
X106180944Y-95595696D01*
X106384304Y-95799056D01*
X106623431Y-95958835D01*
X106843522Y-96050000D01*
X106623431Y-96141165D01*
X106384304Y-96300944D01*
X106180944Y-96504304D01*
X106021165Y-96743431D01*
X105911107Y-97009134D01*
X105855000Y-97291203D01*
X105855000Y-97578797D01*
X105911107Y-97860866D01*
X106021165Y-98126569D01*
X106180944Y-98365696D01*
X106384304Y-98569056D01*
X106623431Y-98728835D01*
X106843522Y-98820000D01*
X106623431Y-98911165D01*
X106384304Y-99070944D01*
X106180944Y-99274304D01*
X106021165Y-99513431D01*
X105911107Y-99779134D01*
X105855000Y-100061203D01*
X105855000Y-100348797D01*
X105911107Y-100630866D01*
X106021165Y-100896569D01*
X106180944Y-101135696D01*
X106384304Y-101339056D01*
X106623431Y-101498835D01*
X106843522Y-101590000D01*
X106623431Y-101681165D01*
X106384304Y-101840944D01*
X106180944Y-102044304D01*
X106021165Y-102283431D01*
X105911107Y-102549134D01*
X105855000Y-102831203D01*
X105855000Y-103118797D01*
X105911107Y-103400866D01*
X106021165Y-103666569D01*
X106180944Y-103905696D01*
X106384304Y-104109056D01*
X106623431Y-104268835D01*
X106843522Y-104360000D01*
X106623431Y-104451165D01*
X106384304Y-104610944D01*
X106180944Y-104814304D01*
X106021165Y-105053431D01*
X105911107Y-105319134D01*
X105855000Y-105601203D01*
X105855000Y-105888797D01*
X105911107Y-106170866D01*
X106021165Y-106436569D01*
X106180944Y-106675696D01*
X106384304Y-106879056D01*
X106623431Y-107038835D01*
X106843522Y-107130000D01*
X106623431Y-107221165D01*
X106384304Y-107380944D01*
X106180944Y-107584304D01*
X106021165Y-107823431D01*
X105911107Y-108089134D01*
X105855000Y-108371203D01*
X105855000Y-108658797D01*
X105911107Y-108940866D01*
X106021165Y-109206569D01*
X106180944Y-109445696D01*
X106384304Y-109649056D01*
X106623431Y-109808835D01*
X106843522Y-109900000D01*
X106623431Y-109991165D01*
X106384304Y-110150944D01*
X106180944Y-110354304D01*
X106021165Y-110593431D01*
X105911107Y-110859134D01*
X105855000Y-111141203D01*
X105855000Y-111428797D01*
X105911107Y-111710866D01*
X106021165Y-111976569D01*
X106180944Y-112215696D01*
X106384304Y-112419056D01*
X106623431Y-112578835D01*
X106843522Y-112670000D01*
X106623431Y-112761165D01*
X106384304Y-112920944D01*
X106180944Y-113124304D01*
X106021165Y-113363431D01*
X105911107Y-113629134D01*
X105855000Y-113911203D01*
X105855000Y-114198797D01*
X105911107Y-114480866D01*
X106021165Y-114746569D01*
X106180944Y-114985696D01*
X106384304Y-115189056D01*
X106623431Y-115348835D01*
X106843522Y-115440000D01*
X106623431Y-115531165D01*
X106384304Y-115690944D01*
X106180944Y-115894304D01*
X106021165Y-116133431D01*
X105911107Y-116399134D01*
X105855000Y-116681203D01*
X105855000Y-116968797D01*
X105911107Y-117250866D01*
X106021165Y-117516569D01*
X106180944Y-117755696D01*
X106384304Y-117959056D01*
X106623431Y-118118835D01*
X106843522Y-118210000D01*
X106623431Y-118301165D01*
X106384304Y-118460944D01*
X106180944Y-118664304D01*
X106021165Y-118903431D01*
X105911107Y-119169134D01*
X105855000Y-119451203D01*
X105855000Y-119738797D01*
X105911107Y-120020866D01*
X106021165Y-120286569D01*
X106180944Y-120525696D01*
X106384304Y-120729056D01*
X106623431Y-120888835D01*
X106889134Y-120998893D01*
X107171203Y-121055000D01*
X107458797Y-121055000D01*
X107740866Y-120998893D01*
X108006569Y-120888835D01*
X108245696Y-120729056D01*
X108449056Y-120525696D01*
X108485444Y-120471237D01*
X108451107Y-120554134D01*
X108395000Y-120836203D01*
X108395000Y-121123797D01*
X108451107Y-121405866D01*
X108561165Y-121671569D01*
X108720944Y-121910696D01*
X108924304Y-122114056D01*
X109163431Y-122273835D01*
X109429134Y-122383893D01*
X109711203Y-122440000D01*
X109998797Y-122440000D01*
X110280866Y-122383893D01*
X110546569Y-122273835D01*
X110785696Y-122114056D01*
X110964323Y-121935429D01*
X167427000Y-121935429D01*
X167427000Y-122252571D01*
X167488871Y-122563620D01*
X167610237Y-122856621D01*
X167786431Y-123120315D01*
X168010685Y-123344569D01*
X168274379Y-123520763D01*
X168567380Y-123642129D01*
X168878429Y-123704000D01*
X169195571Y-123704000D01*
X169506620Y-123642129D01*
X169799621Y-123520763D01*
X170063315Y-123344569D01*
X170287569Y-123120315D01*
X170463763Y-122856621D01*
X170585129Y-122563620D01*
X170647000Y-122252571D01*
X170647000Y-121935429D01*
X170585129Y-121624380D01*
X170463763Y-121331379D01*
X170287569Y-121067685D01*
X170063315Y-120843431D01*
X169799621Y-120667237D01*
X169506620Y-120545871D01*
X169195571Y-120484000D01*
X168878429Y-120484000D01*
X168567380Y-120545871D01*
X168274379Y-120667237D01*
X168010685Y-120843431D01*
X167786431Y-121067685D01*
X167610237Y-121331379D01*
X167488871Y-121624380D01*
X167427000Y-121935429D01*
X110964323Y-121935429D01*
X110989056Y-121910696D01*
X111148835Y-121671569D01*
X111258893Y-121405866D01*
X111315000Y-121123797D01*
X111315000Y-120836203D01*
X111258893Y-120554134D01*
X111148835Y-120288431D01*
X110989056Y-120049304D01*
X110852813Y-119913061D01*
X113011000Y-119913061D01*
X113011000Y-120116939D01*
X113050774Y-120316898D01*
X113128795Y-120505256D01*
X113242063Y-120674774D01*
X113386226Y-120818937D01*
X113555744Y-120932205D01*
X113744102Y-121010226D01*
X113944061Y-121050000D01*
X114147939Y-121050000D01*
X114347898Y-121010226D01*
X114536256Y-120932205D01*
X114705774Y-120818937D01*
X114849937Y-120674774D01*
X114963205Y-120505256D01*
X114998079Y-120421061D01*
X133712000Y-120421061D01*
X133712000Y-120624939D01*
X133751774Y-120824898D01*
X133829795Y-121013256D01*
X133943063Y-121182774D01*
X134087226Y-121326937D01*
X134256744Y-121440205D01*
X134445102Y-121518226D01*
X134645061Y-121558000D01*
X134848939Y-121558000D01*
X135048898Y-121518226D01*
X135237256Y-121440205D01*
X135406774Y-121326937D01*
X135550937Y-121182774D01*
X135664205Y-121013256D01*
X135742226Y-120824898D01*
X135782000Y-120624939D01*
X135782000Y-120421061D01*
X135742226Y-120221102D01*
X135664205Y-120032744D01*
X135550937Y-119863226D01*
X135406774Y-119719063D01*
X135237256Y-119605795D01*
X135048898Y-119527774D01*
X134848939Y-119488000D01*
X134645061Y-119488000D01*
X134445102Y-119527774D01*
X134256744Y-119605795D01*
X134087226Y-119719063D01*
X133943063Y-119863226D01*
X133829795Y-120032744D01*
X133751774Y-120221102D01*
X133712000Y-120421061D01*
X114998079Y-120421061D01*
X115041226Y-120316898D01*
X115081000Y-120116939D01*
X115081000Y-119913061D01*
X115041226Y-119713102D01*
X114963205Y-119524744D01*
X114928609Y-119472967D01*
X138432000Y-119472967D01*
X138432000Y-119795033D01*
X138494832Y-120110912D01*
X138618082Y-120408463D01*
X138797013Y-120676252D01*
X139024748Y-120903987D01*
X139292537Y-121082918D01*
X139590088Y-121206168D01*
X139905967Y-121269000D01*
X140228033Y-121269000D01*
X140543912Y-121206168D01*
X140841463Y-121082918D01*
X141109252Y-120903987D01*
X141336987Y-120676252D01*
X141515918Y-120408463D01*
X141639168Y-120110912D01*
X141702000Y-119795033D01*
X141702000Y-119472967D01*
X141639168Y-119157088D01*
X141515918Y-118859537D01*
X141365219Y-118634000D01*
X153428928Y-118634000D01*
X153428928Y-120634000D01*
X153441188Y-120758482D01*
X153477498Y-120878180D01*
X153536463Y-120988494D01*
X153615815Y-121085185D01*
X153712506Y-121164537D01*
X153822820Y-121223502D01*
X153942518Y-121259812D01*
X154067000Y-121272072D01*
X156067000Y-121272072D01*
X156191482Y-121259812D01*
X156311180Y-121223502D01*
X156421494Y-121164537D01*
X156518185Y-121085185D01*
X156597537Y-120988494D01*
X156656502Y-120878180D01*
X156692812Y-120758482D01*
X156705072Y-120634000D01*
X156705072Y-118634000D01*
X156692812Y-118509518D01*
X156656502Y-118389820D01*
X156597537Y-118279506D01*
X156518185Y-118182815D01*
X156421494Y-118103463D01*
X156311180Y-118044498D01*
X156191482Y-118008188D01*
X156067000Y-117995928D01*
X154067000Y-117995928D01*
X153942518Y-118008188D01*
X153822820Y-118044498D01*
X153712506Y-118103463D01*
X153615815Y-118182815D01*
X153536463Y-118279506D01*
X153477498Y-118389820D01*
X153441188Y-118509518D01*
X153428928Y-118634000D01*
X141365219Y-118634000D01*
X141336987Y-118591748D01*
X141109252Y-118364013D01*
X140841463Y-118185082D01*
X140543912Y-118061832D01*
X140228033Y-117999000D01*
X139905967Y-117999000D01*
X139590088Y-118061832D01*
X139292537Y-118185082D01*
X139024748Y-118364013D01*
X138797013Y-118591748D01*
X138618082Y-118859537D01*
X138494832Y-119157088D01*
X138432000Y-119472967D01*
X114928609Y-119472967D01*
X114849937Y-119355226D01*
X114705774Y-119211063D01*
X114536256Y-119097795D01*
X114347898Y-119019774D01*
X114147939Y-118980000D01*
X113944061Y-118980000D01*
X113744102Y-119019774D01*
X113555744Y-119097795D01*
X113386226Y-119211063D01*
X113242063Y-119355226D01*
X113128795Y-119524744D01*
X113050774Y-119713102D01*
X113011000Y-119913061D01*
X110852813Y-119913061D01*
X110785696Y-119845944D01*
X110546569Y-119686165D01*
X110322468Y-119593339D01*
X110480020Y-119537265D01*
X110611337Y-119467073D01*
X110685946Y-119220551D01*
X109855000Y-118389605D01*
X109024054Y-119220551D01*
X109098663Y-119467073D01*
X109358439Y-119590473D01*
X109380820Y-119596119D01*
X109163431Y-119686165D01*
X108924304Y-119845944D01*
X108720944Y-120049304D01*
X108684556Y-120103763D01*
X108718893Y-120020866D01*
X108775000Y-119738797D01*
X108775000Y-119451203D01*
X108718893Y-119169134D01*
X108640190Y-118979128D01*
X108844449Y-119040946D01*
X109675395Y-118210000D01*
X110034605Y-118210000D01*
X110865551Y-119040946D01*
X111112073Y-118966337D01*
X111235473Y-118706561D01*
X111305823Y-118427703D01*
X111320417Y-118140479D01*
X111278697Y-117855926D01*
X111182265Y-117584980D01*
X111112073Y-117453663D01*
X110865551Y-117379054D01*
X110034605Y-118210000D01*
X109675395Y-118210000D01*
X108844449Y-117379054D01*
X108640190Y-117440872D01*
X108718893Y-117250866D01*
X108775000Y-116968797D01*
X108775000Y-116681203D01*
X108718893Y-116399134D01*
X108684556Y-116316237D01*
X108720944Y-116370696D01*
X108924304Y-116574056D01*
X109163431Y-116733835D01*
X109387532Y-116826661D01*
X109229980Y-116882735D01*
X109098663Y-116952927D01*
X109024054Y-117199449D01*
X109855000Y-118030395D01*
X110685946Y-117199449D01*
X110611337Y-116952927D01*
X110574502Y-116935429D01*
X167427000Y-116935429D01*
X167427000Y-117252571D01*
X167488871Y-117563620D01*
X167610237Y-117856621D01*
X167786431Y-118120315D01*
X168010685Y-118344569D01*
X168274379Y-118520763D01*
X168567380Y-118642129D01*
X168878429Y-118704000D01*
X169195571Y-118704000D01*
X169506620Y-118642129D01*
X169799621Y-118520763D01*
X170063315Y-118344569D01*
X170287569Y-118120315D01*
X170463763Y-117856621D01*
X170585129Y-117563620D01*
X170647000Y-117252571D01*
X170647000Y-116935429D01*
X170585129Y-116624380D01*
X170463763Y-116331379D01*
X170287569Y-116067685D01*
X170063315Y-115843431D01*
X169799621Y-115667237D01*
X169506620Y-115545871D01*
X169195571Y-115484000D01*
X168878429Y-115484000D01*
X168567380Y-115545871D01*
X168274379Y-115667237D01*
X168010685Y-115843431D01*
X167786431Y-116067685D01*
X167610237Y-116331379D01*
X167488871Y-116624380D01*
X167427000Y-116935429D01*
X110574502Y-116935429D01*
X110351561Y-116829527D01*
X110329180Y-116823881D01*
X110546569Y-116733835D01*
X110785696Y-116574056D01*
X110989056Y-116370696D01*
X111148835Y-116131569D01*
X111258893Y-115865866D01*
X111315000Y-115583797D01*
X111315000Y-115296203D01*
X111258893Y-115014134D01*
X111148835Y-114748431D01*
X110989056Y-114509304D01*
X110804813Y-114325061D01*
X156572000Y-114325061D01*
X156572000Y-114528939D01*
X156611774Y-114728898D01*
X156689795Y-114917256D01*
X156803063Y-115086774D01*
X156947226Y-115230937D01*
X157116744Y-115344205D01*
X157305102Y-115422226D01*
X157505061Y-115462000D01*
X157708939Y-115462000D01*
X157908898Y-115422226D01*
X158097256Y-115344205D01*
X158266774Y-115230937D01*
X158410937Y-115086774D01*
X158524205Y-114917256D01*
X158602226Y-114728898D01*
X158642000Y-114528939D01*
X158642000Y-114325061D01*
X158602226Y-114125102D01*
X158524205Y-113936744D01*
X158410937Y-113767226D01*
X158266774Y-113623063D01*
X158097256Y-113509795D01*
X157908898Y-113431774D01*
X157708939Y-113392000D01*
X157505061Y-113392000D01*
X157305102Y-113431774D01*
X157116744Y-113509795D01*
X156947226Y-113623063D01*
X156803063Y-113767226D01*
X156689795Y-113936744D01*
X156611774Y-114125102D01*
X156572000Y-114325061D01*
X110804813Y-114325061D01*
X110785696Y-114305944D01*
X110546569Y-114146165D01*
X110326478Y-114055000D01*
X110546569Y-113963835D01*
X110785696Y-113804056D01*
X110989056Y-113600696D01*
X111148835Y-113361569D01*
X111258893Y-113095866D01*
X111315000Y-112813797D01*
X111315000Y-112526203D01*
X111258893Y-112244134D01*
X111148835Y-111978431D01*
X110989056Y-111739304D01*
X110785696Y-111535944D01*
X110546569Y-111376165D01*
X110326478Y-111285000D01*
X110546569Y-111193835D01*
X110785696Y-111034056D01*
X110989056Y-110830696D01*
X111148835Y-110591569D01*
X111258893Y-110325866D01*
X111315000Y-110043797D01*
X111315000Y-109756203D01*
X111282257Y-109591589D01*
X118456000Y-109591589D01*
X118456000Y-109864411D01*
X118509225Y-110131989D01*
X118613629Y-110384043D01*
X118765201Y-110610886D01*
X118958114Y-110803799D01*
X119184957Y-110955371D01*
X119437011Y-111059775D01*
X119704589Y-111113000D01*
X119977411Y-111113000D01*
X120244989Y-111059775D01*
X120497043Y-110955371D01*
X120723886Y-110803799D01*
X120916799Y-110610886D01*
X121068371Y-110384043D01*
X121172775Y-110131989D01*
X121226000Y-109864411D01*
X121226000Y-109591589D01*
X123456000Y-109591589D01*
X123456000Y-109864411D01*
X123509225Y-110131989D01*
X123613629Y-110384043D01*
X123765201Y-110610886D01*
X123958114Y-110803799D01*
X124184957Y-110955371D01*
X124437011Y-111059775D01*
X124704589Y-111113000D01*
X124977411Y-111113000D01*
X125244989Y-111059775D01*
X125497043Y-110955371D01*
X125723886Y-110803799D01*
X125916799Y-110610886D01*
X126068371Y-110384043D01*
X126172775Y-110131989D01*
X126226000Y-109864411D01*
X126226000Y-109591589D01*
X126172775Y-109324011D01*
X126068371Y-109071957D01*
X125916799Y-108845114D01*
X125723886Y-108652201D01*
X125497043Y-108500629D01*
X125244989Y-108396225D01*
X124977411Y-108343000D01*
X124704589Y-108343000D01*
X124437011Y-108396225D01*
X124184957Y-108500629D01*
X123958114Y-108652201D01*
X123765201Y-108845114D01*
X123613629Y-109071957D01*
X123509225Y-109324011D01*
X123456000Y-109591589D01*
X121226000Y-109591589D01*
X121172775Y-109324011D01*
X121068371Y-109071957D01*
X120916799Y-108845114D01*
X120723886Y-108652201D01*
X120497043Y-108500629D01*
X120244989Y-108396225D01*
X119977411Y-108343000D01*
X119704589Y-108343000D01*
X119437011Y-108396225D01*
X119184957Y-108500629D01*
X118958114Y-108652201D01*
X118765201Y-108845114D01*
X118613629Y-109071957D01*
X118509225Y-109324011D01*
X118456000Y-109591589D01*
X111282257Y-109591589D01*
X111258893Y-109474134D01*
X111148835Y-109208431D01*
X110989056Y-108969304D01*
X110785696Y-108765944D01*
X110546569Y-108606165D01*
X110326478Y-108515000D01*
X110546569Y-108423835D01*
X110785696Y-108264056D01*
X110989056Y-108060696D01*
X111148835Y-107821569D01*
X111258893Y-107555866D01*
X111315000Y-107273797D01*
X111315000Y-106986203D01*
X111258893Y-106704134D01*
X111148835Y-106438431D01*
X110989056Y-106199304D01*
X110785696Y-105995944D01*
X110546569Y-105836165D01*
X110326478Y-105745000D01*
X110546569Y-105653835D01*
X110785696Y-105494056D01*
X110989056Y-105290696D01*
X111148835Y-105051569D01*
X111258893Y-104785866D01*
X111315000Y-104503797D01*
X111315000Y-104216203D01*
X111258893Y-103934134D01*
X111148835Y-103668431D01*
X110989056Y-103429304D01*
X110785696Y-103225944D01*
X110546569Y-103066165D01*
X110326478Y-102975000D01*
X110546569Y-102883835D01*
X110785696Y-102724056D01*
X110989056Y-102520696D01*
X111148835Y-102281569D01*
X111258893Y-102015866D01*
X111315000Y-101733797D01*
X111315000Y-101446203D01*
X111258893Y-101164134D01*
X111148835Y-100898431D01*
X110989056Y-100659304D01*
X110785696Y-100455944D01*
X110546569Y-100296165D01*
X110326478Y-100205000D01*
X110546569Y-100113835D01*
X110785696Y-99954056D01*
X110989056Y-99750696D01*
X111148835Y-99511569D01*
X111258893Y-99245866D01*
X111315000Y-98963797D01*
X111315000Y-98676203D01*
X111258893Y-98394134D01*
X111148835Y-98128431D01*
X110989056Y-97889304D01*
X110785696Y-97685944D01*
X110546569Y-97526165D01*
X110326478Y-97435000D01*
X110546569Y-97343835D01*
X110785696Y-97184056D01*
X110989056Y-96980696D01*
X111148835Y-96741569D01*
X111258893Y-96475866D01*
X111315000Y-96193797D01*
X111315000Y-95906203D01*
X111258893Y-95624134D01*
X111148835Y-95358431D01*
X111132132Y-95333433D01*
X125706671Y-95333433D01*
X125706671Y-96436567D01*
X125879239Y-97526121D01*
X126220127Y-98575265D01*
X126720940Y-99558165D01*
X127369346Y-100450620D01*
X128149380Y-101230654D01*
X129041835Y-101879060D01*
X130024735Y-102379873D01*
X131073879Y-102720761D01*
X132163433Y-102893329D01*
X133266567Y-102893329D01*
X134356121Y-102720761D01*
X135405265Y-102379873D01*
X136388165Y-101879060D01*
X137280620Y-101230654D01*
X138060654Y-100450620D01*
X138709060Y-99558165D01*
X139209873Y-98575265D01*
X139550761Y-97526121D01*
X139723329Y-96436567D01*
X139723329Y-95333433D01*
X139550761Y-94243879D01*
X139349370Y-93624061D01*
X164446000Y-93624061D01*
X164446000Y-93827939D01*
X164485774Y-94027898D01*
X164563795Y-94216256D01*
X164660510Y-94361000D01*
X164563795Y-94505744D01*
X164485774Y-94694102D01*
X164446000Y-94894061D01*
X164446000Y-95097939D01*
X164485774Y-95297898D01*
X164563795Y-95486256D01*
X164660510Y-95631000D01*
X164563795Y-95775744D01*
X164485774Y-95964102D01*
X164446000Y-96164061D01*
X164446000Y-96367939D01*
X164485774Y-96567898D01*
X164563795Y-96756256D01*
X164660510Y-96901000D01*
X164563795Y-97045744D01*
X164485774Y-97234102D01*
X164446000Y-97434061D01*
X164446000Y-97637939D01*
X164485774Y-97837898D01*
X164563795Y-98026256D01*
X164660510Y-98171000D01*
X164563795Y-98315744D01*
X164485774Y-98504102D01*
X164446000Y-98704061D01*
X164446000Y-98907939D01*
X164485774Y-99107898D01*
X164563795Y-99296256D01*
X164660510Y-99441000D01*
X164563795Y-99585744D01*
X164485774Y-99774102D01*
X164446000Y-99974061D01*
X164446000Y-100177939D01*
X164485774Y-100377898D01*
X164563795Y-100566256D01*
X164677063Y-100735774D01*
X164715789Y-100774500D01*
X164677063Y-100813226D01*
X164563795Y-100982744D01*
X164485774Y-101171102D01*
X164446000Y-101371061D01*
X164446000Y-101574939D01*
X164485774Y-101774898D01*
X164563795Y-101963256D01*
X164677063Y-102132774D01*
X164779289Y-102235000D01*
X164677063Y-102337226D01*
X164563795Y-102506744D01*
X164485774Y-102695102D01*
X164446000Y-102895061D01*
X164446000Y-103098939D01*
X164485774Y-103298898D01*
X164563795Y-103487256D01*
X164677063Y-103656774D01*
X164821226Y-103800937D01*
X164990744Y-103914205D01*
X165179102Y-103992226D01*
X165379061Y-104032000D01*
X165582939Y-104032000D01*
X165782898Y-103992226D01*
X165971256Y-103914205D01*
X166140774Y-103800937D01*
X166284937Y-103656774D01*
X166398205Y-103487256D01*
X166476226Y-103298898D01*
X166516000Y-103098939D01*
X166516000Y-102895061D01*
X166476226Y-102695102D01*
X166398205Y-102506744D01*
X166284937Y-102337226D01*
X166182711Y-102235000D01*
X166284937Y-102132774D01*
X166398205Y-101963256D01*
X166476226Y-101774898D01*
X166516000Y-101574939D01*
X166516000Y-101371061D01*
X166476226Y-101171102D01*
X166398205Y-100982744D01*
X166284937Y-100813226D01*
X166246211Y-100774500D01*
X166284937Y-100735774D01*
X166398205Y-100566256D01*
X166476226Y-100377898D01*
X166516000Y-100177939D01*
X166516000Y-99974061D01*
X166476226Y-99774102D01*
X166398205Y-99585744D01*
X166301490Y-99441000D01*
X166398205Y-99296256D01*
X166476226Y-99107898D01*
X166516000Y-98907939D01*
X166516000Y-98704061D01*
X166476226Y-98504102D01*
X166398205Y-98315744D01*
X166301490Y-98171000D01*
X166398205Y-98026256D01*
X166476226Y-97837898D01*
X166516000Y-97637939D01*
X166516000Y-97434061D01*
X166476226Y-97234102D01*
X166398205Y-97045744D01*
X166301490Y-96901000D01*
X166398205Y-96756256D01*
X166476226Y-96567898D01*
X166516000Y-96367939D01*
X166516000Y-96164061D01*
X166476226Y-95964102D01*
X166398205Y-95775744D01*
X166301490Y-95631000D01*
X166398205Y-95486256D01*
X166476226Y-95297898D01*
X166516000Y-95097939D01*
X166516000Y-94894061D01*
X166476226Y-94694102D01*
X166398205Y-94505744D01*
X166301490Y-94361000D01*
X166398205Y-94216256D01*
X166476226Y-94027898D01*
X166480768Y-94005061D01*
X170161000Y-94005061D01*
X170161000Y-94208939D01*
X170200774Y-94408898D01*
X170278795Y-94597256D01*
X170392063Y-94766774D01*
X170536226Y-94910937D01*
X170705744Y-95024205D01*
X170894102Y-95102226D01*
X171094061Y-95142000D01*
X171297939Y-95142000D01*
X171497898Y-95102226D01*
X171686256Y-95024205D01*
X171855774Y-94910937D01*
X171999937Y-94766774D01*
X172113205Y-94597256D01*
X172191226Y-94408898D01*
X172231000Y-94208939D01*
X172231000Y-94005061D01*
X172191226Y-93805102D01*
X172113205Y-93616744D01*
X171999937Y-93447226D01*
X171855774Y-93303063D01*
X171686256Y-93189795D01*
X171497898Y-93111774D01*
X171297939Y-93072000D01*
X171094061Y-93072000D01*
X170894102Y-93111774D01*
X170705744Y-93189795D01*
X170536226Y-93303063D01*
X170392063Y-93447226D01*
X170278795Y-93616744D01*
X170200774Y-93805102D01*
X170161000Y-94005061D01*
X166480768Y-94005061D01*
X166516000Y-93827939D01*
X166516000Y-93624061D01*
X166476226Y-93424102D01*
X166398205Y-93235744D01*
X166284937Y-93066226D01*
X166140774Y-92922063D01*
X165971256Y-92808795D01*
X165782898Y-92730774D01*
X165582939Y-92691000D01*
X165379061Y-92691000D01*
X165179102Y-92730774D01*
X164990744Y-92808795D01*
X164821226Y-92922063D01*
X164677063Y-93066226D01*
X164563795Y-93235744D01*
X164485774Y-93424102D01*
X164446000Y-93624061D01*
X139349370Y-93624061D01*
X139209873Y-93194735D01*
X138709060Y-92211835D01*
X138060654Y-91319380D01*
X137280620Y-90539346D01*
X136388165Y-89890940D01*
X135405265Y-89390127D01*
X134356121Y-89049239D01*
X133266567Y-88876671D01*
X132163433Y-88876671D01*
X131073879Y-89049239D01*
X130024735Y-89390127D01*
X129041835Y-89890940D01*
X128149380Y-90539346D01*
X127369346Y-91319380D01*
X126720940Y-92211835D01*
X126220127Y-93194735D01*
X125879239Y-94243879D01*
X125706671Y-95333433D01*
X111132132Y-95333433D01*
X110989056Y-95119304D01*
X110785696Y-94915944D01*
X110546569Y-94756165D01*
X110326478Y-94665000D01*
X110546569Y-94573835D01*
X110785696Y-94414056D01*
X110989056Y-94210696D01*
X111148835Y-93971569D01*
X111258893Y-93705866D01*
X111315000Y-93423797D01*
X111315000Y-93136203D01*
X111258893Y-92854134D01*
X111148835Y-92588431D01*
X110989056Y-92349304D01*
X110785696Y-92145944D01*
X110546569Y-91986165D01*
X110326478Y-91895000D01*
X110546569Y-91803835D01*
X110785696Y-91644056D01*
X110989056Y-91440696D01*
X111148835Y-91201569D01*
X111258893Y-90935866D01*
X111315000Y-90653797D01*
X111315000Y-90366203D01*
X111258893Y-90084134D01*
X111148835Y-89818431D01*
X110989056Y-89579304D01*
X110785696Y-89375944D01*
X110546569Y-89216165D01*
X110326478Y-89125000D01*
X110546569Y-89033835D01*
X110785696Y-88874056D01*
X110989056Y-88670696D01*
X111148835Y-88431569D01*
X111258893Y-88165866D01*
X111315000Y-87883797D01*
X111315000Y-87596203D01*
X111258893Y-87314134D01*
X111148835Y-87048431D01*
X110989056Y-86809304D01*
X110785696Y-86605944D01*
X110546569Y-86446165D01*
X110399052Y-86385061D01*
X114535000Y-86385061D01*
X114535000Y-86588939D01*
X114574774Y-86788898D01*
X114652795Y-86977256D01*
X114766063Y-87146774D01*
X114910226Y-87290937D01*
X115079744Y-87404205D01*
X115268102Y-87482226D01*
X115468061Y-87522000D01*
X115671939Y-87522000D01*
X115871898Y-87482226D01*
X116060256Y-87404205D01*
X116229774Y-87290937D01*
X116373937Y-87146774D01*
X116487205Y-86977256D01*
X116565226Y-86788898D01*
X116605000Y-86588939D01*
X116605000Y-86385061D01*
X116565226Y-86185102D01*
X116487205Y-85996744D01*
X116373937Y-85827226D01*
X116229774Y-85683063D01*
X116060256Y-85569795D01*
X115871898Y-85491774D01*
X115671939Y-85452000D01*
X115468061Y-85452000D01*
X115268102Y-85491774D01*
X115079744Y-85569795D01*
X114910226Y-85683063D01*
X114766063Y-85827226D01*
X114652795Y-85996744D01*
X114574774Y-86185102D01*
X114535000Y-86385061D01*
X110399052Y-86385061D01*
X110326478Y-86355000D01*
X110546569Y-86263835D01*
X110785696Y-86104056D01*
X110989056Y-85900696D01*
X111148835Y-85661569D01*
X111258893Y-85395866D01*
X111315000Y-85113797D01*
X111315000Y-84826203D01*
X111271410Y-84607061D01*
X152762000Y-84607061D01*
X152762000Y-84810939D01*
X152801774Y-85010898D01*
X152879795Y-85199256D01*
X152993063Y-85368774D01*
X153137226Y-85512937D01*
X153306744Y-85626205D01*
X153495102Y-85704226D01*
X153695061Y-85744000D01*
X153898939Y-85744000D01*
X154098898Y-85704226D01*
X154287256Y-85626205D01*
X154456774Y-85512937D01*
X154600937Y-85368774D01*
X154622500Y-85336503D01*
X154644063Y-85368774D01*
X154788226Y-85512937D01*
X154957744Y-85626205D01*
X155146102Y-85704226D01*
X155346061Y-85744000D01*
X155549939Y-85744000D01*
X155749898Y-85704226D01*
X155938256Y-85626205D01*
X156083000Y-85529490D01*
X156227744Y-85626205D01*
X156416102Y-85704226D01*
X156616061Y-85744000D01*
X156819939Y-85744000D01*
X157019898Y-85704226D01*
X157208256Y-85626205D01*
X157377774Y-85512937D01*
X157521937Y-85368774D01*
X157543500Y-85336503D01*
X157565063Y-85368774D01*
X157709226Y-85512937D01*
X157878744Y-85626205D01*
X158067102Y-85704226D01*
X158267061Y-85744000D01*
X158470939Y-85744000D01*
X158670898Y-85704226D01*
X158859256Y-85626205D01*
X159028774Y-85512937D01*
X159067500Y-85474211D01*
X159106226Y-85512937D01*
X159275744Y-85626205D01*
X159464102Y-85704226D01*
X159664061Y-85744000D01*
X159867939Y-85744000D01*
X160067898Y-85704226D01*
X160256256Y-85626205D01*
X160425774Y-85512937D01*
X160569937Y-85368774D01*
X160683205Y-85199256D01*
X160761226Y-85010898D01*
X160801000Y-84810939D01*
X160801000Y-84607061D01*
X160761226Y-84407102D01*
X160683205Y-84218744D01*
X160569937Y-84049226D01*
X160425774Y-83905063D01*
X160256256Y-83791795D01*
X160067898Y-83713774D01*
X159867939Y-83674000D01*
X159664061Y-83674000D01*
X159464102Y-83713774D01*
X159275744Y-83791795D01*
X159106226Y-83905063D01*
X159067500Y-83943789D01*
X159028774Y-83905063D01*
X158859256Y-83791795D01*
X158670898Y-83713774D01*
X158470939Y-83674000D01*
X158267061Y-83674000D01*
X158067102Y-83713774D01*
X157878744Y-83791795D01*
X157709226Y-83905063D01*
X157565063Y-84049226D01*
X157543500Y-84081497D01*
X157521937Y-84049226D01*
X157377774Y-83905063D01*
X157208256Y-83791795D01*
X157019898Y-83713774D01*
X156819939Y-83674000D01*
X156616061Y-83674000D01*
X156416102Y-83713774D01*
X156227744Y-83791795D01*
X156083000Y-83888510D01*
X155938256Y-83791795D01*
X155749898Y-83713774D01*
X155549939Y-83674000D01*
X155346061Y-83674000D01*
X155146102Y-83713774D01*
X154957744Y-83791795D01*
X154788226Y-83905063D01*
X154644063Y-84049226D01*
X154622500Y-84081497D01*
X154600937Y-84049226D01*
X154456774Y-83905063D01*
X154287256Y-83791795D01*
X154098898Y-83713774D01*
X153898939Y-83674000D01*
X153695061Y-83674000D01*
X153495102Y-83713774D01*
X153306744Y-83791795D01*
X153137226Y-83905063D01*
X152993063Y-84049226D01*
X152879795Y-84218744D01*
X152801774Y-84407102D01*
X152762000Y-84607061D01*
X111271410Y-84607061D01*
X111258893Y-84544134D01*
X111148835Y-84278431D01*
X110989056Y-84039304D01*
X110785696Y-83835944D01*
X110546569Y-83676165D01*
X110326478Y-83585000D01*
X110546569Y-83493835D01*
X110785696Y-83334056D01*
X110989056Y-83130696D01*
X111148835Y-82891569D01*
X111258893Y-82625866D01*
X111268998Y-82575061D01*
X140443000Y-82575061D01*
X140443000Y-82778939D01*
X140482774Y-82978898D01*
X140560795Y-83167256D01*
X140674063Y-83336774D01*
X140818226Y-83480937D01*
X140987744Y-83594205D01*
X141176102Y-83672226D01*
X141376061Y-83712000D01*
X141579939Y-83712000D01*
X141779898Y-83672226D01*
X141968256Y-83594205D01*
X142137774Y-83480937D01*
X142281937Y-83336774D01*
X142395205Y-83167256D01*
X142473226Y-82978898D01*
X142513000Y-82778939D01*
X142513000Y-82575061D01*
X142473226Y-82375102D01*
X142395205Y-82186744D01*
X142281937Y-82017226D01*
X142137774Y-81873063D01*
X141968256Y-81759795D01*
X141779898Y-81681774D01*
X141579939Y-81642000D01*
X141376061Y-81642000D01*
X141176102Y-81681774D01*
X140987744Y-81759795D01*
X140818226Y-81873063D01*
X140674063Y-82017226D01*
X140560795Y-82186744D01*
X140482774Y-82375102D01*
X140443000Y-82575061D01*
X111268998Y-82575061D01*
X111315000Y-82343797D01*
X111315000Y-82056203D01*
X111258893Y-81774134D01*
X111148835Y-81508431D01*
X110989056Y-81269304D01*
X110785696Y-81065944D01*
X110546569Y-80906165D01*
X110326478Y-80815000D01*
X110546569Y-80723835D01*
X110785696Y-80564056D01*
X110989056Y-80360696D01*
X111148835Y-80121569D01*
X111258893Y-79855866D01*
X111315000Y-79573797D01*
X111315000Y-79286203D01*
X111258893Y-79004134D01*
X111148835Y-78738431D01*
X110989056Y-78499304D01*
X110785696Y-78295944D01*
X110546569Y-78136165D01*
X110326478Y-78045000D01*
X110546569Y-77953835D01*
X110785696Y-77794056D01*
X110989056Y-77590696D01*
X111148835Y-77351569D01*
X111258893Y-77085866D01*
X111315000Y-76803797D01*
X111315000Y-76516203D01*
X111258893Y-76234134D01*
X111148835Y-75968431D01*
X110989056Y-75729304D01*
X110785696Y-75525944D01*
X110546569Y-75366165D01*
X110322468Y-75273339D01*
X110480020Y-75217265D01*
X110611337Y-75147073D01*
X110685946Y-74900551D01*
X109855000Y-74069605D01*
X109024054Y-74900551D01*
X109098663Y-75147073D01*
X109358439Y-75270473D01*
X109380820Y-75276119D01*
X109163431Y-75366165D01*
X108924304Y-75525944D01*
X108720944Y-75729304D01*
X108684556Y-75783763D01*
X108718893Y-75700866D01*
X108775000Y-75418797D01*
X108775000Y-75131203D01*
X108718893Y-74849134D01*
X108640190Y-74659128D01*
X108844449Y-74720946D01*
X109675395Y-73890000D01*
X110034605Y-73890000D01*
X110865551Y-74720946D01*
X111112073Y-74646337D01*
X111235473Y-74386561D01*
X111305823Y-74107703D01*
X111314391Y-73939061D01*
X112757000Y-73939061D01*
X112757000Y-74142939D01*
X112796774Y-74342898D01*
X112874795Y-74531256D01*
X112988063Y-74700774D01*
X113132226Y-74844937D01*
X113301744Y-74958205D01*
X113490102Y-75036226D01*
X113690061Y-75076000D01*
X113893939Y-75076000D01*
X114093898Y-75036226D01*
X114282256Y-74958205D01*
X114451774Y-74844937D01*
X114595937Y-74700774D01*
X114709205Y-74531256D01*
X114744079Y-74447061D01*
X133712000Y-74447061D01*
X133712000Y-74650939D01*
X133751774Y-74850898D01*
X133829795Y-75039256D01*
X133943063Y-75208774D01*
X134087226Y-75352937D01*
X134256744Y-75466205D01*
X134445102Y-75544226D01*
X134645061Y-75584000D01*
X134848939Y-75584000D01*
X135048898Y-75544226D01*
X135237256Y-75466205D01*
X135406774Y-75352937D01*
X135550937Y-75208774D01*
X135664205Y-75039256D01*
X135723557Y-74895967D01*
X138305000Y-74895967D01*
X138305000Y-75218033D01*
X138367832Y-75533912D01*
X138491082Y-75831463D01*
X138670013Y-76099252D01*
X138897748Y-76326987D01*
X139165537Y-76505918D01*
X139463088Y-76629168D01*
X139778967Y-76692000D01*
X140101033Y-76692000D01*
X140416912Y-76629168D01*
X140714463Y-76505918D01*
X140982252Y-76326987D01*
X141209987Y-76099252D01*
X141388918Y-75831463D01*
X141512168Y-75533912D01*
X141575000Y-75218033D01*
X141575000Y-74895967D01*
X141512168Y-74580088D01*
X141388918Y-74282537D01*
X141238219Y-74057000D01*
X153301928Y-74057000D01*
X153301928Y-76057000D01*
X153314188Y-76181482D01*
X153350498Y-76301180D01*
X153409463Y-76411494D01*
X153488815Y-76508185D01*
X153585506Y-76587537D01*
X153695820Y-76646502D01*
X153815518Y-76682812D01*
X153940000Y-76695072D01*
X155940000Y-76695072D01*
X156064482Y-76682812D01*
X156184180Y-76646502D01*
X156294494Y-76587537D01*
X156391185Y-76508185D01*
X156470537Y-76411494D01*
X156529502Y-76301180D01*
X156565812Y-76181482D01*
X156578072Y-76057000D01*
X156578072Y-74912429D01*
X167300000Y-74912429D01*
X167300000Y-75229571D01*
X167361871Y-75540620D01*
X167483237Y-75833621D01*
X167659431Y-76097315D01*
X167883685Y-76321569D01*
X168147379Y-76497763D01*
X168440380Y-76619129D01*
X168751429Y-76681000D01*
X169068571Y-76681000D01*
X169379620Y-76619129D01*
X169672621Y-76497763D01*
X169936315Y-76321569D01*
X170160569Y-76097315D01*
X170336763Y-75833621D01*
X170458129Y-75540620D01*
X170520000Y-75229571D01*
X170520000Y-74912429D01*
X170458129Y-74601380D01*
X170336763Y-74308379D01*
X170160569Y-74044685D01*
X169936315Y-73820431D01*
X169672621Y-73644237D01*
X169379620Y-73522871D01*
X169068571Y-73461000D01*
X168751429Y-73461000D01*
X168440380Y-73522871D01*
X168147379Y-73644237D01*
X167883685Y-73820431D01*
X167659431Y-74044685D01*
X167483237Y-74308379D01*
X167361871Y-74601380D01*
X167300000Y-74912429D01*
X156578072Y-74912429D01*
X156578072Y-74057000D01*
X156565812Y-73932518D01*
X156529502Y-73812820D01*
X156470537Y-73702506D01*
X156391185Y-73605815D01*
X156294494Y-73526463D01*
X156184180Y-73467498D01*
X156064482Y-73431188D01*
X155940000Y-73418928D01*
X153940000Y-73418928D01*
X153815518Y-73431188D01*
X153695820Y-73467498D01*
X153585506Y-73526463D01*
X153488815Y-73605815D01*
X153409463Y-73702506D01*
X153350498Y-73812820D01*
X153314188Y-73932518D01*
X153301928Y-74057000D01*
X141238219Y-74057000D01*
X141209987Y-74014748D01*
X140982252Y-73787013D01*
X140714463Y-73608082D01*
X140416912Y-73484832D01*
X140101033Y-73422000D01*
X139778967Y-73422000D01*
X139463088Y-73484832D01*
X139165537Y-73608082D01*
X138897748Y-73787013D01*
X138670013Y-74014748D01*
X138491082Y-74282537D01*
X138367832Y-74580088D01*
X138305000Y-74895967D01*
X135723557Y-74895967D01*
X135742226Y-74850898D01*
X135782000Y-74650939D01*
X135782000Y-74447061D01*
X135742226Y-74247102D01*
X135664205Y-74058744D01*
X135550937Y-73889226D01*
X135406774Y-73745063D01*
X135237256Y-73631795D01*
X135048898Y-73553774D01*
X134848939Y-73514000D01*
X134645061Y-73514000D01*
X134445102Y-73553774D01*
X134256744Y-73631795D01*
X134087226Y-73745063D01*
X133943063Y-73889226D01*
X133829795Y-74058744D01*
X133751774Y-74247102D01*
X133712000Y-74447061D01*
X114744079Y-74447061D01*
X114787226Y-74342898D01*
X114827000Y-74142939D01*
X114827000Y-73939061D01*
X114787226Y-73739102D01*
X114709205Y-73550744D01*
X114595937Y-73381226D01*
X114451774Y-73237063D01*
X114282256Y-73123795D01*
X114093898Y-73045774D01*
X113893939Y-73006000D01*
X113690061Y-73006000D01*
X113490102Y-73045774D01*
X113301744Y-73123795D01*
X113132226Y-73237063D01*
X112988063Y-73381226D01*
X112874795Y-73550744D01*
X112796774Y-73739102D01*
X112757000Y-73939061D01*
X111314391Y-73939061D01*
X111320417Y-73820479D01*
X111278697Y-73535926D01*
X111182265Y-73264980D01*
X111112073Y-73133663D01*
X110865551Y-73059054D01*
X110034605Y-73890000D01*
X109675395Y-73890000D01*
X108844449Y-73059054D01*
X108640190Y-73120872D01*
X108718893Y-72930866D01*
X108775000Y-72648797D01*
X108775000Y-72528718D01*
X108785820Y-72534502D01*
X108905518Y-72570812D01*
X109030000Y-72583072D01*
X109191933Y-72583072D01*
X109098663Y-72632927D01*
X109024054Y-72879449D01*
X109855000Y-73710395D01*
X110685946Y-72879449D01*
X110611337Y-72632927D01*
X110506385Y-72583072D01*
X110680000Y-72583072D01*
X110804482Y-72570812D01*
X110924180Y-72534502D01*
X111034494Y-72475537D01*
X111131185Y-72396185D01*
X111210537Y-72299494D01*
X111269502Y-72189180D01*
X111305812Y-72069482D01*
X111318072Y-71945000D01*
X111318072Y-70295000D01*
X111305812Y-70170518D01*
X111269502Y-70050820D01*
X111210537Y-69940506D01*
X111187495Y-69912429D01*
X167300000Y-69912429D01*
X167300000Y-70229571D01*
X167361871Y-70540620D01*
X167483237Y-70833621D01*
X167659431Y-71097315D01*
X167883685Y-71321569D01*
X168147379Y-71497763D01*
X168440380Y-71619129D01*
X168751429Y-71681000D01*
X169068571Y-71681000D01*
X169379620Y-71619129D01*
X169672621Y-71497763D01*
X169936315Y-71321569D01*
X170160569Y-71097315D01*
X170336763Y-70833621D01*
X170458129Y-70540620D01*
X170520000Y-70229571D01*
X170520000Y-69912429D01*
X170458129Y-69601380D01*
X170336763Y-69308379D01*
X170160569Y-69044685D01*
X169936315Y-68820431D01*
X169672621Y-68644237D01*
X169379620Y-68522871D01*
X169068571Y-68461000D01*
X168751429Y-68461000D01*
X168440380Y-68522871D01*
X168147379Y-68644237D01*
X167883685Y-68820431D01*
X167659431Y-69044685D01*
X167483237Y-69308379D01*
X167361871Y-69601380D01*
X167300000Y-69912429D01*
X111187495Y-69912429D01*
X111131185Y-69843815D01*
X111034494Y-69764463D01*
X110924180Y-69705498D01*
X110804482Y-69669188D01*
X110680000Y-69656928D01*
X109030000Y-69656928D01*
X108905518Y-69669188D01*
X108785820Y-69705498D01*
X108675506Y-69764463D01*
X108578815Y-69843815D01*
X108499463Y-69940506D01*
X108440498Y-70050820D01*
X108404188Y-70170518D01*
X108391928Y-70295000D01*
X108391928Y-71517176D01*
X108245696Y-71370944D01*
X108006569Y-71211165D01*
X107740866Y-71101107D01*
X107458797Y-71045000D01*
X107171203Y-71045000D01*
X106889134Y-71101107D01*
X106623431Y-71211165D01*
X106384304Y-71370944D01*
X106180944Y-71574304D01*
X106021165Y-71813431D01*
X105911107Y-72079134D01*
X105855000Y-72361203D01*
X97561000Y-72361203D01*
X97561000Y-64001079D01*
X105550000Y-64001079D01*
X105550000Y-64598921D01*
X105666633Y-65185277D01*
X105895418Y-65737612D01*
X106227562Y-66234700D01*
X106650300Y-66657438D01*
X107147388Y-66989582D01*
X107699723Y-67218367D01*
X108286079Y-67335000D01*
X108883921Y-67335000D01*
X109470277Y-67218367D01*
X110022612Y-66989582D01*
X110519700Y-66657438D01*
X110942438Y-66234700D01*
X111055787Y-66065061D01*
X112884000Y-66065061D01*
X112884000Y-66268939D01*
X112923774Y-66468898D01*
X113001795Y-66657256D01*
X113115063Y-66826774D01*
X113259226Y-66970937D01*
X113428744Y-67084205D01*
X113617102Y-67162226D01*
X113817061Y-67202000D01*
X114020939Y-67202000D01*
X114220898Y-67162226D01*
X114409256Y-67084205D01*
X114578774Y-66970937D01*
X114722937Y-66826774D01*
X114836205Y-66657256D01*
X114914226Y-66468898D01*
X114954000Y-66268939D01*
X114954000Y-66065061D01*
X114914226Y-65865102D01*
X114891842Y-65811061D01*
X133712000Y-65811061D01*
X133712000Y-66014939D01*
X133751774Y-66214898D01*
X133829795Y-66403256D01*
X133943063Y-66572774D01*
X134087226Y-66716937D01*
X134256744Y-66830205D01*
X134445102Y-66908226D01*
X134645061Y-66948000D01*
X134848939Y-66948000D01*
X135048898Y-66908226D01*
X135237256Y-66830205D01*
X135406774Y-66716937D01*
X135550937Y-66572774D01*
X135664205Y-66403256D01*
X135742226Y-66214898D01*
X135782000Y-66014939D01*
X135782000Y-65811061D01*
X135742226Y-65611102D01*
X135664205Y-65422744D01*
X135550937Y-65253226D01*
X135406774Y-65109063D01*
X135237256Y-64995795D01*
X135048898Y-64917774D01*
X134848939Y-64878000D01*
X134645061Y-64878000D01*
X134445102Y-64917774D01*
X134256744Y-64995795D01*
X134087226Y-65109063D01*
X133943063Y-65253226D01*
X133829795Y-65422744D01*
X133751774Y-65611102D01*
X133712000Y-65811061D01*
X114891842Y-65811061D01*
X114836205Y-65676744D01*
X114722937Y-65507226D01*
X114578774Y-65363063D01*
X114409256Y-65249795D01*
X114220898Y-65171774D01*
X114020939Y-65132000D01*
X113817061Y-65132000D01*
X113617102Y-65171774D01*
X113428744Y-65249795D01*
X113259226Y-65363063D01*
X113115063Y-65507226D01*
X113001795Y-65676744D01*
X112923774Y-65865102D01*
X112884000Y-66065061D01*
X111055787Y-66065061D01*
X111274582Y-65737612D01*
X111503367Y-65185277D01*
X111592739Y-64735967D01*
X138305000Y-64735967D01*
X138305000Y-65058033D01*
X138367832Y-65373912D01*
X138491082Y-65671463D01*
X138670013Y-65939252D01*
X138897748Y-66166987D01*
X139165537Y-66345918D01*
X139463088Y-66469168D01*
X139778967Y-66532000D01*
X140101033Y-66532000D01*
X140416912Y-66469168D01*
X140714463Y-66345918D01*
X140982252Y-66166987D01*
X141209987Y-65939252D01*
X141388918Y-65671463D01*
X141512168Y-65373912D01*
X141575000Y-65058033D01*
X141575000Y-64735967D01*
X141512168Y-64420088D01*
X141388918Y-64122537D01*
X141238219Y-63897000D01*
X153301928Y-63897000D01*
X153301928Y-65897000D01*
X153314188Y-66021482D01*
X153350498Y-66141180D01*
X153409463Y-66251494D01*
X153488815Y-66348185D01*
X153585506Y-66427537D01*
X153695820Y-66486502D01*
X153815518Y-66522812D01*
X153940000Y-66535072D01*
X155940000Y-66535072D01*
X156064482Y-66522812D01*
X156184180Y-66486502D01*
X156294494Y-66427537D01*
X156391185Y-66348185D01*
X156470537Y-66251494D01*
X156529502Y-66141180D01*
X156565812Y-66021482D01*
X156578072Y-65897000D01*
X156578072Y-64912429D01*
X167300000Y-64912429D01*
X167300000Y-65229571D01*
X167361871Y-65540620D01*
X167483237Y-65833621D01*
X167659431Y-66097315D01*
X167883685Y-66321569D01*
X168147379Y-66497763D01*
X168440380Y-66619129D01*
X168751429Y-66681000D01*
X169068571Y-66681000D01*
X169379620Y-66619129D01*
X169672621Y-66497763D01*
X169936315Y-66321569D01*
X170160569Y-66097315D01*
X170336763Y-65833621D01*
X170458129Y-65540620D01*
X170520000Y-65229571D01*
X170520000Y-64912429D01*
X170458129Y-64601380D01*
X170336763Y-64308379D01*
X170160569Y-64044685D01*
X169936315Y-63820431D01*
X169672621Y-63644237D01*
X169379620Y-63522871D01*
X169068571Y-63461000D01*
X168751429Y-63461000D01*
X168440380Y-63522871D01*
X168147379Y-63644237D01*
X167883685Y-63820431D01*
X167659431Y-64044685D01*
X167483237Y-64308379D01*
X167361871Y-64601380D01*
X167300000Y-64912429D01*
X156578072Y-64912429D01*
X156578072Y-63897000D01*
X156565812Y-63772518D01*
X156529502Y-63652820D01*
X156470537Y-63542506D01*
X156391185Y-63445815D01*
X156294494Y-63366463D01*
X156184180Y-63307498D01*
X156064482Y-63271188D01*
X155940000Y-63258928D01*
X153940000Y-63258928D01*
X153815518Y-63271188D01*
X153695820Y-63307498D01*
X153585506Y-63366463D01*
X153488815Y-63445815D01*
X153409463Y-63542506D01*
X153350498Y-63652820D01*
X153314188Y-63772518D01*
X153301928Y-63897000D01*
X141238219Y-63897000D01*
X141209987Y-63854748D01*
X140982252Y-63627013D01*
X140714463Y-63448082D01*
X140416912Y-63324832D01*
X140101033Y-63262000D01*
X139778967Y-63262000D01*
X139463088Y-63324832D01*
X139165537Y-63448082D01*
X138897748Y-63627013D01*
X138670013Y-63854748D01*
X138491082Y-64122537D01*
X138367832Y-64420088D01*
X138305000Y-64735967D01*
X111592739Y-64735967D01*
X111620000Y-64598921D01*
X111620000Y-64001079D01*
X111503367Y-63414723D01*
X111274582Y-62862388D01*
X110942438Y-62365300D01*
X110519700Y-61942562D01*
X110022612Y-61610418D01*
X109470277Y-61381633D01*
X108883921Y-61265000D01*
X108286079Y-61265000D01*
X107699723Y-61381633D01*
X107147388Y-61610418D01*
X106650300Y-61942562D01*
X106227562Y-62365300D01*
X105895418Y-62862388D01*
X105666633Y-63414723D01*
X105550000Y-64001079D01*
X97561000Y-64001079D01*
X97561000Y-59912429D01*
X167300000Y-59912429D01*
X167300000Y-60229571D01*
X167361871Y-60540620D01*
X167483237Y-60833621D01*
X167659431Y-61097315D01*
X167883685Y-61321569D01*
X168147379Y-61497763D01*
X168440380Y-61619129D01*
X168751429Y-61681000D01*
X169068571Y-61681000D01*
X169379620Y-61619129D01*
X169672621Y-61497763D01*
X169936315Y-61321569D01*
X170160569Y-61097315D01*
X170336763Y-60833621D01*
X170458129Y-60540620D01*
X170520000Y-60229571D01*
X170520000Y-59912429D01*
X170458129Y-59601380D01*
X170336763Y-59308379D01*
X170160569Y-59044685D01*
X169936315Y-58820431D01*
X169672621Y-58644237D01*
X169379620Y-58522871D01*
X169068571Y-58461000D01*
X168751429Y-58461000D01*
X168440380Y-58522871D01*
X168147379Y-58644237D01*
X167883685Y-58820431D01*
X167659431Y-59044685D01*
X167483237Y-59308379D01*
X167361871Y-59601380D01*
X167300000Y-59912429D01*
X97561000Y-59912429D01*
X97561000Y-53111000D01*
X175489001Y-53111000D01*
X175489000Y-139040000D01*
G37*
%TD.AperFunction*%
%TD*%
M02*
