%TF.GenerationSoftware,KiCad,Pcbnew,(5.1.10)-1*%
%TF.CreationDate,2021-11-30T13:01:00-06:00*%
%TF.ProjectId,Charges_KiCAD_Project,43686172-6765-4735-9f4b-694341445f50,rev?*%
%TF.SameCoordinates,Original*%
%TF.FileFunction,Copper,L1,Top*%
%TF.FilePolarity,Positive*%
%FSLAX46Y46*%
G04 Gerber Fmt 4.6, Leading zero omitted, Abs format (unit mm)*
G04 Created by KiCad (PCBNEW (5.1.10)-1) date 2021-11-30 13:01:00*
%MOMM*%
%LPD*%
G01*
G04 APERTURE LIST*
%TA.AperFunction,SMDPad,CuDef*%
%ADD10R,0.950000X0.550000*%
%TD*%
%TA.AperFunction,SMDPad,CuDef*%
%ADD11R,0.160000X0.065000*%
%TD*%
%TA.AperFunction,SMDPad,CuDef*%
%ADD12R,1.310000X1.010000*%
%TD*%
%TA.AperFunction,SMDPad,CuDef*%
%ADD13R,0.430000X1.510000*%
%TD*%
%TA.AperFunction,SMDPad,CuDef*%
%ADD14R,0.090000X1.130000*%
%TD*%
%TA.AperFunction,SMDPad,CuDef*%
%ADD15R,0.600000X0.400000*%
%TD*%
%TA.AperFunction,SMDPad,CuDef*%
%ADD16R,0.760000X0.350000*%
%TD*%
%TA.AperFunction,ComponentPad*%
%ADD17C,4.800000*%
%TD*%
%TA.AperFunction,ComponentPad*%
%ADD18C,1.650000*%
%TD*%
%TA.AperFunction,ComponentPad*%
%ADD19R,1.650000X1.650000*%
%TD*%
%TA.AperFunction,ComponentPad*%
%ADD20C,1.950000*%
%TD*%
%TA.AperFunction,SMDPad,CuDef*%
%ADD21R,0.300000X1.475000*%
%TD*%
%TA.AperFunction,SMDPad,CuDef*%
%ADD22R,1.475000X0.300000*%
%TD*%
%TA.AperFunction,ComponentPad*%
%ADD23C,1.500000*%
%TD*%
%TA.AperFunction,ComponentPad*%
%ADD24O,2.000000X2.000000*%
%TD*%
%TA.AperFunction,ComponentPad*%
%ADD25R,2.000000X2.000000*%
%TD*%
%TA.AperFunction,ViaPad*%
%ADD26C,0.800000*%
%TD*%
%TA.AperFunction,Conductor*%
%ADD27C,0.250000*%
%TD*%
G04 APERTURE END LIST*
D10*
%TO.P,U1,5*%
%TO.N,GND*%
X121598000Y-85060000D03*
%TO.P,U1,6*%
X121598000Y-83810000D03*
%TO.P,U1,7*%
%TO.N,/SWDIO*%
X121598000Y-82560000D03*
%TO.P,U1,8*%
%TO.N,/SWCLK*%
X121598000Y-81310000D03*
%TO.P,U1,3*%
%TO.N,GND*%
X119448000Y-83810000D03*
%TO.P,U1,2*%
%TO.N,+3V3*%
X119448000Y-82560000D03*
%TO.P,U1,1*%
X119448000Y-81310000D03*
%TO.P,U1,4*%
%TO.N,GND*%
X119448000Y-85060000D03*
%TD*%
%TO.P,R24,2*%
%TO.N,GND*%
%TA.AperFunction,SMDPad,CuDef*%
G36*
G01*
X135934000Y-126767000D02*
X135934000Y-126217000D01*
G75*
G02*
X136134000Y-126017000I200000J0D01*
G01*
X136534000Y-126017000D01*
G75*
G02*
X136734000Y-126217000I0J-200000D01*
G01*
X136734000Y-126767000D01*
G75*
G02*
X136534000Y-126967000I-200000J0D01*
G01*
X136134000Y-126967000D01*
G75*
G02*
X135934000Y-126767000I0J200000D01*
G01*
G37*
%TD.AperFunction*%
%TO.P,R24,1*%
%TO.N,/Sense_D*%
%TA.AperFunction,SMDPad,CuDef*%
G36*
G01*
X134284000Y-126767000D02*
X134284000Y-126217000D01*
G75*
G02*
X134484000Y-126017000I200000J0D01*
G01*
X134884000Y-126017000D01*
G75*
G02*
X135084000Y-126217000I0J-200000D01*
G01*
X135084000Y-126767000D01*
G75*
G02*
X134884000Y-126967000I-200000J0D01*
G01*
X134484000Y-126967000D01*
G75*
G02*
X134284000Y-126767000I0J200000D01*
G01*
G37*
%TD.AperFunction*%
%TD*%
%TO.P,R23,2*%
%TO.N,GND*%
%TA.AperFunction,SMDPad,CuDef*%
G36*
G01*
X135934000Y-122957000D02*
X135934000Y-122407000D01*
G75*
G02*
X136134000Y-122207000I200000J0D01*
G01*
X136534000Y-122207000D01*
G75*
G02*
X136734000Y-122407000I0J-200000D01*
G01*
X136734000Y-122957000D01*
G75*
G02*
X136534000Y-123157000I-200000J0D01*
G01*
X136134000Y-123157000D01*
G75*
G02*
X135934000Y-122957000I0J200000D01*
G01*
G37*
%TD.AperFunction*%
%TO.P,R23,1*%
%TO.N,/Sense_C*%
%TA.AperFunction,SMDPad,CuDef*%
G36*
G01*
X134284000Y-122957000D02*
X134284000Y-122407000D01*
G75*
G02*
X134484000Y-122207000I200000J0D01*
G01*
X134884000Y-122207000D01*
G75*
G02*
X135084000Y-122407000I0J-200000D01*
G01*
X135084000Y-122957000D01*
G75*
G02*
X134884000Y-123157000I-200000J0D01*
G01*
X134484000Y-123157000D01*
G75*
G02*
X134284000Y-122957000I0J200000D01*
G01*
G37*
%TD.AperFunction*%
%TD*%
%TO.P,R22,2*%
%TO.N,GND*%
%TA.AperFunction,SMDPad,CuDef*%
G36*
G01*
X135934000Y-72284000D02*
X135934000Y-71734000D01*
G75*
G02*
X136134000Y-71534000I200000J0D01*
G01*
X136534000Y-71534000D01*
G75*
G02*
X136734000Y-71734000I0J-200000D01*
G01*
X136734000Y-72284000D01*
G75*
G02*
X136534000Y-72484000I-200000J0D01*
G01*
X136134000Y-72484000D01*
G75*
G02*
X135934000Y-72284000I0J200000D01*
G01*
G37*
%TD.AperFunction*%
%TO.P,R22,1*%
%TO.N,/Sense_B*%
%TA.AperFunction,SMDPad,CuDef*%
G36*
G01*
X134284000Y-72284000D02*
X134284000Y-71734000D01*
G75*
G02*
X134484000Y-71534000I200000J0D01*
G01*
X134884000Y-71534000D01*
G75*
G02*
X135084000Y-71734000I0J-200000D01*
G01*
X135084000Y-72284000D01*
G75*
G02*
X134884000Y-72484000I-200000J0D01*
G01*
X134484000Y-72484000D01*
G75*
G02*
X134284000Y-72284000I0J200000D01*
G01*
G37*
%TD.AperFunction*%
%TD*%
%TO.P,R21,2*%
%TO.N,GND*%
%TA.AperFunction,SMDPad,CuDef*%
G36*
G01*
X135934000Y-68347000D02*
X135934000Y-67797000D01*
G75*
G02*
X136134000Y-67597000I200000J0D01*
G01*
X136534000Y-67597000D01*
G75*
G02*
X136734000Y-67797000I0J-200000D01*
G01*
X136734000Y-68347000D01*
G75*
G02*
X136534000Y-68547000I-200000J0D01*
G01*
X136134000Y-68547000D01*
G75*
G02*
X135934000Y-68347000I0J200000D01*
G01*
G37*
%TD.AperFunction*%
%TO.P,R21,1*%
%TO.N,/Sense_A*%
%TA.AperFunction,SMDPad,CuDef*%
G36*
G01*
X134284000Y-68347000D02*
X134284000Y-67797000D01*
G75*
G02*
X134484000Y-67597000I200000J0D01*
G01*
X134884000Y-67597000D01*
G75*
G02*
X135084000Y-67797000I0J-200000D01*
G01*
X135084000Y-68347000D01*
G75*
G02*
X134884000Y-68547000I-200000J0D01*
G01*
X134484000Y-68547000D01*
G75*
G02*
X134284000Y-68347000I0J200000D01*
G01*
G37*
%TD.AperFunction*%
%TD*%
%TO.P,R20,2*%
%TO.N,/Sense_D*%
%TA.AperFunction,SMDPad,CuDef*%
G36*
G01*
X131553000Y-126767000D02*
X131553000Y-126217000D01*
G75*
G02*
X131753000Y-126017000I200000J0D01*
G01*
X132153000Y-126017000D01*
G75*
G02*
X132353000Y-126217000I0J-200000D01*
G01*
X132353000Y-126767000D01*
G75*
G02*
X132153000Y-126967000I-200000J0D01*
G01*
X131753000Y-126967000D01*
G75*
G02*
X131553000Y-126767000I0J200000D01*
G01*
G37*
%TD.AperFunction*%
%TO.P,R20,1*%
%TO.N,/Fet_D*%
%TA.AperFunction,SMDPad,CuDef*%
G36*
G01*
X129903000Y-126767000D02*
X129903000Y-126217000D01*
G75*
G02*
X130103000Y-126017000I200000J0D01*
G01*
X130503000Y-126017000D01*
G75*
G02*
X130703000Y-126217000I0J-200000D01*
G01*
X130703000Y-126767000D01*
G75*
G02*
X130503000Y-126967000I-200000J0D01*
G01*
X130103000Y-126967000D01*
G75*
G02*
X129903000Y-126767000I0J200000D01*
G01*
G37*
%TD.AperFunction*%
%TD*%
%TO.P,R19,2*%
%TO.N,/Sense_C*%
%TA.AperFunction,SMDPad,CuDef*%
G36*
G01*
X131616000Y-122957000D02*
X131616000Y-122407000D01*
G75*
G02*
X131816000Y-122207000I200000J0D01*
G01*
X132216000Y-122207000D01*
G75*
G02*
X132416000Y-122407000I0J-200000D01*
G01*
X132416000Y-122957000D01*
G75*
G02*
X132216000Y-123157000I-200000J0D01*
G01*
X131816000Y-123157000D01*
G75*
G02*
X131616000Y-122957000I0J200000D01*
G01*
G37*
%TD.AperFunction*%
%TO.P,R19,1*%
%TO.N,/Fet_C*%
%TA.AperFunction,SMDPad,CuDef*%
G36*
G01*
X129966000Y-122957000D02*
X129966000Y-122407000D01*
G75*
G02*
X130166000Y-122207000I200000J0D01*
G01*
X130566000Y-122207000D01*
G75*
G02*
X130766000Y-122407000I0J-200000D01*
G01*
X130766000Y-122957000D01*
G75*
G02*
X130566000Y-123157000I-200000J0D01*
G01*
X130166000Y-123157000D01*
G75*
G02*
X129966000Y-122957000I0J200000D01*
G01*
G37*
%TD.AperFunction*%
%TD*%
%TO.P,R18,2*%
%TO.N,/Sense_B*%
%TA.AperFunction,SMDPad,CuDef*%
G36*
G01*
X131489000Y-72284000D02*
X131489000Y-71734000D01*
G75*
G02*
X131689000Y-71534000I200000J0D01*
G01*
X132089000Y-71534000D01*
G75*
G02*
X132289000Y-71734000I0J-200000D01*
G01*
X132289000Y-72284000D01*
G75*
G02*
X132089000Y-72484000I-200000J0D01*
G01*
X131689000Y-72484000D01*
G75*
G02*
X131489000Y-72284000I0J200000D01*
G01*
G37*
%TD.AperFunction*%
%TO.P,R18,1*%
%TO.N,/Fet_B*%
%TA.AperFunction,SMDPad,CuDef*%
G36*
G01*
X129839000Y-72284000D02*
X129839000Y-71734000D01*
G75*
G02*
X130039000Y-71534000I200000J0D01*
G01*
X130439000Y-71534000D01*
G75*
G02*
X130639000Y-71734000I0J-200000D01*
G01*
X130639000Y-72284000D01*
G75*
G02*
X130439000Y-72484000I-200000J0D01*
G01*
X130039000Y-72484000D01*
G75*
G02*
X129839000Y-72284000I0J200000D01*
G01*
G37*
%TD.AperFunction*%
%TD*%
%TO.P,R17,2*%
%TO.N,/Sense_A*%
%TA.AperFunction,SMDPad,CuDef*%
G36*
G01*
X131616000Y-68347000D02*
X131616000Y-67797000D01*
G75*
G02*
X131816000Y-67597000I200000J0D01*
G01*
X132216000Y-67597000D01*
G75*
G02*
X132416000Y-67797000I0J-200000D01*
G01*
X132416000Y-68347000D01*
G75*
G02*
X132216000Y-68547000I-200000J0D01*
G01*
X131816000Y-68547000D01*
G75*
G02*
X131616000Y-68347000I0J200000D01*
G01*
G37*
%TD.AperFunction*%
%TO.P,R17,1*%
%TO.N,/Fet_A*%
%TA.AperFunction,SMDPad,CuDef*%
G36*
G01*
X129966000Y-68347000D02*
X129966000Y-67797000D01*
G75*
G02*
X130166000Y-67597000I200000J0D01*
G01*
X130566000Y-67597000D01*
G75*
G02*
X130766000Y-67797000I0J-200000D01*
G01*
X130766000Y-68347000D01*
G75*
G02*
X130566000Y-68547000I-200000J0D01*
G01*
X130166000Y-68547000D01*
G75*
G02*
X129966000Y-68347000I0J200000D01*
G01*
G37*
%TD.AperFunction*%
%TD*%
%TO.P,R16,2*%
%TO.N,Net-(C4-Pad1)*%
%TA.AperFunction,SMDPad,CuDef*%
G36*
G01*
X159468000Y-131170000D02*
X159468000Y-131720000D01*
G75*
G02*
X159268000Y-131920000I-200000J0D01*
G01*
X158868000Y-131920000D01*
G75*
G02*
X158668000Y-131720000I0J200000D01*
G01*
X158668000Y-131170000D01*
G75*
G02*
X158868000Y-130970000I200000J0D01*
G01*
X159268000Y-130970000D01*
G75*
G02*
X159468000Y-131170000I0J-200000D01*
G01*
G37*
%TD.AperFunction*%
%TO.P,R16,1*%
%TO.N,Net-(J2-Pad4)*%
%TA.AperFunction,SMDPad,CuDef*%
G36*
G01*
X161118000Y-131170000D02*
X161118000Y-131720000D01*
G75*
G02*
X160918000Y-131920000I-200000J0D01*
G01*
X160518000Y-131920000D01*
G75*
G02*
X160318000Y-131720000I0J200000D01*
G01*
X160318000Y-131170000D01*
G75*
G02*
X160518000Y-130970000I200000J0D01*
G01*
X160918000Y-130970000D01*
G75*
G02*
X161118000Y-131170000I0J-200000D01*
G01*
G37*
%TD.AperFunction*%
%TD*%
%TO.P,R15,2*%
%TO.N,Net-(C3-Pad1)*%
%TA.AperFunction,SMDPad,CuDef*%
G36*
G01*
X159468000Y-117581000D02*
X159468000Y-118131000D01*
G75*
G02*
X159268000Y-118331000I-200000J0D01*
G01*
X158868000Y-118331000D01*
G75*
G02*
X158668000Y-118131000I0J200000D01*
G01*
X158668000Y-117581000D01*
G75*
G02*
X158868000Y-117381000I200000J0D01*
G01*
X159268000Y-117381000D01*
G75*
G02*
X159468000Y-117581000I0J-200000D01*
G01*
G37*
%TD.AperFunction*%
%TO.P,R15,1*%
%TO.N,Net-(J2-Pad2)*%
%TA.AperFunction,SMDPad,CuDef*%
G36*
G01*
X161118000Y-117581000D02*
X161118000Y-118131000D01*
G75*
G02*
X160918000Y-118331000I-200000J0D01*
G01*
X160518000Y-118331000D01*
G75*
G02*
X160318000Y-118131000I0J200000D01*
G01*
X160318000Y-117581000D01*
G75*
G02*
X160518000Y-117381000I200000J0D01*
G01*
X160918000Y-117381000D01*
G75*
G02*
X161118000Y-117581000I0J-200000D01*
G01*
G37*
%TD.AperFunction*%
%TD*%
%TO.P,R14,2*%
%TO.N,Net-(C4-Pad1)*%
%TA.AperFunction,SMDPad,CuDef*%
G36*
G01*
X159468000Y-127614000D02*
X159468000Y-128164000D01*
G75*
G02*
X159268000Y-128364000I-200000J0D01*
G01*
X158868000Y-128364000D01*
G75*
G02*
X158668000Y-128164000I0J200000D01*
G01*
X158668000Y-127614000D01*
G75*
G02*
X158868000Y-127414000I200000J0D01*
G01*
X159268000Y-127414000D01*
G75*
G02*
X159468000Y-127614000I0J-200000D01*
G01*
G37*
%TD.AperFunction*%
%TO.P,R14,1*%
%TO.N,+5V*%
%TA.AperFunction,SMDPad,CuDef*%
G36*
G01*
X161118000Y-127614000D02*
X161118000Y-128164000D01*
G75*
G02*
X160918000Y-128364000I-200000J0D01*
G01*
X160518000Y-128364000D01*
G75*
G02*
X160318000Y-128164000I0J200000D01*
G01*
X160318000Y-127614000D01*
G75*
G02*
X160518000Y-127414000I200000J0D01*
G01*
X160918000Y-127414000D01*
G75*
G02*
X161118000Y-127614000I0J-200000D01*
G01*
G37*
%TD.AperFunction*%
%TD*%
%TO.P,R13,2*%
%TO.N,+5V*%
%TA.AperFunction,SMDPad,CuDef*%
G36*
G01*
X160318000Y-121814000D02*
X160318000Y-121264000D01*
G75*
G02*
X160518000Y-121064000I200000J0D01*
G01*
X160918000Y-121064000D01*
G75*
G02*
X161118000Y-121264000I0J-200000D01*
G01*
X161118000Y-121814000D01*
G75*
G02*
X160918000Y-122014000I-200000J0D01*
G01*
X160518000Y-122014000D01*
G75*
G02*
X160318000Y-121814000I0J200000D01*
G01*
G37*
%TD.AperFunction*%
%TO.P,R13,1*%
%TO.N,Net-(C3-Pad1)*%
%TA.AperFunction,SMDPad,CuDef*%
G36*
G01*
X158668000Y-121814000D02*
X158668000Y-121264000D01*
G75*
G02*
X158868000Y-121064000I200000J0D01*
G01*
X159268000Y-121064000D01*
G75*
G02*
X159468000Y-121264000I0J-200000D01*
G01*
X159468000Y-121814000D01*
G75*
G02*
X159268000Y-122014000I-200000J0D01*
G01*
X158868000Y-122014000D01*
G75*
G02*
X158668000Y-121814000I0J200000D01*
G01*
G37*
%TD.AperFunction*%
%TD*%
%TO.P,R12,2*%
%TO.N,Net-(C2-Pad1)*%
%TA.AperFunction,SMDPad,CuDef*%
G36*
G01*
X159341000Y-76560000D02*
X159341000Y-77110000D01*
G75*
G02*
X159141000Y-77310000I-200000J0D01*
G01*
X158741000Y-77310000D01*
G75*
G02*
X158541000Y-77110000I0J200000D01*
G01*
X158541000Y-76560000D01*
G75*
G02*
X158741000Y-76360000I200000J0D01*
G01*
X159141000Y-76360000D01*
G75*
G02*
X159341000Y-76560000I0J-200000D01*
G01*
G37*
%TD.AperFunction*%
%TO.P,R12,1*%
%TO.N,Net-(J1-Pad4)*%
%TA.AperFunction,SMDPad,CuDef*%
G36*
G01*
X160991000Y-76560000D02*
X160991000Y-77110000D01*
G75*
G02*
X160791000Y-77310000I-200000J0D01*
G01*
X160391000Y-77310000D01*
G75*
G02*
X160191000Y-77110000I0J200000D01*
G01*
X160191000Y-76560000D01*
G75*
G02*
X160391000Y-76360000I200000J0D01*
G01*
X160791000Y-76360000D01*
G75*
G02*
X160991000Y-76560000I0J-200000D01*
G01*
G37*
%TD.AperFunction*%
%TD*%
%TO.P,R11,2*%
%TO.N,Net-(C1-Pad1)*%
%TA.AperFunction,SMDPad,CuDef*%
G36*
G01*
X159341000Y-62844000D02*
X159341000Y-63394000D01*
G75*
G02*
X159141000Y-63594000I-200000J0D01*
G01*
X158741000Y-63594000D01*
G75*
G02*
X158541000Y-63394000I0J200000D01*
G01*
X158541000Y-62844000D01*
G75*
G02*
X158741000Y-62644000I200000J0D01*
G01*
X159141000Y-62644000D01*
G75*
G02*
X159341000Y-62844000I0J-200000D01*
G01*
G37*
%TD.AperFunction*%
%TO.P,R11,1*%
%TO.N,Net-(J1-Pad2)*%
%TA.AperFunction,SMDPad,CuDef*%
G36*
G01*
X160991000Y-62844000D02*
X160991000Y-63394000D01*
G75*
G02*
X160791000Y-63594000I-200000J0D01*
G01*
X160391000Y-63594000D01*
G75*
G02*
X160191000Y-63394000I0J200000D01*
G01*
X160191000Y-62844000D01*
G75*
G02*
X160391000Y-62644000I200000J0D01*
G01*
X160791000Y-62644000D01*
G75*
G02*
X160991000Y-62844000I0J-200000D01*
G01*
G37*
%TD.AperFunction*%
%TD*%
%TO.P,R10,2*%
%TO.N,GND*%
%TA.AperFunction,SMDPad,CuDef*%
G36*
G01*
X119678000Y-126767000D02*
X119678000Y-126217000D01*
G75*
G02*
X119878000Y-126017000I200000J0D01*
G01*
X120278000Y-126017000D01*
G75*
G02*
X120478000Y-126217000I0J-200000D01*
G01*
X120478000Y-126767000D01*
G75*
G02*
X120278000Y-126967000I-200000J0D01*
G01*
X119878000Y-126967000D01*
G75*
G02*
X119678000Y-126767000I0J200000D01*
G01*
G37*
%TD.AperFunction*%
%TO.P,R10,1*%
%TO.N,Net-(Q2-Pad4)*%
%TA.AperFunction,SMDPad,CuDef*%
G36*
G01*
X118028000Y-126767000D02*
X118028000Y-126217000D01*
G75*
G02*
X118228000Y-126017000I200000J0D01*
G01*
X118628000Y-126017000D01*
G75*
G02*
X118828000Y-126217000I0J-200000D01*
G01*
X118828000Y-126767000D01*
G75*
G02*
X118628000Y-126967000I-200000J0D01*
G01*
X118228000Y-126967000D01*
G75*
G02*
X118028000Y-126767000I0J200000D01*
G01*
G37*
%TD.AperFunction*%
%TD*%
%TO.P,R9,2*%
%TO.N,GND*%
%TA.AperFunction,SMDPad,CuDef*%
G36*
G01*
X119678000Y-122830000D02*
X119678000Y-122280000D01*
G75*
G02*
X119878000Y-122080000I200000J0D01*
G01*
X120278000Y-122080000D01*
G75*
G02*
X120478000Y-122280000I0J-200000D01*
G01*
X120478000Y-122830000D01*
G75*
G02*
X120278000Y-123030000I-200000J0D01*
G01*
X119878000Y-123030000D01*
G75*
G02*
X119678000Y-122830000I0J200000D01*
G01*
G37*
%TD.AperFunction*%
%TO.P,R9,1*%
%TO.N,Net-(Q2-Pad2)*%
%TA.AperFunction,SMDPad,CuDef*%
G36*
G01*
X118028000Y-122830000D02*
X118028000Y-122280000D01*
G75*
G02*
X118228000Y-122080000I200000J0D01*
G01*
X118628000Y-122080000D01*
G75*
G02*
X118828000Y-122280000I0J-200000D01*
G01*
X118828000Y-122830000D01*
G75*
G02*
X118628000Y-123030000I-200000J0D01*
G01*
X118228000Y-123030000D01*
G75*
G02*
X118028000Y-122830000I0J200000D01*
G01*
G37*
%TD.AperFunction*%
%TD*%
%TO.P,R8,2*%
%TO.N,GND*%
%TA.AperFunction,SMDPad,CuDef*%
G36*
G01*
X118851000Y-73196000D02*
X119401000Y-73196000D01*
G75*
G02*
X119601000Y-73396000I0J-200000D01*
G01*
X119601000Y-73796000D01*
G75*
G02*
X119401000Y-73996000I-200000J0D01*
G01*
X118851000Y-73996000D01*
G75*
G02*
X118651000Y-73796000I0J200000D01*
G01*
X118651000Y-73396000D01*
G75*
G02*
X118851000Y-73196000I200000J0D01*
G01*
G37*
%TD.AperFunction*%
%TO.P,R8,1*%
%TO.N,Net-(Q1-Pad4)*%
%TA.AperFunction,SMDPad,CuDef*%
G36*
G01*
X118851000Y-71546000D02*
X119401000Y-71546000D01*
G75*
G02*
X119601000Y-71746000I0J-200000D01*
G01*
X119601000Y-72146000D01*
G75*
G02*
X119401000Y-72346000I-200000J0D01*
G01*
X118851000Y-72346000D01*
G75*
G02*
X118651000Y-72146000I0J200000D01*
G01*
X118651000Y-71746000D01*
G75*
G02*
X118851000Y-71546000I200000J0D01*
G01*
G37*
%TD.AperFunction*%
%TD*%
%TO.P,R7,2*%
%TO.N,GND*%
%TA.AperFunction,SMDPad,CuDef*%
G36*
G01*
X119401000Y-66631000D02*
X118851000Y-66631000D01*
G75*
G02*
X118651000Y-66431000I0J200000D01*
G01*
X118651000Y-66031000D01*
G75*
G02*
X118851000Y-65831000I200000J0D01*
G01*
X119401000Y-65831000D01*
G75*
G02*
X119601000Y-66031000I0J-200000D01*
G01*
X119601000Y-66431000D01*
G75*
G02*
X119401000Y-66631000I-200000J0D01*
G01*
G37*
%TD.AperFunction*%
%TO.P,R7,1*%
%TO.N,Net-(Q1-Pad2)*%
%TA.AperFunction,SMDPad,CuDef*%
G36*
G01*
X119401000Y-68281000D02*
X118851000Y-68281000D01*
G75*
G02*
X118651000Y-68081000I0J200000D01*
G01*
X118651000Y-67681000D01*
G75*
G02*
X118851000Y-67481000I200000J0D01*
G01*
X119401000Y-67481000D01*
G75*
G02*
X119601000Y-67681000I0J-200000D01*
G01*
X119601000Y-68081000D01*
G75*
G02*
X119401000Y-68281000I-200000J0D01*
G01*
G37*
%TD.AperFunction*%
%TD*%
%TO.P,R6,2*%
%TO.N,Net-(Q2-Pad4)*%
%TA.AperFunction,SMDPad,CuDef*%
G36*
G01*
X115360000Y-126767000D02*
X115360000Y-126217000D01*
G75*
G02*
X115560000Y-126017000I200000J0D01*
G01*
X115960000Y-126017000D01*
G75*
G02*
X116160000Y-126217000I0J-200000D01*
G01*
X116160000Y-126767000D01*
G75*
G02*
X115960000Y-126967000I-200000J0D01*
G01*
X115560000Y-126967000D01*
G75*
G02*
X115360000Y-126767000I0J200000D01*
G01*
G37*
%TD.AperFunction*%
%TO.P,R6,1*%
%TO.N,/Fire_D*%
%TA.AperFunction,SMDPad,CuDef*%
G36*
G01*
X113710000Y-126767000D02*
X113710000Y-126217000D01*
G75*
G02*
X113910000Y-126017000I200000J0D01*
G01*
X114310000Y-126017000D01*
G75*
G02*
X114510000Y-126217000I0J-200000D01*
G01*
X114510000Y-126767000D01*
G75*
G02*
X114310000Y-126967000I-200000J0D01*
G01*
X113910000Y-126967000D01*
G75*
G02*
X113710000Y-126767000I0J200000D01*
G01*
G37*
%TD.AperFunction*%
%TD*%
%TO.P,R5,2*%
%TO.N,Net-(Q2-Pad2)*%
%TA.AperFunction,SMDPad,CuDef*%
G36*
G01*
X115360000Y-122830000D02*
X115360000Y-122280000D01*
G75*
G02*
X115560000Y-122080000I200000J0D01*
G01*
X115960000Y-122080000D01*
G75*
G02*
X116160000Y-122280000I0J-200000D01*
G01*
X116160000Y-122830000D01*
G75*
G02*
X115960000Y-123030000I-200000J0D01*
G01*
X115560000Y-123030000D01*
G75*
G02*
X115360000Y-122830000I0J200000D01*
G01*
G37*
%TD.AperFunction*%
%TO.P,R5,1*%
%TO.N,/Fire_C*%
%TA.AperFunction,SMDPad,CuDef*%
G36*
G01*
X113710000Y-122830000D02*
X113710000Y-122280000D01*
G75*
G02*
X113910000Y-122080000I200000J0D01*
G01*
X114310000Y-122080000D01*
G75*
G02*
X114510000Y-122280000I0J-200000D01*
G01*
X114510000Y-122830000D01*
G75*
G02*
X114310000Y-123030000I-200000J0D01*
G01*
X113910000Y-123030000D01*
G75*
G02*
X113710000Y-122830000I0J200000D01*
G01*
G37*
%TD.AperFunction*%
%TD*%
%TO.P,R4,2*%
%TO.N,Net-(Q1-Pad4)*%
%TA.AperFunction,SMDPad,CuDef*%
G36*
G01*
X115170000Y-72157000D02*
X115170000Y-71607000D01*
G75*
G02*
X115370000Y-71407000I200000J0D01*
G01*
X115770000Y-71407000D01*
G75*
G02*
X115970000Y-71607000I0J-200000D01*
G01*
X115970000Y-72157000D01*
G75*
G02*
X115770000Y-72357000I-200000J0D01*
G01*
X115370000Y-72357000D01*
G75*
G02*
X115170000Y-72157000I0J200000D01*
G01*
G37*
%TD.AperFunction*%
%TO.P,R4,1*%
%TO.N,/Fire_B*%
%TA.AperFunction,SMDPad,CuDef*%
G36*
G01*
X113520000Y-72157000D02*
X113520000Y-71607000D01*
G75*
G02*
X113720000Y-71407000I200000J0D01*
G01*
X114120000Y-71407000D01*
G75*
G02*
X114320000Y-71607000I0J-200000D01*
G01*
X114320000Y-72157000D01*
G75*
G02*
X114120000Y-72357000I-200000J0D01*
G01*
X113720000Y-72357000D01*
G75*
G02*
X113520000Y-72157000I0J200000D01*
G01*
G37*
%TD.AperFunction*%
%TD*%
%TO.P,R3,1*%
%TO.N,/Fire_A*%
%TA.AperFunction,SMDPad,CuDef*%
G36*
G01*
X113583000Y-68220000D02*
X113583000Y-67670000D01*
G75*
G02*
X113783000Y-67470000I200000J0D01*
G01*
X114183000Y-67470000D01*
G75*
G02*
X114383000Y-67670000I0J-200000D01*
G01*
X114383000Y-68220000D01*
G75*
G02*
X114183000Y-68420000I-200000J0D01*
G01*
X113783000Y-68420000D01*
G75*
G02*
X113583000Y-68220000I0J200000D01*
G01*
G37*
%TD.AperFunction*%
%TO.P,R3,2*%
%TO.N,Net-(Q1-Pad2)*%
%TA.AperFunction,SMDPad,CuDef*%
G36*
G01*
X115233000Y-68220000D02*
X115233000Y-67670000D01*
G75*
G02*
X115433000Y-67470000I200000J0D01*
G01*
X115833000Y-67470000D01*
G75*
G02*
X116033000Y-67670000I0J-200000D01*
G01*
X116033000Y-68220000D01*
G75*
G02*
X115833000Y-68420000I-200000J0D01*
G01*
X115433000Y-68420000D01*
G75*
G02*
X115233000Y-68220000I0J200000D01*
G01*
G37*
%TD.AperFunction*%
%TD*%
%TO.P,R2,2*%
%TO.N,Net-(C2-Pad1)*%
%TA.AperFunction,SMDPad,CuDef*%
G36*
G01*
X159341000Y-73004000D02*
X159341000Y-73554000D01*
G75*
G02*
X159141000Y-73754000I-200000J0D01*
G01*
X158741000Y-73754000D01*
G75*
G02*
X158541000Y-73554000I0J200000D01*
G01*
X158541000Y-73004000D01*
G75*
G02*
X158741000Y-72804000I200000J0D01*
G01*
X159141000Y-72804000D01*
G75*
G02*
X159341000Y-73004000I0J-200000D01*
G01*
G37*
%TD.AperFunction*%
%TO.P,R2,1*%
%TO.N,+5V*%
%TA.AperFunction,SMDPad,CuDef*%
G36*
G01*
X160991000Y-73004000D02*
X160991000Y-73554000D01*
G75*
G02*
X160791000Y-73754000I-200000J0D01*
G01*
X160391000Y-73754000D01*
G75*
G02*
X160191000Y-73554000I0J200000D01*
G01*
X160191000Y-73004000D01*
G75*
G02*
X160391000Y-72804000I200000J0D01*
G01*
X160791000Y-72804000D01*
G75*
G02*
X160991000Y-73004000I0J-200000D01*
G01*
G37*
%TD.AperFunction*%
%TD*%
%TO.P,R1,2*%
%TO.N,+5V*%
%TA.AperFunction,SMDPad,CuDef*%
G36*
G01*
X160191000Y-66950000D02*
X160191000Y-66400000D01*
G75*
G02*
X160391000Y-66200000I200000J0D01*
G01*
X160791000Y-66200000D01*
G75*
G02*
X160991000Y-66400000I0J-200000D01*
G01*
X160991000Y-66950000D01*
G75*
G02*
X160791000Y-67150000I-200000J0D01*
G01*
X160391000Y-67150000D01*
G75*
G02*
X160191000Y-66950000I0J200000D01*
G01*
G37*
%TD.AperFunction*%
%TO.P,R1,1*%
%TO.N,Net-(C1-Pad1)*%
%TA.AperFunction,SMDPad,CuDef*%
G36*
G01*
X158541000Y-66950000D02*
X158541000Y-66400000D01*
G75*
G02*
X158741000Y-66200000I200000J0D01*
G01*
X159141000Y-66200000D01*
G75*
G02*
X159341000Y-66400000I0J-200000D01*
G01*
X159341000Y-66950000D01*
G75*
G02*
X159141000Y-67150000I-200000J0D01*
G01*
X158741000Y-67150000D01*
G75*
G02*
X158541000Y-66950000I0J200000D01*
G01*
G37*
%TD.AperFunction*%
%TD*%
D11*
%TO.P,Q2,16*%
%TO.N,/Fet_D*%
X126472000Y-124745000D03*
%TO.P,Q2,15*%
%TO.N,/Fet_C*%
X126472000Y-124429000D03*
D12*
%TO.P,Q2,14*%
%TO.N,/Fet_D*%
X125897000Y-125282000D03*
D13*
%TO.P,Q2,13*%
X125027000Y-125532000D03*
D14*
%TO.P,Q2,12*%
X124767000Y-125342000D03*
%TO.P,Q2,11*%
%TO.N,/Fet_C*%
X124767000Y-123832000D03*
D13*
%TO.P,Q2,10*%
X125027000Y-123642000D03*
D12*
%TO.P,Q2,9*%
X125897000Y-123892000D03*
D15*
%TO.P,Q2,8*%
X126852000Y-123612000D03*
%TO.P,Q2,7*%
X126852000Y-124262000D03*
%TO.P,Q2,6*%
%TO.N,/Fet_D*%
X126852000Y-124912000D03*
%TO.P,Q2,5*%
X126852000Y-125562000D03*
D16*
%TO.P,Q2,4*%
%TO.N,Net-(Q2-Pad4)*%
X123672000Y-125562000D03*
%TO.P,Q2,3*%
%TO.N,GND*%
X123672000Y-124912000D03*
%TO.P,Q2,2*%
%TO.N,Net-(Q2-Pad2)*%
X123672000Y-124262000D03*
%TO.P,Q2,1*%
%TO.N,GND*%
X123672000Y-123612000D03*
%TD*%
D11*
%TO.P,Q1,16*%
%TO.N,/Fet_B*%
X126345000Y-70135000D03*
%TO.P,Q1,15*%
%TO.N,/Fet_A*%
X126345000Y-69819000D03*
D12*
%TO.P,Q1,14*%
%TO.N,/Fet_B*%
X125770000Y-70672000D03*
D13*
%TO.P,Q1,13*%
X124900000Y-70922000D03*
D14*
%TO.P,Q1,12*%
X124640000Y-70732000D03*
%TO.P,Q1,11*%
%TO.N,/Fet_A*%
X124640000Y-69222000D03*
D13*
%TO.P,Q1,10*%
X124900000Y-69032000D03*
D12*
%TO.P,Q1,9*%
X125770000Y-69282000D03*
D15*
%TO.P,Q1,8*%
X126725000Y-69002000D03*
%TO.P,Q1,7*%
X126725000Y-69652000D03*
%TO.P,Q1,6*%
%TO.N,/Fet_B*%
X126725000Y-70302000D03*
%TO.P,Q1,5*%
X126725000Y-70952000D03*
D16*
%TO.P,Q1,4*%
%TO.N,Net-(Q1-Pad4)*%
X123545000Y-70952000D03*
%TO.P,Q1,3*%
%TO.N,GND*%
X123545000Y-70302000D03*
%TO.P,Q1,2*%
%TO.N,Net-(Q1-Pad2)*%
X123545000Y-69652000D03*
%TO.P,Q1,1*%
%TO.N,GND*%
X123545000Y-69002000D03*
%TD*%
D17*
%TO.P,J3,MH2*%
%TO.N,GND*%
X108585000Y-127800000D03*
%TO.P,J3,MH1*%
X108585000Y-64300000D03*
D18*
%TO.P,J3,37*%
%TO.N,+5V*%
X107315000Y-119595000D03*
%TO.P,J3,36*%
%TO.N,Net-(J3-Pad36)*%
X107315000Y-116825000D03*
%TO.P,J3,35*%
%TO.N,Net-(J3-Pad35)*%
X107315000Y-114055000D03*
%TO.P,J3,34*%
%TO.N,Net-(J3-Pad34)*%
X107315000Y-111285000D03*
%TO.P,J3,33*%
%TO.N,Net-(J3-Pad33)*%
X107315000Y-108515000D03*
%TO.P,J3,32*%
%TO.N,Net-(J3-Pad32)*%
X107315000Y-105745000D03*
%TO.P,J3,31*%
%TO.N,Net-(J3-Pad31)*%
X107315000Y-102975000D03*
%TO.P,J3,30*%
%TO.N,Net-(J3-Pad30)*%
X107315000Y-100205000D03*
%TO.P,J3,29*%
%TO.N,Net-(J3-Pad29)*%
X107315000Y-97435000D03*
%TO.P,J3,28*%
%TO.N,Net-(J3-Pad28)*%
X107315000Y-94665000D03*
%TO.P,J3,27*%
%TO.N,Net-(J3-Pad27)*%
X107315000Y-91895000D03*
%TO.P,J3,26*%
%TO.N,/Fire_Redundant*%
X107315000Y-89125000D03*
%TO.P,J3,25*%
%TO.N,/NRST*%
X107315000Y-86355000D03*
%TO.P,J3,24*%
%TO.N,/Alert_sda*%
X107315000Y-83585000D03*
%TO.P,J3,23*%
%TO.N,/SWCLK*%
X107315000Y-80815000D03*
%TO.P,J3,22*%
%TO.N,/Sheet61A437B4/t_clk*%
X107315000Y-78045000D03*
%TO.P,J3,21*%
%TO.N,/Sheet61A437B4/t_mosi*%
X107315000Y-75275000D03*
%TO.P,J3,20*%
%TO.N,+5V*%
X107315000Y-72505000D03*
%TO.P,J3,19*%
%TO.N,GND*%
X109855000Y-120980000D03*
%TO.P,J3,18*%
%TO.N,+3V3*%
X109855000Y-118210000D03*
%TO.P,J3,17*%
%TO.N,Net-(J3-Pad17)*%
X109855000Y-115440000D03*
%TO.P,J3,16*%
%TO.N,Net-(J3-Pad16)*%
X109855000Y-112670000D03*
%TO.P,J3,15*%
%TO.N,Net-(J3-Pad15)*%
X109855000Y-109900000D03*
%TO.P,J3,14*%
%TO.N,Net-(J3-Pad14)*%
X109855000Y-107130000D03*
%TO.P,J3,13*%
%TO.N,Net-(J3-Pad13)*%
X109855000Y-104360000D03*
%TO.P,J3,12*%
%TO.N,Net-(J3-Pad12)*%
X109855000Y-101590000D03*
%TO.P,J3,11*%
%TO.N,Net-(J3-Pad11)*%
X109855000Y-98820000D03*
%TO.P,J3,10*%
%TO.N,Net-(J3-Pad10)*%
X109855000Y-96050000D03*
%TO.P,J3,9*%
%TO.N,Net-(J3-Pad9)*%
X109855000Y-93280000D03*
%TO.P,J3,8*%
%TO.N,Net-(J3-Pad8)*%
X109855000Y-90510000D03*
%TO.P,J3,7*%
%TO.N,/Fire*%
X109855000Y-87740000D03*
%TO.P,J3,6*%
%TO.N,/Alert_Active*%
X109855000Y-84970000D03*
%TO.P,J3,5*%
%TO.N,/Alert_scl*%
X109855000Y-82200000D03*
%TO.P,J3,4*%
%TO.N,/SWDIO*%
X109855000Y-79430000D03*
%TO.P,J3,3*%
%TO.N,/Sheet61A437B4/t_miso*%
X109855000Y-76660000D03*
%TO.P,J3,2*%
%TO.N,+3V3*%
X109855000Y-73890000D03*
D19*
%TO.P,J3,1*%
%TO.N,GND*%
X109855000Y-71120000D03*
%TD*%
D20*
%TO.P,J2,4*%
%TO.N,Net-(J2-Pad4)*%
X169037000Y-132094000D03*
%TO.P,J2,3*%
%TO.N,/Fet_D*%
X169037000Y-127094000D03*
%TO.P,J2,2*%
%TO.N,Net-(J2-Pad2)*%
X169037000Y-122094000D03*
%TO.P,J2,1*%
%TO.N,/Fet_C*%
X169037000Y-117094000D03*
%TD*%
%TO.P,J1,4*%
%TO.N,Net-(J1-Pad4)*%
X168910000Y-75071000D03*
%TO.P,J1,3*%
%TO.N,/Fet_B*%
X168910000Y-70071000D03*
%TO.P,J1,2*%
%TO.N,Net-(J1-Pad2)*%
X168910000Y-65071000D03*
%TO.P,J1,1*%
%TO.N,/Fet_A*%
X168910000Y-60071000D03*
%TD*%
D21*
%TO.P,IC2,100*%
%TO.N,Net-(IC2-Pad100)*%
X146400000Y-88147000D03*
%TO.P,IC2,99*%
%TO.N,Net-(IC2-Pad99)*%
X146900000Y-88147000D03*
%TO.P,IC2,98*%
%TO.N,Net-(IC2-Pad98)*%
X147400000Y-88147000D03*
%TO.P,IC2,97*%
%TO.N,Net-(IC2-Pad97)*%
X147900000Y-88147000D03*
%TO.P,IC2,96*%
%TO.N,Net-(IC2-Pad96)*%
X148400000Y-88147000D03*
%TO.P,IC2,95*%
%TO.N,Net-(IC2-Pad95)*%
X148900000Y-88147000D03*
%TO.P,IC2,94*%
%TO.N,GND*%
X149400000Y-88147000D03*
%TO.P,IC2,93*%
%TO.N,Net-(IC2-Pad93)*%
X149900000Y-88147000D03*
%TO.P,IC2,92*%
%TO.N,Net-(IC2-Pad92)*%
X150400000Y-88147000D03*
%TO.P,IC2,91*%
%TO.N,Net-(IC2-Pad91)*%
X150900000Y-88147000D03*
%TO.P,IC2,90*%
%TO.N,Net-(IC2-Pad90)*%
X151400000Y-88147000D03*
%TO.P,IC2,89*%
%TO.N,Net-(IC2-Pad89)*%
X151900000Y-88147000D03*
%TO.P,IC2,88*%
%TO.N,Net-(IC2-Pad88)*%
X152400000Y-88147000D03*
%TO.P,IC2,87*%
%TO.N,Net-(IC2-Pad87)*%
X152900000Y-88147000D03*
%TO.P,IC2,86*%
%TO.N,Net-(IC2-Pad86)*%
X153400000Y-88147000D03*
%TO.P,IC2,85*%
%TO.N,Net-(IC2-Pad85)*%
X153900000Y-88147000D03*
%TO.P,IC2,84*%
%TO.N,Net-(IC2-Pad84)*%
X154400000Y-88147000D03*
%TO.P,IC2,83*%
%TO.N,Net-(IC2-Pad83)*%
X154900000Y-88147000D03*
%TO.P,IC2,82*%
%TO.N,Net-(IC2-Pad82)*%
X155400000Y-88147000D03*
%TO.P,IC2,81*%
%TO.N,Net-(IC2-Pad81)*%
X155900000Y-88147000D03*
%TO.P,IC2,80*%
%TO.N,/Alert_Active*%
X156400000Y-88147000D03*
%TO.P,IC2,79*%
%TO.N,/Alert_sda*%
X156900000Y-88147000D03*
%TO.P,IC2,78*%
%TO.N,/Alert_scl*%
X157400000Y-88147000D03*
%TO.P,IC2,77*%
%TO.N,/SWCLK*%
X157900000Y-88147000D03*
%TO.P,IC2,76*%
%TO.N,/SWDIO*%
X158400000Y-88147000D03*
D22*
%TO.P,IC2,75*%
%TO.N,+3V3*%
X160138000Y-89885000D03*
%TO.P,IC2,74*%
%TO.N,GND*%
X160138000Y-90385000D03*
%TO.P,IC2,73*%
%TO.N,Net-(IC2-Pad73)*%
X160138000Y-90885000D03*
%TO.P,IC2,72*%
%TO.N,Net-(IC2-Pad72)*%
X160138000Y-91385000D03*
%TO.P,IC2,71*%
%TO.N,Net-(IC2-Pad71)*%
X160138000Y-91885000D03*
%TO.P,IC2,70*%
%TO.N,Net-(IC2-Pad70)*%
X160138000Y-92385000D03*
%TO.P,IC2,69*%
%TO.N,Net-(IC2-Pad69)*%
X160138000Y-92885000D03*
%TO.P,IC2,68*%
%TO.N,Net-(IC2-Pad68)*%
X160138000Y-93385000D03*
%TO.P,IC2,67*%
%TO.N,Net-(IC2-Pad67)*%
X160138000Y-93885000D03*
%TO.P,IC2,66*%
%TO.N,Net-(IC2-Pad66)*%
X160138000Y-94385000D03*
%TO.P,IC2,65*%
%TO.N,Net-(IC2-Pad65)*%
X160138000Y-94885000D03*
%TO.P,IC2,64*%
%TO.N,Net-(IC2-Pad64)*%
X160138000Y-95385000D03*
%TO.P,IC2,63*%
%TO.N,Net-(IC2-Pad63)*%
X160138000Y-95885000D03*
%TO.P,IC2,62*%
%TO.N,Net-(IC2-Pad62)*%
X160138000Y-96385000D03*
%TO.P,IC2,61*%
%TO.N,/Sense_B*%
X160138000Y-96885000D03*
%TO.P,IC2,60*%
%TO.N,/Fire_A*%
X160138000Y-97385000D03*
%TO.P,IC2,59*%
%TO.N,/Fire_B*%
X160138000Y-97885000D03*
%TO.P,IC2,58*%
%TO.N,/Sense_A*%
X160138000Y-98385000D03*
%TO.P,IC2,57*%
%TO.N,/Sense_D*%
X160138000Y-98885000D03*
%TO.P,IC2,56*%
%TO.N,/Fire_C*%
X160138000Y-99385000D03*
%TO.P,IC2,55*%
%TO.N,/Fire_D*%
X160138000Y-99885000D03*
%TO.P,IC2,54*%
%TO.N,/Sense_C*%
X160138000Y-100385000D03*
%TO.P,IC2,53*%
%TO.N,Net-(IC2-Pad53)*%
X160138000Y-100885000D03*
%TO.P,IC2,52*%
%TO.N,Net-(IC2-Pad52)*%
X160138000Y-101385000D03*
%TO.P,IC2,51*%
%TO.N,Net-(IC2-Pad51)*%
X160138000Y-101885000D03*
D21*
%TO.P,IC2,50*%
%TO.N,Net-(IC2-Pad50)*%
X158400000Y-103623000D03*
%TO.P,IC2,49*%
%TO.N,Net-(IC2-Pad49)*%
X157900000Y-103623000D03*
%TO.P,IC2,48*%
%TO.N,Net-(IC2-Pad48)*%
X157400000Y-103623000D03*
%TO.P,IC2,47*%
%TO.N,Net-(IC2-Pad47)*%
X156900000Y-103623000D03*
%TO.P,IC2,46*%
%TO.N,Net-(IC2-Pad46)*%
X156400000Y-103623000D03*
%TO.P,IC2,45*%
%TO.N,Net-(C11-Pad2)*%
X155900000Y-103623000D03*
%TO.P,IC2,44*%
%TO.N,Net-(C10-Pad2)*%
X155400000Y-103623000D03*
%TO.P,IC2,43*%
%TO.N,Net-(IC2-Pad43)*%
X154900000Y-103623000D03*
%TO.P,IC2,42*%
%TO.N,Net-(IC2-Pad42)*%
X154400000Y-103623000D03*
%TO.P,IC2,41*%
%TO.N,Net-(IC2-Pad41)*%
X153900000Y-103623000D03*
%TO.P,IC2,40*%
%TO.N,Net-(IC2-Pad40)*%
X153400000Y-103623000D03*
%TO.P,IC2,39*%
%TO.N,Net-(IC2-Pad39)*%
X152900000Y-103623000D03*
%TO.P,IC2,38*%
%TO.N,Net-(IC2-Pad38)*%
X152400000Y-103623000D03*
%TO.P,IC2,37*%
%TO.N,Net-(IC2-Pad37)*%
X151900000Y-103623000D03*
%TO.P,IC2,36*%
%TO.N,Net-(IC2-Pad36)*%
X151400000Y-103623000D03*
%TO.P,IC2,35*%
%TO.N,Net-(IC2-Pad35)*%
X150900000Y-103623000D03*
%TO.P,IC2,34*%
%TO.N,Net-(IC2-Pad34)*%
X150400000Y-103623000D03*
%TO.P,IC2,33*%
%TO.N,Net-(IC2-Pad33)*%
X149900000Y-103623000D03*
%TO.P,IC2,32*%
%TO.N,Net-(IC2-Pad32)*%
X149400000Y-103623000D03*
%TO.P,IC2,31*%
%TO.N,/Buzzer_Excitation*%
X148900000Y-103623000D03*
%TO.P,IC2,30*%
%TO.N,Net-(IC2-Pad30)*%
X148400000Y-103623000D03*
%TO.P,IC2,29*%
%TO.N,Net-(IC2-Pad29)*%
X147900000Y-103623000D03*
%TO.P,IC2,28*%
%TO.N,Net-(IC2-Pad28)*%
X147400000Y-103623000D03*
%TO.P,IC2,27*%
%TO.N,Net-(IC2-Pad27)*%
X146900000Y-103623000D03*
%TO.P,IC2,26*%
%TO.N,Net-(IC2-Pad26)*%
X146400000Y-103623000D03*
D22*
%TO.P,IC2,25*%
%TO.N,Net-(IC2-Pad25)*%
X144662000Y-101885000D03*
%TO.P,IC2,24*%
%TO.N,Net-(IC2-Pad24)*%
X144662000Y-101385000D03*
%TO.P,IC2,23*%
%TO.N,Net-(IC2-Pad23)*%
X144662000Y-100885000D03*
%TO.P,IC2,22*%
%TO.N,Net-(IC2-Pad22)*%
X144662000Y-100385000D03*
%TO.P,IC2,21*%
%TO.N,Net-(IC2-Pad21)*%
X144662000Y-99885000D03*
%TO.P,IC2,20*%
%TO.N,Net-(IC2-Pad20)*%
X144662000Y-99385000D03*
%TO.P,IC2,19*%
%TO.N,Net-(IC2-Pad19)*%
X144662000Y-98885000D03*
%TO.P,IC2,18*%
%TO.N,Net-(IC2-Pad18)*%
X144662000Y-98385000D03*
%TO.P,IC2,17*%
%TO.N,Net-(IC2-Pad17)*%
X144662000Y-97885000D03*
%TO.P,IC2,16*%
%TO.N,/Fire_Redundant*%
X144662000Y-97385000D03*
%TO.P,IC2,15*%
%TO.N,/Fire*%
X144662000Y-96885000D03*
%TO.P,IC2,14*%
%TO.N,/NRST*%
X144662000Y-96385000D03*
%TO.P,IC2,13*%
%TO.N,Net-(IC2-Pad13)*%
X144662000Y-95885000D03*
%TO.P,IC2,12*%
%TO.N,Net-(IC2-Pad12)*%
X144662000Y-95385000D03*
%TO.P,IC2,11*%
%TO.N,Net-(IC2-Pad11)*%
X144662000Y-94885000D03*
%TO.P,IC2,10*%
%TO.N,Net-(IC2-Pad10)*%
X144662000Y-94385000D03*
%TO.P,IC2,9*%
%TO.N,Net-(IC2-Pad9)*%
X144662000Y-93885000D03*
%TO.P,IC2,8*%
%TO.N,Net-(IC2-Pad8)*%
X144662000Y-93385000D03*
%TO.P,IC2,7*%
%TO.N,Net-(IC2-Pad7)*%
X144662000Y-92885000D03*
%TO.P,IC2,6*%
%TO.N,Net-(IC2-Pad6)*%
X144662000Y-92385000D03*
%TO.P,IC2,5*%
%TO.N,Net-(IC2-Pad5)*%
X144662000Y-91885000D03*
%TO.P,IC2,4*%
%TO.N,Net-(IC2-Pad4)*%
X144662000Y-91385000D03*
%TO.P,IC2,3*%
%TO.N,Net-(IC2-Pad3)*%
X144662000Y-90885000D03*
%TO.P,IC2,2*%
%TO.N,Net-(IC2-Pad2)*%
X144662000Y-90385000D03*
%TO.P,IC2,1*%
%TO.N,Net-(IC2-Pad1)*%
X144662000Y-89885000D03*
%TD*%
D23*
%TO.P,IC1,2*%
%TO.N,GND*%
X119841000Y-109728000D03*
%TO.P,IC1,1*%
%TO.N,/Buzzer_Excitation*%
X124841000Y-109728000D03*
%TD*%
%TO.P,C11,2*%
%TO.N,Net-(C11-Pad2)*%
%TA.AperFunction,SMDPad,CuDef*%
G36*
G01*
X160651000Y-111435000D02*
X160151000Y-111435000D01*
G75*
G02*
X159926000Y-111210000I0J225000D01*
G01*
X159926000Y-110760000D01*
G75*
G02*
X160151000Y-110535000I225000J0D01*
G01*
X160651000Y-110535000D01*
G75*
G02*
X160876000Y-110760000I0J-225000D01*
G01*
X160876000Y-111210000D01*
G75*
G02*
X160651000Y-111435000I-225000J0D01*
G01*
G37*
%TD.AperFunction*%
%TO.P,C11,1*%
%TO.N,GND*%
%TA.AperFunction,SMDPad,CuDef*%
G36*
G01*
X160651000Y-112985000D02*
X160151000Y-112985000D01*
G75*
G02*
X159926000Y-112760000I0J225000D01*
G01*
X159926000Y-112310000D01*
G75*
G02*
X160151000Y-112085000I225000J0D01*
G01*
X160651000Y-112085000D01*
G75*
G02*
X160876000Y-112310000I0J-225000D01*
G01*
X160876000Y-112760000D01*
G75*
G02*
X160651000Y-112985000I-225000J0D01*
G01*
G37*
%TD.AperFunction*%
%TD*%
%TO.P,C10,2*%
%TO.N,Net-(C10-Pad2)*%
%TA.AperFunction,SMDPad,CuDef*%
G36*
G01*
X154936000Y-111435000D02*
X154436000Y-111435000D01*
G75*
G02*
X154211000Y-111210000I0J225000D01*
G01*
X154211000Y-110760000D01*
G75*
G02*
X154436000Y-110535000I225000J0D01*
G01*
X154936000Y-110535000D01*
G75*
G02*
X155161000Y-110760000I0J-225000D01*
G01*
X155161000Y-111210000D01*
G75*
G02*
X154936000Y-111435000I-225000J0D01*
G01*
G37*
%TD.AperFunction*%
%TO.P,C10,1*%
%TO.N,GND*%
%TA.AperFunction,SMDPad,CuDef*%
G36*
G01*
X154936000Y-112985000D02*
X154436000Y-112985000D01*
G75*
G02*
X154211000Y-112760000I0J225000D01*
G01*
X154211000Y-112310000D01*
G75*
G02*
X154436000Y-112085000I225000J0D01*
G01*
X154936000Y-112085000D01*
G75*
G02*
X155161000Y-112310000I0J-225000D01*
G01*
X155161000Y-112760000D01*
G75*
G02*
X154936000Y-112985000I-225000J0D01*
G01*
G37*
%TD.AperFunction*%
%TD*%
%TO.P,C9,2*%
%TO.N,+3V3*%
%TA.AperFunction,SMDPad,CuDef*%
G36*
G01*
X171446000Y-90493000D02*
X170946000Y-90493000D01*
G75*
G02*
X170721000Y-90268000I0J225000D01*
G01*
X170721000Y-89818000D01*
G75*
G02*
X170946000Y-89593000I225000J0D01*
G01*
X171446000Y-89593000D01*
G75*
G02*
X171671000Y-89818000I0J-225000D01*
G01*
X171671000Y-90268000D01*
G75*
G02*
X171446000Y-90493000I-225000J0D01*
G01*
G37*
%TD.AperFunction*%
%TO.P,C9,1*%
%TO.N,GND*%
%TA.AperFunction,SMDPad,CuDef*%
G36*
G01*
X171446000Y-92043000D02*
X170946000Y-92043000D01*
G75*
G02*
X170721000Y-91818000I0J225000D01*
G01*
X170721000Y-91368000D01*
G75*
G02*
X170946000Y-91143000I225000J0D01*
G01*
X171446000Y-91143000D01*
G75*
G02*
X171671000Y-91368000I0J-225000D01*
G01*
X171671000Y-91818000D01*
G75*
G02*
X171446000Y-92043000I-225000J0D01*
G01*
G37*
%TD.AperFunction*%
%TD*%
%TO.P,C8,2*%
%TO.N,+3V3*%
%TA.AperFunction,SMDPad,CuDef*%
G36*
G01*
X167763000Y-90480000D02*
X167263000Y-90480000D01*
G75*
G02*
X167038000Y-90255000I0J225000D01*
G01*
X167038000Y-89805000D01*
G75*
G02*
X167263000Y-89580000I225000J0D01*
G01*
X167763000Y-89580000D01*
G75*
G02*
X167988000Y-89805000I0J-225000D01*
G01*
X167988000Y-90255000D01*
G75*
G02*
X167763000Y-90480000I-225000J0D01*
G01*
G37*
%TD.AperFunction*%
%TO.P,C8,1*%
%TO.N,GND*%
%TA.AperFunction,SMDPad,CuDef*%
G36*
G01*
X167763000Y-92030000D02*
X167263000Y-92030000D01*
G75*
G02*
X167038000Y-91805000I0J225000D01*
G01*
X167038000Y-91355000D01*
G75*
G02*
X167263000Y-91130000I225000J0D01*
G01*
X167763000Y-91130000D01*
G75*
G02*
X167988000Y-91355000I0J-225000D01*
G01*
X167988000Y-91805000D01*
G75*
G02*
X167763000Y-92030000I-225000J0D01*
G01*
G37*
%TD.AperFunction*%
%TD*%
%TO.P,C7,2*%
%TO.N,+3V3*%
%TA.AperFunction,SMDPad,CuDef*%
G36*
G01*
X164207000Y-90493000D02*
X163707000Y-90493000D01*
G75*
G02*
X163482000Y-90268000I0J225000D01*
G01*
X163482000Y-89818000D01*
G75*
G02*
X163707000Y-89593000I225000J0D01*
G01*
X164207000Y-89593000D01*
G75*
G02*
X164432000Y-89818000I0J-225000D01*
G01*
X164432000Y-90268000D01*
G75*
G02*
X164207000Y-90493000I-225000J0D01*
G01*
G37*
%TD.AperFunction*%
%TO.P,C7,1*%
%TO.N,GND*%
%TA.AperFunction,SMDPad,CuDef*%
G36*
G01*
X164207000Y-92043000D02*
X163707000Y-92043000D01*
G75*
G02*
X163482000Y-91818000I0J225000D01*
G01*
X163482000Y-91368000D01*
G75*
G02*
X163707000Y-91143000I225000J0D01*
G01*
X164207000Y-91143000D01*
G75*
G02*
X164432000Y-91368000I0J-225000D01*
G01*
X164432000Y-91818000D01*
G75*
G02*
X164207000Y-92043000I-225000J0D01*
G01*
G37*
%TD.AperFunction*%
%TD*%
%TO.P,C6,2*%
%TO.N,+3V3*%
%TA.AperFunction,SMDPad,CuDef*%
G36*
G01*
X115820000Y-82860000D02*
X115320000Y-82860000D01*
G75*
G02*
X115095000Y-82635000I0J225000D01*
G01*
X115095000Y-82185000D01*
G75*
G02*
X115320000Y-81960000I225000J0D01*
G01*
X115820000Y-81960000D01*
G75*
G02*
X116045000Y-82185000I0J-225000D01*
G01*
X116045000Y-82635000D01*
G75*
G02*
X115820000Y-82860000I-225000J0D01*
G01*
G37*
%TD.AperFunction*%
%TO.P,C6,1*%
%TO.N,GND*%
%TA.AperFunction,SMDPad,CuDef*%
G36*
G01*
X115820000Y-84410000D02*
X115320000Y-84410000D01*
G75*
G02*
X115095000Y-84185000I0J225000D01*
G01*
X115095000Y-83735000D01*
G75*
G02*
X115320000Y-83510000I225000J0D01*
G01*
X115820000Y-83510000D01*
G75*
G02*
X116045000Y-83735000I0J-225000D01*
G01*
X116045000Y-84185000D01*
G75*
G02*
X115820000Y-84410000I-225000J0D01*
G01*
G37*
%TD.AperFunction*%
%TD*%
%TO.P,C5,2*%
%TO.N,GND*%
%TA.AperFunction,SMDPad,CuDef*%
G36*
G01*
X141728000Y-93147000D02*
X141228000Y-93147000D01*
G75*
G02*
X141003000Y-92922000I0J225000D01*
G01*
X141003000Y-92472000D01*
G75*
G02*
X141228000Y-92247000I225000J0D01*
G01*
X141728000Y-92247000D01*
G75*
G02*
X141953000Y-92472000I0J-225000D01*
G01*
X141953000Y-92922000D01*
G75*
G02*
X141728000Y-93147000I-225000J0D01*
G01*
G37*
%TD.AperFunction*%
%TO.P,C5,1*%
%TO.N,/NRST*%
%TA.AperFunction,SMDPad,CuDef*%
G36*
G01*
X141728000Y-94697000D02*
X141228000Y-94697000D01*
G75*
G02*
X141003000Y-94472000I0J225000D01*
G01*
X141003000Y-94022000D01*
G75*
G02*
X141228000Y-93797000I225000J0D01*
G01*
X141728000Y-93797000D01*
G75*
G02*
X141953000Y-94022000I0J-225000D01*
G01*
X141953000Y-94472000D01*
G75*
G02*
X141728000Y-94697000I-225000J0D01*
G01*
G37*
%TD.AperFunction*%
%TD*%
D24*
%TO.P,C4,2*%
%TO.N,GND*%
X140067000Y-129667000D03*
D25*
%TO.P,C4,1*%
%TO.N,Net-(C4-Pad1)*%
X155067000Y-129667000D03*
%TD*%
D24*
%TO.P,C3,2*%
%TO.N,GND*%
X140067000Y-119634000D03*
D25*
%TO.P,C3,1*%
%TO.N,Net-(C3-Pad1)*%
X155067000Y-119634000D03*
%TD*%
D24*
%TO.P,C2,2*%
%TO.N,GND*%
X139940000Y-75057000D03*
D25*
%TO.P,C2,1*%
%TO.N,Net-(C2-Pad1)*%
X154940000Y-75057000D03*
%TD*%
D24*
%TO.P,C1,2*%
%TO.N,GND*%
X139940000Y-64897000D03*
D25*
%TO.P,C1,1*%
%TO.N,Net-(C1-Pad1)*%
X154940000Y-64897000D03*
%TD*%
D26*
%TO.N,GND*%
X171196000Y-94107000D03*
X141478000Y-82677000D03*
X115570000Y-86487000D03*
X157607000Y-114427000D03*
%TO.N,+3V3*%
X171196000Y-87122000D03*
X115570000Y-80010000D03*
%TO.N,/Fire_D*%
X114173000Y-129413000D03*
X165481000Y-101473000D03*
%TO.N,/Fire_C*%
X114046000Y-120015000D03*
X165481000Y-100076000D03*
%TO.N,/Fire_B*%
X165481000Y-96266000D03*
X113792000Y-74041000D03*
%TO.N,/Fire_A*%
X113919000Y-66167000D03*
X165481000Y-94996000D03*
%TO.N,/Sense_D*%
X165481000Y-98806000D03*
X134620000Y-129032000D03*
%TO.N,/Sense_C*%
X134747000Y-120523000D03*
X165481000Y-102997000D03*
%TO.N,/Sense_B*%
X134747000Y-74549000D03*
X165481000Y-93726000D03*
%TO.N,/Sense_A*%
X134747000Y-65913000D03*
X165481000Y-97536000D03*
%TO.N,/Alert_Active*%
X153797000Y-84709000D03*
%TO.N,/SWCLK*%
X158369000Y-84709000D03*
%TO.N,/SWDIO*%
X159766000Y-84709000D03*
%TO.N,/Alert_sda*%
X155448000Y-84709000D03*
%TO.N,/Alert_scl*%
X156718000Y-84709000D03*
%TD*%
D27*
%TO.N,GND*%
X121264002Y-66231000D02*
X119126000Y-66231000D01*
X124250001Y-69216999D02*
X121264002Y-66231000D01*
X122041002Y-73596000D02*
X124250001Y-71387001D01*
X119126000Y-73596000D02*
X122041002Y-73596000D01*
X124035002Y-69002000D02*
X124250001Y-69216999D01*
X123545000Y-69002000D02*
X124035002Y-69002000D01*
X124238002Y-70302000D02*
X124250001Y-70313999D01*
X123545000Y-70302000D02*
X124238002Y-70302000D01*
X124250001Y-70313999D02*
X124250001Y-69216999D01*
X124250001Y-71387001D02*
X124250001Y-70313999D01*
X136334000Y-72009000D02*
X136334000Y-68072000D01*
X136892000Y-72009000D02*
X139940000Y-75057000D01*
X136334000Y-72009000D02*
X136892000Y-72009000D01*
X136765000Y-68072000D02*
X139940000Y-64897000D01*
X136334000Y-68072000D02*
X136765000Y-68072000D01*
X119448000Y-83810000D02*
X121598000Y-83810000D01*
X121598000Y-83810000D02*
X121598000Y-85060000D01*
X121598000Y-85060000D02*
X119448000Y-85060000D01*
X119448000Y-85060000D02*
X119448000Y-83810000D01*
X119298000Y-83960000D02*
X119448000Y-83810000D01*
X115570000Y-83960000D02*
X119298000Y-83960000D01*
X121658000Y-124912000D02*
X123672000Y-124912000D01*
X120078000Y-126492000D02*
X121658000Y-124912000D01*
X124377001Y-123826999D02*
X124162002Y-123612000D01*
X124377001Y-124697001D02*
X124377001Y-123826999D01*
X124162002Y-124912000D02*
X124377001Y-124697001D01*
X124162002Y-123612000D02*
X123672000Y-123612000D01*
X123672000Y-124912000D02*
X124162002Y-124912000D01*
X136334000Y-122682000D02*
X136334000Y-126492000D01*
X136892000Y-126492000D02*
X140067000Y-129667000D01*
X136334000Y-126492000D02*
X136892000Y-126492000D01*
X137019000Y-122682000D02*
X140067000Y-119634000D01*
X136334000Y-122682000D02*
X137019000Y-122682000D01*
X167500000Y-91593000D02*
X167513000Y-91580000D01*
X163957000Y-91593000D02*
X167500000Y-91593000D01*
X167526000Y-91593000D02*
X167513000Y-91580000D01*
X171196000Y-91593000D02*
X167526000Y-91593000D01*
X108585000Y-122250000D02*
X109855000Y-120980000D01*
X108585000Y-127800000D02*
X110020000Y-126365000D01*
X120078000Y-124396000D02*
X120078000Y-126492000D01*
X120078000Y-122555000D02*
X120078000Y-124396000D01*
X109855000Y-65570000D02*
X108585000Y-64300000D01*
X109911000Y-68270000D02*
X109855000Y-68326000D01*
X109855000Y-68326000D02*
X109855000Y-65570000D01*
X109855000Y-71120000D02*
X109855000Y-68326000D01*
X141478000Y-92697000D02*
X141478000Y-82677000D01*
X149400000Y-87174498D02*
X149400000Y-88147000D01*
X144902502Y-82677000D02*
X149400000Y-87174498D01*
X141478000Y-82677000D02*
X144902502Y-82677000D01*
X171196000Y-91593000D02*
X171196000Y-94107000D01*
X115570000Y-86487000D02*
X115570000Y-83960000D01*
X157620000Y-114414000D02*
X157607000Y-114427000D01*
X154686000Y-112535000D02*
X157620000Y-112535000D01*
X157620000Y-112535000D02*
X157620000Y-114414000D01*
X157620000Y-112535000D02*
X160401000Y-112535000D01*
X162749000Y-90385000D02*
X163957000Y-91593000D01*
X160138000Y-90385000D02*
X162749000Y-90385000D01*
X108712000Y-124460000D02*
X108585000Y-124333000D01*
X120014000Y-124460000D02*
X108712000Y-124460000D01*
X120078000Y-124396000D02*
X120014000Y-124460000D01*
X108585000Y-124333000D02*
X108585000Y-122250000D01*
X108585000Y-127800000D02*
X108585000Y-124333000D01*
X117195000Y-64300000D02*
X108585000Y-64300000D01*
X119126000Y-66231000D02*
X117195000Y-64300000D01*
%TO.N,+3V3*%
X119448000Y-82560000D02*
X119448000Y-81310000D01*
X119298000Y-82410000D02*
X119448000Y-82560000D01*
X115570000Y-82410000D02*
X119298000Y-82410000D01*
X167500000Y-90043000D02*
X167513000Y-90030000D01*
X163957000Y-90043000D02*
X167500000Y-90043000D01*
X171183000Y-90030000D02*
X171196000Y-90043000D01*
X167513000Y-90030000D02*
X171183000Y-90030000D01*
X163799000Y-89885000D02*
X160138000Y-89885000D01*
X163957000Y-90043000D02*
X163799000Y-89885000D01*
X171196000Y-90043000D02*
X171196000Y-87122000D01*
X115570000Y-80010000D02*
X115570000Y-82410000D01*
%TO.N,/Fire_D*%
X165481000Y-101149002D02*
X165481000Y-101473000D01*
X164216998Y-99885000D02*
X165481000Y-101149002D01*
X160138000Y-99885000D02*
X164216998Y-99885000D01*
X114110000Y-129350000D02*
X114173000Y-129413000D01*
X114110000Y-126492000D02*
X114110000Y-129350000D01*
%TO.N,/Fire_C*%
X164790000Y-99385000D02*
X165481000Y-100076000D01*
X160138000Y-99385000D02*
X164790000Y-99385000D01*
X114110000Y-120079000D02*
X114046000Y-120015000D01*
X114110000Y-122555000D02*
X114110000Y-120079000D01*
%TO.N,/Fire_B*%
X160138000Y-97885000D02*
X164439998Y-97885000D01*
X165481000Y-96338818D02*
X165481000Y-96266000D01*
X164439998Y-97885000D02*
X164439998Y-97632410D01*
X164439998Y-97632410D02*
X164755999Y-97316409D01*
X164755999Y-97316409D02*
X164755999Y-97063819D01*
X164755999Y-97063819D02*
X165481000Y-96338818D01*
X113792000Y-74041000D02*
X113792000Y-72010000D01*
X113792000Y-72010000D02*
X113920000Y-71882000D01*
%TO.N,/Fire_A*%
X113983000Y-66231000D02*
X113919000Y-66167000D01*
X113983000Y-67945000D02*
X113983000Y-66231000D01*
X160138000Y-97385000D02*
X164050998Y-97385000D01*
X164755999Y-95721001D02*
X165481000Y-94996000D01*
X164755999Y-96427409D02*
X164755999Y-95721001D01*
X164050998Y-97132410D02*
X164755999Y-96427409D01*
X164050998Y-97385000D02*
X164050998Y-97132410D01*
%TO.N,/Sense_D*%
X131953000Y-126492000D02*
X134684000Y-126492000D01*
X165402000Y-98885000D02*
X165481000Y-98806000D01*
X160138000Y-98885000D02*
X165402000Y-98885000D01*
X134620000Y-126556000D02*
X134684000Y-126492000D01*
X134620000Y-129032000D02*
X134620000Y-126556000D01*
%TO.N,/Sense_C*%
X132016000Y-122682000D02*
X134684000Y-122682000D01*
X165481000Y-102546002D02*
X165481000Y-102997000D01*
X163319998Y-100385000D02*
X165481000Y-102546002D01*
X160138000Y-100385000D02*
X163319998Y-100385000D01*
X134684000Y-120586000D02*
X134747000Y-120523000D01*
X134684000Y-122682000D02*
X134684000Y-120586000D01*
%TO.N,/Sense_B*%
X131889000Y-72009000D02*
X134684000Y-72009000D01*
X134684000Y-74486000D02*
X134747000Y-74549000D01*
X134684000Y-72009000D02*
X134684000Y-74486000D01*
X160138000Y-96885000D02*
X163661998Y-96885000D01*
X165481000Y-93922998D02*
X165481000Y-93726000D01*
X163661998Y-95742000D02*
X165481000Y-93922998D01*
X163661998Y-96885000D02*
X163661998Y-95742000D01*
%TO.N,/Sense_A*%
X132016000Y-68072000D02*
X134684000Y-68072000D01*
X134684000Y-65976000D02*
X134747000Y-65913000D01*
X134684000Y-68072000D02*
X134684000Y-65976000D01*
X160138000Y-98385000D02*
X164828998Y-98385000D01*
X164828998Y-98188002D02*
X165481000Y-97536000D01*
X164828998Y-98385000D02*
X164828998Y-98188002D01*
%TO.N,/Fire_Redundant*%
X138487159Y-102587339D02*
X143689498Y-97385000D01*
X143689498Y-97385000D02*
X144662000Y-97385000D01*
X129940994Y-102587339D02*
X138487159Y-102587339D01*
X116478655Y-89125000D02*
X129940994Y-102587339D01*
X107315000Y-89125000D02*
X116478655Y-89125000D01*
%TO.N,/Fire*%
X139573000Y-93263651D02*
X139573000Y-96901000D01*
X139589000Y-96885000D02*
X139573000Y-96901000D01*
X144662000Y-96885000D02*
X139589000Y-96885000D01*
X134049349Y-87740000D02*
X139573000Y-93263651D01*
X109855000Y-87740000D02*
X134049349Y-87740000D01*
%TO.N,Net-(C10-Pad2)*%
X155400000Y-110746000D02*
X155400000Y-103623000D01*
X155161000Y-110985000D02*
X155400000Y-110746000D01*
X154686000Y-110985000D02*
X155161000Y-110985000D01*
%TO.N,/Alert_Active*%
X156400000Y-86746315D02*
X156400000Y-88147000D01*
X154362685Y-84709000D02*
X156400000Y-86746315D01*
X153797000Y-84709000D02*
X154362685Y-84709000D01*
%TO.N,/SWCLK*%
X119572999Y-79284999D02*
X121598000Y-81310000D01*
X115221999Y-79284999D02*
X119572999Y-79284999D01*
X113691998Y-80815000D02*
X115221999Y-79284999D01*
X107315000Y-80815000D02*
X113691998Y-80815000D01*
X157900000Y-85178000D02*
X157900000Y-88147000D01*
X158369000Y-84709000D02*
X157900000Y-85178000D01*
%TO.N,/SWDIO*%
X122398001Y-81759999D02*
X121598000Y-82560000D01*
X122398001Y-80774999D02*
X122398001Y-81759999D01*
X120228003Y-78605001D02*
X122398001Y-80774999D01*
X110679999Y-78605001D02*
X120228003Y-78605001D01*
X109855000Y-79430000D02*
X110679999Y-78605001D01*
X159766000Y-86781000D02*
X158400000Y-88147000D01*
X159766000Y-84709000D02*
X159766000Y-86781000D01*
%TO.N,/Alert_sda*%
X156900000Y-86161000D02*
X156900000Y-88147000D01*
X155448000Y-84709000D02*
X156900000Y-86161000D01*
%TO.N,/Alert_scl*%
X157400000Y-85391000D02*
X157400000Y-88147000D01*
X156718000Y-84709000D02*
X157400000Y-85391000D01*
%TO.N,/Buzzer_Excitation*%
X148900000Y-104592000D02*
X148900000Y-103623000D01*
X141859000Y-111633000D02*
X148900000Y-104592000D01*
X124714000Y-111633000D02*
X141859000Y-111633000D01*
%TO.N,/NRST*%
X134520990Y-87289990D02*
X141478000Y-94247000D01*
X115299988Y-87289990D02*
X134520990Y-87289990D01*
X114364998Y-86355000D02*
X115299988Y-87289990D01*
X107315000Y-86355000D02*
X114364998Y-86355000D01*
X143616000Y-96385000D02*
X144662000Y-96385000D01*
X141478000Y-94247000D02*
X143616000Y-96385000D01*
%TO.N,+5V*%
X105859999Y-71049999D02*
X107315000Y-72505000D01*
X170149999Y-58770999D02*
X112112999Y-58770999D01*
X170210001Y-58831001D02*
X170149999Y-58770999D01*
X170210001Y-65695001D02*
X170210001Y-58831001D01*
X167134003Y-68770999D02*
X170210001Y-65695001D01*
X161480001Y-68770999D02*
X167134003Y-68770999D01*
X160591000Y-69660000D02*
X161480001Y-68770999D01*
X160591000Y-73279000D02*
X160591000Y-69660000D01*
X105859999Y-62991999D02*
X105859999Y-71049999D01*
X160591000Y-69660000D02*
X160591000Y-66675000D01*
X106164999Y-73655001D02*
X107315000Y-72505000D01*
X106164999Y-118444999D02*
X106164999Y-73655001D01*
X107315000Y-119595000D02*
X106164999Y-118444999D01*
X109308999Y-61574999D02*
X112112999Y-58770999D01*
X107276999Y-61574999D02*
X109308999Y-61574999D01*
X105859999Y-62991999D02*
X107276999Y-61574999D01*
%TO.N,Net-(C1-Pad1)*%
X158877000Y-64897000D02*
X158941000Y-64961000D01*
X154940000Y-64897000D02*
X158877000Y-64897000D01*
X158941000Y-64961000D02*
X158941000Y-66675000D01*
X158941000Y-63119000D02*
X158941000Y-64961000D01*
%TO.N,Net-(C2-Pad1)*%
X158878000Y-75057000D02*
X158941000Y-75120000D01*
X154940000Y-75057000D02*
X158878000Y-75057000D01*
X158941000Y-75120000D02*
X158941000Y-76835000D01*
X158941000Y-73279000D02*
X158941000Y-75120000D01*
%TO.N,Net-(J1-Pad2)*%
X166958000Y-63119000D02*
X168910000Y-65071000D01*
X160591000Y-63119000D02*
X166958000Y-63119000D01*
%TO.N,Net-(J1-Pad4)*%
X167146000Y-76835000D02*
X168910000Y-75071000D01*
X160591000Y-76835000D02*
X167146000Y-76835000D01*
%TO.N,/Fet_A*%
X126725000Y-69002000D02*
X126725000Y-69652000D01*
X129436000Y-69002000D02*
X130366000Y-68072000D01*
X138367000Y-60071000D02*
X168910000Y-60071000D01*
X130366000Y-68072000D02*
X138367000Y-60071000D01*
X126725000Y-69002000D02*
X129436000Y-69002000D01*
%TO.N,/Fet_C*%
X126852000Y-124262000D02*
X126852000Y-123612000D01*
X129436000Y-123612000D02*
X130366000Y-122682000D01*
X126852000Y-123612000D02*
X129436000Y-123612000D01*
X168998990Y-117055990D02*
X169037000Y-117094000D01*
X135992010Y-117055990D02*
X168998990Y-117055990D01*
X130366000Y-122682000D02*
X135992010Y-117055990D01*
%TO.N,Net-(C3-Pad1)*%
X155067000Y-119634000D02*
X159005000Y-119634000D01*
X159005000Y-119634000D02*
X159068000Y-119697000D01*
X159068000Y-119697000D02*
X159068000Y-121539000D01*
X159068000Y-117856000D02*
X159068000Y-119697000D01*
%TO.N,Net-(C4-Pad1)*%
X159005000Y-129667000D02*
X159068000Y-129730000D01*
X155067000Y-129667000D02*
X159005000Y-129667000D01*
X159068000Y-129730000D02*
X159068000Y-131445000D01*
X159068000Y-127889000D02*
X159068000Y-129730000D01*
%TO.N,Net-(J2-Pad2)*%
X164799000Y-117856000D02*
X169037000Y-122094000D01*
X160718000Y-117856000D02*
X164799000Y-117856000D01*
%TO.N,Net-(J2-Pad4)*%
X168388000Y-131445000D02*
X169037000Y-132094000D01*
X160718000Y-131445000D02*
X168388000Y-131445000D01*
%TO.N,/Fet_B*%
X126725000Y-70952000D02*
X126725000Y-70302000D01*
X129182000Y-70952000D02*
X130239000Y-72009000D01*
X126725000Y-70952000D02*
X129182000Y-70952000D01*
X170210001Y-71371001D02*
X168910000Y-70071000D01*
X170210001Y-75695001D02*
X170210001Y-71371001D01*
X168269992Y-77635010D02*
X170210001Y-75695001D01*
X135865010Y-77635010D02*
X168269992Y-77635010D01*
X130239000Y-72009000D02*
X135865010Y-77635010D01*
%TO.N,/Fet_D*%
X126852000Y-125562000D02*
X126852000Y-124912000D01*
X129373000Y-125562000D02*
X130303000Y-126492000D01*
X126852000Y-125562000D02*
X129373000Y-125562000D01*
X170337001Y-128394001D02*
X169037000Y-127094000D01*
X170337001Y-132718001D02*
X170337001Y-128394001D01*
X169661001Y-133394001D02*
X170337001Y-132718001D01*
X136730001Y-133394001D02*
X169661001Y-133394001D01*
X130303000Y-126967000D02*
X136730001Y-133394001D01*
X130303000Y-126492000D02*
X130303000Y-126967000D01*
%TO.N,Net-(Q1-Pad4)*%
X119062000Y-71882000D02*
X119126000Y-71946000D01*
X115570000Y-71882000D02*
X119062000Y-71882000D01*
X122551000Y-71946000D02*
X123545000Y-70952000D01*
X119126000Y-71946000D02*
X122551000Y-71946000D01*
%TO.N,Net-(Q1-Pad2)*%
X119062000Y-67945000D02*
X119126000Y-67881000D01*
X115633000Y-67945000D02*
X119062000Y-67945000D01*
X120897000Y-69652000D02*
X123545000Y-69652000D01*
X119126000Y-67881000D02*
X120897000Y-69652000D01*
%TO.N,Net-(Q2-Pad4)*%
X115760000Y-126492000D02*
X118428000Y-126492000D01*
X121941990Y-127292010D02*
X123672000Y-125562000D01*
X116560010Y-127292010D02*
X121941990Y-127292010D01*
X115760000Y-126492000D02*
X116560010Y-127292010D01*
%TO.N,Net-(Q2-Pad2)*%
X115760000Y-122555000D02*
X118428000Y-122555000D01*
X123042000Y-124262000D02*
X123672000Y-124262000D01*
X120534990Y-121754990D02*
X123042000Y-124262000D01*
X116560010Y-121754990D02*
X120534990Y-121754990D01*
X115760000Y-122555000D02*
X116560010Y-121754990D01*
%TO.N,Net-(C11-Pad2)*%
X155900000Y-106484000D02*
X155900000Y-103623000D01*
X160401000Y-110985000D02*
X155900000Y-106484000D01*
%TD*%
M02*
