%TF.GenerationSoftware,KiCad,Pcbnew,(5.1.10)-1*%
%TF.CreationDate,2021-11-30T13:01:00-06:00*%
%TF.ProjectId,Charges_KiCAD_Project,43686172-6765-4735-9f4b-694341445f50,rev?*%
%TF.SameCoordinates,Original*%
%TF.FileFunction,Soldermask,Bot*%
%TF.FilePolarity,Negative*%
%FSLAX46Y46*%
G04 Gerber Fmt 4.6, Leading zero omitted, Abs format (unit mm)*
G04 Created by KiCad (PCBNEW (5.1.10)-1) date 2021-11-30 13:01:00*
%MOMM*%
%LPD*%
G01*
G04 APERTURE LIST*
%ADD10C,4.800000*%
%ADD11C,1.650000*%
%ADD12R,1.650000X1.650000*%
%ADD13C,1.950000*%
%ADD14C,1.500000*%
%ADD15O,2.000000X2.000000*%
%ADD16R,2.000000X2.000000*%
G04 APERTURE END LIST*
D10*
%TO.C,J3*%
X108585000Y-127800000D03*
X108585000Y-64300000D03*
D11*
X107315000Y-119595000D03*
X107315000Y-116825000D03*
X107315000Y-114055000D03*
X107315000Y-111285000D03*
X107315000Y-108515000D03*
X107315000Y-105745000D03*
X107315000Y-102975000D03*
X107315000Y-100205000D03*
X107315000Y-97435000D03*
X107315000Y-94665000D03*
X107315000Y-91895000D03*
X107315000Y-89125000D03*
X107315000Y-86355000D03*
X107315000Y-83585000D03*
X107315000Y-80815000D03*
X107315000Y-78045000D03*
X107315000Y-75275000D03*
X107315000Y-72505000D03*
X109855000Y-120980000D03*
X109855000Y-118210000D03*
X109855000Y-115440000D03*
X109855000Y-112670000D03*
X109855000Y-109900000D03*
X109855000Y-107130000D03*
X109855000Y-104360000D03*
X109855000Y-101590000D03*
X109855000Y-98820000D03*
X109855000Y-96050000D03*
X109855000Y-93280000D03*
X109855000Y-90510000D03*
X109855000Y-87740000D03*
X109855000Y-84970000D03*
X109855000Y-82200000D03*
X109855000Y-79430000D03*
X109855000Y-76660000D03*
X109855000Y-73890000D03*
D12*
X109855000Y-71120000D03*
%TD*%
D13*
%TO.C,J2*%
X169037000Y-132094000D03*
X169037000Y-127094000D03*
X169037000Y-122094000D03*
X169037000Y-117094000D03*
%TD*%
%TO.C,J1*%
X168910000Y-75071000D03*
X168910000Y-70071000D03*
X168910000Y-65071000D03*
X168910000Y-60071000D03*
%TD*%
D14*
%TO.C,IC1*%
X119841000Y-109728000D03*
X124841000Y-109728000D03*
%TD*%
D15*
%TO.C,C4*%
X140067000Y-129667000D03*
D16*
X155067000Y-129667000D03*
%TD*%
D15*
%TO.C,C3*%
X140067000Y-119634000D03*
D16*
X155067000Y-119634000D03*
%TD*%
D15*
%TO.C,C2*%
X139940000Y-75057000D03*
D16*
X154940000Y-75057000D03*
%TD*%
D15*
%TO.C,C1*%
X139940000Y-64897000D03*
D16*
X154940000Y-64897000D03*
%TD*%
M02*
